<svg xmlns="http://www.w3.org/2000/svg" xmlns:xlink="http://www.w3.org/1999/xlink" width="500" zoomAndPan="magnify" viewBox="0 0 375 374.999991" height="500" preserveAspectRatio="xMidYMid meet" version="1.0"><defs><clipPath id="fc1c13a353"><path d="M 69.367188 88.339844 L 202 88.339844 L 202 248.089844 L 69.367188 248.089844 Z M 69.367188 88.339844 " clip-rule="nonzero"/></clipPath><clipPath id="9875cbdadc"><path d="M 210.949219 194.195312 L 295 194.195312 L 295 210 L 210.949219 210 Z M 210.949219 194.195312 " clip-rule="nonzero"/></clipPath><clipPath id="b2cde9740f"><path d="M 210.84375 269 L 293 269 L 293 284 L 210.84375 284 Z M 210.84375 269 " clip-rule="nonzero"/></clipPath><clipPath id="dc0dd0099f"><path d="M 212.632812 230 L 282 230 L 282 246 L 212.632812 246 Z M 212.632812 230 " clip-rule="nonzero"/></clipPath><clipPath id="4584e15429"><path d="M 212.128906 212 L 259 212 L 259 228 L 212.128906 228 Z M 212.128906 212 " clip-rule="nonzero"/></clipPath><clipPath id="5a5204f938"><path d="M 212.128906 249 L 259 249 L 259 265 L 212.128906 265 Z M 212.128906 249 " clip-rule="nonzero"/></clipPath></defs><rect x="-37.5" width="450" fill="#ffffff" y="-37.499999" height="449.999989" fill-opacity="1"/><rect x="-37.5" width="450" fill="#ffffff" y="-37.499999" height="449.999989" fill-opacity="1"/><g clip-path="url(#fc1c13a353)"><path fill="#000000" d="M 171.714844 165.589844 C 195.070312 170.328125 202.257812 182.949219 201.324219 204.972656 C 194.757812 190.589844 181.703125 180.992188 166.894531 174.621094 C 168.878906 172.039062 170.742188 169.316406 171.714844 165.589844 M 69.375 88.339844 L 144.621094 88.339844 C 164.339844 88.339844 178.230469 91.167969 186.222656 96.773438 C 194.246094 102.382812 198.246094 111.949219 198.246094 125.46875 L 198.246094 135.769531 C 198.246094 144.785156 196.046875 151.746094 191.648438 156.621094 C 187.304688 161.402344 180.667969 164.359375 171.742188 165.488281 C 172.3125 163.257812 172.558594 160.664062 172.332031 157.535156 C 166.296875 157.765625 161.378906 159.414062 157.617188 162.542969 C 167.808594 138.914062 155.71875 135.070312 135.398438 134.765625 C 125.546875 134.613281 118.039062 131.113281 113.167969 123.835938 C 114.269531 131.0625 117.277344 135.808594 122.007812 138.277344 C 126.601562 140.855469 131.113281 141.671875 136.085938 142.710938 C 147.382812 145.078125 148.550781 155.046875 142.277344 163.285156 C 144.078125 157.140625 142.859375 151.863281 138.550781 147.480469 C 139.359375 151.078125 139.101562 153.898438 137.578125 155.789062 C 130.867188 153.347656 124.347656 153.714844 118.046875 157.386719 C 111.3125 142.113281 94.097656 153.867188 80.894531 144.292969 C 88.015625 161.449219 106.152344 148.707031 108.65625 161.339844 C 106.1875 158.894531 102.472656 158.128906 99.183594 158.234375 C 102.34375 159.1875 105.9375 161.4375 107.15625 164.605469 C 108.292969 167.554688 106.777344 176.648438 105.382812 179.230469 L 98.609375 191.765625 C 94.640625 199.09375 91.496094 213.730469 106.464844 214.5625 C 112.636719 214.902344 116.839844 212.1875 122.578125 211.074219 C 136.820312 208.300781 149.976562 220.003906 155.480469 232.28125 C 150.574219 225.8125 144.648438 222.113281 138.394531 219.429688 C 141.628906 231.335938 141.265625 240.855469 137.640625 248.21875 L 69.375 248.21875 Z M 69.375 88.339844 " fill-opacity="1" fill-rule="nonzero"/></g><g clip-path="url(#9875cbdadc)"><path fill="#000000" d="M 159.625 209.382812 L 235.90625 209.382812 L 239.164062 203.75 L 246.707031 203.75 L 249.960938 209.382812 C 252.769531 209.382812 287.964844 209.382812 290.773438 209.382812 L 294.988281 202.085938 L 290.773438 194.789062 C 287.964844 194.789062 252.769531 194.789062 249.960938 194.789062 L 246.707031 200.421875 L 239.164062 200.421875 L 235.90625 194.789062 L 159.625 194.789062 C 158.785156 199.609375 158.785156 204.546875 159.625 209.382812 Z M 159.625 209.382812 " fill-opacity="1" fill-rule="nonzero"/></g><g clip-path="url(#b2cde9740f)"><path fill="#000000" d="M 156.84375 283.742188 L 233.125 283.742188 L 236.382812 278.113281 L 243.925781 278.113281 L 247.183594 283.742188 C 249.992188 283.742188 285.183594 283.742188 287.992188 283.742188 L 292.207031 276.449219 L 287.992188 269.152344 C 285.183594 269.152344 249.992188 269.152344 247.183594 269.152344 L 243.925781 274.78125 L 236.382812 274.78125 L 233.125 269.152344 L 156.84375 269.152344 C 156.003906 273.972656 156.003906 278.910156 156.84375 283.742188 Z M 156.84375 283.742188 " fill-opacity="1" fill-rule="nonzero"/></g><g clip-path="url(#dc0dd0099f)"><path fill="#000000" d="M 268.9375 230.601562 L 265.679688 236.230469 L 258.136719 236.230469 L 254.878906 230.601562 L 174.457031 230.601562 C 189.570312 247.640625 206.523438 245.207031 226.964844 245.207031 L 254.878906 245.207031 L 258.136719 239.574219 L 265.679688 239.574219 L 268.9375 245.207031 L 277.363281 245.207031 L 281.574219 237.910156 L 277.363281 230.613281 L 268.9375 230.613281 Z M 268.9375 230.601562 " fill-opacity="1" fill-rule="nonzero"/></g><path stroke-linecap="butt" transform="matrix(0, 0.75, -0.75, 0, 208.422471, 194.444342)" fill="none" stroke-linejoin="miter" d="M 0.00129449 4.000795 L 118.579427 4.000795 " stroke="#000000" stroke-width="8" stroke-opacity="1" stroke-miterlimit="4"/><g clip-path="url(#4584e15429)"><path fill="#000000" d="M 234.976562 221.488281 L 242.558594 221.488281 L 245.835938 227.148438 L 254.304688 227.148438 L 258.542969 219.8125 L 254.304688 212.476562 L 245.835938 212.476562 L 242.558594 218.140625 L 234.976562 218.140625 L 231.699219 212.476562 L 181.042969 212.476562 C 182.410156 217.832031 184.78125 222.796875 187.941406 227.164062 L 231.699219 227.164062 Z M 234.976562 221.488281 " fill-opacity="1" fill-rule="nonzero"/></g><g clip-path="url(#5a5204f938)"><path fill="#000000" d="M 234.976562 258.433594 L 242.558594 258.433594 L 245.835938 264.097656 L 254.304688 264.097656 L 258.542969 256.761719 L 254.304688 249.425781 L 245.835938 249.425781 L 242.558594 255.085938 L 234.976562 255.085938 L 231.699219 249.425781 L 181.042969 249.425781 C 182.410156 254.78125 184.78125 259.746094 187.941406 264.113281 L 231.699219 264.113281 Z M 234.976562 258.433594 " fill-opacity="1" fill-rule="nonzero"/></g></svg>