<svg xmlns="http://www.w3.org/2000/svg" xmlns:xlink="http://www.w3.org/1999/xlink" width="500" zoomAndPan="magnify" viewBox="0 0 375 374.999991" height="500" preserveAspectRatio="xMidYMid meet" version="1.0"><defs><g/><clipPath id="2ad0553c89"><path d="M 52 128.195312 L 185 128.195312 L 185 233.945312 L 52 233.945312 Z M 52 128.195312 " clip-rule="nonzero"/></clipPath></defs><rect x="-37.5" width="450" fill="#ffffff" y="-37.499999" height="449.999989" fill-opacity="1"/><rect x="-37.5" width="450" fill="#000000" y="-37.499999" height="449.999989" fill-opacity="1"/><g clip-path="url(#2ad0553c89)"><path fill="#ffa100" d="M 176.296875 165.417969 L 156.558594 165.417969 L 120.558594 128.808594 C 120.050781 128.269531 119.335938 127.972656 118.574219 127.972656 C 117.828125 127.972656 117.109375 128.269531 116.589844 128.808594 L 80.605469 165.417969 L 60.835938 165.417969 C 56.238281 165.417969 52.460938 169.179688 52.460938 173.808594 L 52.460938 225.441406 C 52.460938 230.054688 56.238281 233.832031 60.835938 233.832031 L 176.296875 233.832031 C 180.925781 233.832031 184.703125 230.054688 184.703125 225.441406 L 184.703125 173.792969 C 184.703125 169.179688 180.925781 165.417969 176.296875 165.417969 Z M 77.199219 207.148438 C 77.199219 208.03125 76.992188 208.6875 76.589844 209.105469 C 76.183594 209.539062 75.679688 209.761719 75.050781 209.761719 C 74.410156 209.761719 73.886719 209.539062 73.496094 209.105469 C 73.125 208.671875 72.929688 208.015625 72.929688 207.148438 L 72.929688 200.074219 L 63.71875 200.074219 L 63.71875 207.148438 C 63.71875 208.03125 63.523438 208.6875 63.105469 209.105469 C 62.71875 209.539062 62.195312 209.761719 61.566406 209.761719 C 60.925781 209.761719 60.417969 209.539062 60.03125 209.105469 C 59.65625 208.671875 59.464844 208.015625 59.464844 207.148438 L 59.464844 190.5625 C 59.464844 189.695312 59.65625 189.054688 60.03125 188.621094 C 60.402344 188.1875 60.925781 187.976562 61.582031 187.976562 C 62.226562 187.976562 62.746094 188.203125 63.136719 188.621094 C 63.523438 189.054688 63.734375 189.695312 63.734375 190.5625 L 63.734375 196.59375 L 72.945312 196.59375 L 72.945312 190.5625 C 72.945312 189.695312 73.140625 189.054688 73.527344 188.621094 C 73.917969 188.1875 74.421875 187.976562 75.066406 187.976562 C 75.691406 187.976562 76.214844 188.203125 76.617188 188.621094 C 77.023438 189.054688 77.214844 189.695312 77.214844 190.5625 L 77.214844 207.148438 Z M 113.707031 139.707031 C 114.347656 141.769531 116.289062 143.277344 118.574219 143.277344 C 120.859375 143.277344 122.800781 141.769531 123.441406 139.691406 L 148.703125 165.417969 L 88.429688 165.417969 Z M 100.777344 203.265625 C 100.328125 204.609375 99.671875 205.761719 98.789062 206.730469 C 97.910156 207.71875 96.835938 208.464844 95.550781 208.972656 C 94.265625 209.492188 92.789062 209.761719 91.132812 209.761719 C 89.488281 209.761719 88.011719 209.492188 86.710938 208.957031 C 85.414062 208.417969 84.324219 207.671875 83.457031 206.703125 C 82.574219 205.730469 81.917969 204.566406 81.472656 203.207031 C 81.023438 201.847656 80.800781 200.386719 80.800781 198.816406 C 80.800781 197.207031 81.039062 195.699219 81.5 194.355469 C 81.964844 193.011719 82.636719 191.859375 83.515625 190.90625 C 84.398438 189.964844 85.472656 189.234375 86.742188 188.726562 C 87.996094 188.230469 89.445312 187.976562 91.042969 187.976562 C 93.222656 187.976562 95.101562 188.425781 96.671875 189.308594 C 98.222656 190.1875 99.417969 191.457031 100.222656 193.085938 C 101.03125 194.710938 101.433594 196.636719 101.433594 198.832031 C 101.433594 200.460938 101.210938 201.953125 100.777344 203.265625 Z M 120.113281 206.507812 C 119.453125 207.523438 118.484375 208.3125 117.230469 208.882812 C 115.960938 209.480469 114.46875 209.761719 112.734375 209.761719 C 110.660156 209.761719 108.945312 209.375 107.585938 208.582031 C 106.628906 208.015625 105.835938 207.253906 105.242188 206.3125 C 104.644531 205.371094 104.34375 204.445312 104.34375 203.566406 C 104.34375 203.042969 104.523438 202.59375 104.882812 202.222656 C 105.242188 201.847656 105.703125 201.671875 106.257812 201.671875 C 106.703125 201.671875 107.09375 201.820312 107.390625 202.089844 C 107.703125 202.386719 107.972656 202.804688 108.195312 203.371094 C 108.464844 204.042969 108.75 204.609375 109.0625 205.058594 C 109.375 205.492188 109.808594 205.878906 110.375 206.164062 C 110.960938 206.460938 111.691406 206.597656 112.617188 206.597656 C 113.871094 206.597656 114.902344 206.296875 115.691406 205.703125 C 116.484375 205.148438 116.871094 204.417969 116.871094 203.535156 C 116.871094 202.835938 116.664062 202.265625 116.230469 201.847656 C 115.8125 201.402344 115.257812 201.074219 114.570312 200.832031 C 113.914062 200.609375 113.003906 200.355469 111.882812 200.101562 C 110.363281 199.742188 109.09375 199.339844 108.078125 198.863281 C 107.0625 198.386719 106.242188 197.742188 105.660156 196.921875 C 105.0625 196.101562 104.746094 195.085938 104.746094 193.875 C 104.746094 192.710938 105.0625 191.679688 105.6875 190.769531 C 106.316406 189.875 107.242188 189.1875 108.4375 188.695312 C 109.628906 188.203125 111.046875 187.964844 112.675781 187.964844 C 113.960938 187.964844 115.078125 188.128906 116.019531 188.441406 C 116.976562 188.753906 117.753906 189.203125 118.378906 189.726562 C 119.007812 190.261719 119.453125 190.816406 119.753906 191.398438 C 120.035156 191.996094 120.171875 192.5625 120.171875 193.113281 C 120.171875 193.621094 119.992188 194.085938 119.632812 194.488281 C 119.261719 194.90625 118.828125 195.101562 118.273438 195.101562 C 117.78125 195.101562 117.425781 194.980469 117.171875 194.726562 C 116.917969 194.488281 116.632812 194.101562 116.347656 193.53125 C 115.960938 192.742188 115.496094 192.113281 114.960938 191.679688 C 114.421875 191.234375 113.558594 191.007812 112.378906 191.007812 C 111.273438 191.007812 110.390625 191.261719 109.71875 191.742188 C 109.046875 192.21875 108.691406 192.800781 108.691406 193.488281 C 108.691406 193.90625 108.824219 194.277344 109.03125 194.59375 C 109.273438 194.90625 109.585938 195.160156 109.972656 195.371094 C 110.375 195.59375 110.78125 195.773438 111.199219 195.890625 C 111.632812 196.011719 112.304688 196.191406 113.257812 196.429688 C 114.453125 196.714844 115.511719 196.996094 116.484375 197.339844 C 117.453125 197.683594 118.273438 198.085938 118.945312 198.5625 C 119.617188 199.042969 120.140625 199.640625 120.515625 200.386719 C 120.902344 201.117188 121.097656 202.011719 121.097656 203.089844 C 121.082031 204.359375 120.753906 205.507812 120.113281 206.507812 Z M 140.027344 191.367188 C 139.640625 191.695312 139.101562 191.859375 138.386719 191.859375 L 133.726562 191.859375 L 133.726562 207.148438 C 133.726562 208.046875 133.535156 208.703125 133.144531 209.121094 C 132.757812 209.539062 132.234375 209.761719 131.609375 209.761719 C 130.996094 209.761719 130.472656 209.539062 130.054688 209.105469 C 129.667969 208.6875 129.472656 208.03125 129.472656 207.148438 L 129.472656 191.859375 L 124.828125 191.859375 C 124.082031 191.859375 123.558594 191.695312 123.203125 191.382812 C 122.859375 191.054688 122.664062 190.636719 122.664062 190.097656 C 122.664062 189.546875 122.84375 189.128906 123.21875 188.816406 C 123.589844 188.5 124.113281 188.335938 124.816406 188.335938 L 138.371094 188.335938 C 139.089844 188.335938 139.640625 188.5 140 188.828125 C 140.371094 189.15625 140.535156 189.574219 140.535156 190.097656 C 140.535156 190.621094 140.386719 191.054688 140.027344 191.367188 Z M 158.8125 208.925781 C 158.484375 209.253906 157.976562 209.390625 157.304688 209.390625 L 145.703125 209.390625 C 144.761719 209.390625 144.105469 209.179688 143.703125 208.777344 C 143.300781 208.375 143.105469 207.703125 143.105469 206.792969 L 143.105469 190.949219 C 143.105469 190.335938 143.195312 189.84375 143.375 189.441406 C 143.566406 189.054688 143.851562 188.769531 144.238281 188.589844 C 144.628906 188.410156 145.136719 188.320312 145.734375 188.320312 L 157.003906 188.320312 C 157.675781 188.320312 158.183594 188.472656 158.527344 188.769531 C 158.839844 189.082031 159.007812 189.472656 159.007812 189.949219 C 159.007812 190.457031 158.839844 190.859375 158.527344 191.160156 C 158.199219 191.457031 157.675781 191.605469 157.003906 191.605469 L 147.359375 191.605469 L 147.359375 196.773438 L 156.230469 196.773438 C 156.871094 196.773438 157.347656 196.921875 157.675781 197.207031 C 157.992188 197.550781 158.140625 197.921875 158.140625 198.398438 C 158.140625 198.863281 157.976562 199.265625 157.664062 199.566406 C 157.347656 199.878906 156.871094 200.011719 156.214844 200.011719 L 147.359375 200.011719 L 147.359375 206 L 157.304688 206 C 157.976562 206 158.484375 206.148438 158.828125 206.460938 C 159.15625 206.777344 159.335938 207.179688 159.335938 207.703125 C 159.320312 208.210938 159.15625 208.628906 158.8125 208.925781 Z M 177.148438 208.910156 C 176.773438 209.226562 176.25 209.390625 175.550781 209.390625 L 165.246094 209.390625 C 164.304688 209.390625 163.648438 209.179688 163.246094 208.777344 C 162.828125 208.375 162.621094 207.703125 162.621094 206.792969 L 162.621094 190.5625 C 162.621094 189.695312 162.8125 189.054688 163.203125 188.621094 C 163.589844 188.203125 164.113281 187.980469 164.753906 187.980469 C 165.394531 187.980469 165.902344 188.203125 166.292969 188.621094 C 166.679688 189.054688 166.902344 189.695312 166.902344 190.5625 L 166.902344 205.894531 L 175.535156 205.894531 C 176.222656 205.894531 176.757812 206.058594 177.117188 206.386719 C 177.476562 206.714844 177.667969 207.148438 177.667969 207.65625 C 177.683594 208.179688 177.503906 208.613281 177.148438 208.910156 Z M 177.148438 208.910156 " fill-opacity="1" fill-rule="nonzero"/></g><path fill="#ffa100" d="M 94.222656 192.25 C 93.296875 191.652344 92.25 191.367188 91.042969 191.367188 C 90.191406 191.367188 89.398438 191.53125 88.683594 191.859375 C 87.964844 192.1875 87.339844 192.652344 86.816406 193.265625 C 86.292969 193.859375 85.890625 194.652344 85.578125 195.609375 C 85.277344 196.5625 85.128906 197.609375 85.128906 198.816406 C 85.128906 199.996094 85.277344 201.085938 85.578125 202.058594 C 85.890625 203.027344 86.308594 203.820312 86.859375 204.445312 C 87.414062 205.089844 88.039062 205.582031 88.757812 205.894531 C 89.472656 206.207031 90.25 206.375 91.101562 206.375 C 92.191406 206.375 93.207031 206.074219 94.117188 205.535156 C 95.027344 205 95.746094 204.148438 96.296875 203.015625 C 96.835938 201.878906 97.117188 200.476562 97.117188 198.816406 C 97.117188 197.265625 96.863281 195.921875 96.371094 194.785156 C 95.863281 193.667969 95.148438 192.816406 94.222656 192.25 Z M 94.222656 192.25 " fill-opacity="1" fill-rule="nonzero"/><g fill="#ffa100" fill-opacity="1"><g transform="translate(201.228829, 215.483504)"><g><path d="M 27.0625 -18.890625 C 26.957031 -18.515625 26.84375 -18.132812 26.71875 -17.75 C 26.601562 -17.375 26.5625 -16.945312 26.59375 -16.46875 C 26.90625 -16.5 27.191406 -16.53125 27.453125 -16.5625 C 27.722656 -16.601562 27.988281 -16.640625 28.25 -16.671875 C 28.832031 -16.722656 29.410156 -16.773438 29.984375 -16.828125 C 30.554688 -16.878906 31.117188 -16.921875 31.671875 -16.953125 C 31.910156 -16.953125 32.144531 -16.914062 32.375 -16.84375 C 32.613281 -16.78125 32.84375 -16.707031 33.0625 -16.625 C 33.269531 -16.550781 33.441406 -16.429688 33.578125 -16.265625 C 33.710938 -16.109375 33.75 -15.875 33.6875 -15.5625 C 33.1875 -15.1875 32.632812 -15.117188 32.03125 -15.359375 C 31.632812 -15.515625 31.242188 -15.566406 30.859375 -15.515625 C 30.472656 -15.460938 30.09375 -15.394531 29.71875 -15.3125 C 29.113281 -15.1875 28.492188 -15.050781 27.859375 -14.90625 C 27.222656 -14.757812 26.578125 -14.609375 25.921875 -14.453125 C 25.234375 -12.253906 24.597656 -10.039062 24.015625 -7.8125 C 23.429688 -5.59375 22.847656 -3.382812 22.265625 -1.1875 C 21.710938 1.007812 21.160156 3.203125 20.609375 5.390625 C 20.066406 7.585938 19.519531 9.785156 18.96875 11.984375 C 18.519531 12.015625 18.222656 11.992188 18.078125 11.921875 C 17.929688 11.859375 17.859375 11.707031 17.859375 11.46875 C 17.890625 10.914062 17.90625 10.367188 17.90625 9.828125 C 17.90625 9.285156 17.957031 8.75 18.0625 8.21875 C 18.507812 6.019531 18.976562 3.828125 19.46875 1.640625 C 19.957031 -0.535156 20.441406 -2.707031 20.921875 -4.875 C 21.210938 -6.125 21.507812 -7.363281 21.8125 -8.59375 C 22.113281 -9.820312 22.410156 -11.054688 22.703125 -12.296875 C 22.753906 -12.460938 22.789062 -12.632812 22.8125 -12.8125 C 22.84375 -13 22.882812 -13.210938 22.9375 -13.453125 C 22.78125 -13.453125 22.640625 -13.460938 22.515625 -13.484375 C 22.398438 -13.515625 22.300781 -13.519531 22.21875 -13.5 C 20.15625 -12.914062 18.09375 -12.320312 16.03125 -11.71875 C 13.96875 -11.125 11.90625 -10.539062 9.84375 -9.96875 C 9.757812 -9.9375 9.675781 -9.894531 9.59375 -9.84375 C 9.519531 -9.789062 9.441406 -9.75 9.359375 -9.71875 C 9.179688 -9.25 8.957031 -8.539062 8.6875 -7.59375 C 8.425781 -6.65625 8.140625 -5.59375 7.828125 -4.40625 C 7.523438 -3.21875 7.222656 -1.988281 6.921875 -0.71875 C 6.617188 0.550781 6.34375 1.753906 6.09375 2.890625 C 5.84375 4.035156 5.644531 5.015625 5.5 5.828125 C 5.351562 6.648438 5.28125 7.222656 5.28125 7.546875 C 4.25 7.992188 3.71875 7.753906 3.6875 6.828125 C 3.6875 6.296875 3.695312 5.769531 3.71875 5.25 C 3.75 4.738281 3.816406 4.234375 3.921875 3.734375 C 4.265625 1.898438 4.613281 0.0664062 4.96875 -1.765625 C 5.332031 -3.609375 5.6875 -5.453125 6.03125 -7.296875 C 6.0625 -7.484375 6.085938 -7.6875 6.109375 -7.90625 C 6.140625 -8.132812 6.179688 -8.382812 6.234375 -8.65625 C 5.703125 -8.601562 5.226562 -8.484375 4.8125 -8.296875 C 4.40625 -8.109375 3.992188 -7.945312 3.578125 -7.8125 C 3.253906 -7.707031 2.929688 -7.625 2.609375 -7.5625 C 2.296875 -7.5 1.984375 -7.453125 1.671875 -7.421875 C 1.503906 -7.421875 1.34375 -7.472656 1.1875 -7.578125 C 1.03125 -7.679688 0.859375 -7.773438 0.671875 -7.859375 C 0.992188 -8.515625 1.429688 -8.960938 1.984375 -9.203125 C 2.535156 -9.441406 3.078125 -9.679688 3.609375 -9.921875 C 4.109375 -10.179688 4.628906 -10.410156 5.171875 -10.609375 C 5.722656 -10.804688 6.285156 -11.023438 6.859375 -11.265625 C 7.046875 -12.066406 7.238281 -12.851562 7.4375 -13.625 C 7.632812 -14.40625 7.828125 -15.195312 8.015625 -16 C 8.441406 -17.664062 8.863281 -19.332031 9.28125 -21 C 9.707031 -22.664062 10.132812 -24.332031 10.5625 -26 C 10.6875 -26.445312 10.820312 -26.878906 10.96875 -27.296875 C 11.113281 -27.722656 11.269531 -28.148438 11.4375 -28.578125 C 11.539062 -28.835938 11.671875 -29.070312 11.828125 -29.28125 C 11.984375 -29.5 12.207031 -29.660156 12.5 -29.765625 C 12.6875 -29.816406 12.878906 -29.828125 13.078125 -29.796875 C 13.273438 -29.773438 13.625 -29.660156 14.125 -29.453125 C 14.101562 -28.734375 13.976562 -28.035156 13.75 -27.359375 C 13.53125 -26.691406 13.335938 -26 13.171875 -25.28125 C 13.015625 -24.5625 12.847656 -23.851562 12.671875 -23.15625 C 12.503906 -22.457031 12.328125 -21.765625 12.140625 -21.078125 C 11.796875 -19.648438 11.453125 -18.234375 11.109375 -16.828125 C 10.921875 -16.140625 10.738281 -15.4375 10.5625 -14.71875 C 10.394531 -14.007812 10.207031 -13.269531 10 -12.5 C 10.207031 -12.5 10.390625 -12.492188 10.546875 -12.484375 C 10.710938 -12.472656 10.863281 -12.476562 11 -12.5 C 12.976562 -13 14.957031 -13.503906 16.9375 -14.015625 C 18.925781 -14.535156 20.925781 -15.050781 22.9375 -15.5625 C 23.019531 -15.582031 23.109375 -15.617188 23.203125 -15.671875 C 23.296875 -15.722656 23.40625 -15.773438 23.53125 -15.828125 C 23.613281 -16.066406 23.703125 -16.328125 23.796875 -16.609375 C 23.890625 -16.890625 23.972656 -17.175781 24.046875 -17.46875 C 24.765625 -20.164062 25.488281 -22.847656 26.21875 -25.515625 C 26.945312 -28.191406 27.691406 -30.863281 28.453125 -33.53125 C 28.722656 -34.457031 29.035156 -35.375 29.390625 -36.28125 C 29.742188 -37.195312 30.109375 -38.09375 30.484375 -38.96875 C 30.691406 -39.476562 30.929688 -39.757812 31.203125 -39.8125 C 31.484375 -39.863281 31.941406 -39.753906 32.578125 -39.484375 C 32.554688 -39.035156 32.488281 -38.597656 32.375 -38.171875 C 32.269531 -37.753906 32.164062 -37.320312 32.0625 -36.875 C 31.21875 -33.882812 30.378906 -30.882812 29.546875 -27.875 C 28.710938 -24.875 27.882812 -21.878906 27.0625 -18.890625 Z M 27.0625 -18.890625 "/></g></g></g><g fill="#ffa100" fill-opacity="1"><g transform="translate(232.298348, 215.483504)"><g><path d="M 35.484375 -35.59375 C 35.878906 -36.394531 36.28125 -36.867188 36.6875 -37.015625 C 37.101562 -37.160156 37.800781 -37.054688 38.78125 -36.703125 C 38.882812 -36.285156 38.894531 -35.894531 38.8125 -35.53125 C 38.726562 -35.175781 38.632812 -34.828125 38.53125 -34.484375 C 37.976562 -32.847656 37.429688 -31.210938 36.890625 -29.578125 C 36.347656 -27.953125 35.8125 -26.320312 35.28125 -24.6875 C 33.90625 -20.5625 32.519531 -16.429688 31.125 -12.296875 C 29.738281 -8.171875 28.359375 -4.046875 26.984375 0.078125 C 26.566406 1.398438 26.203125 2.734375 25.890625 4.078125 C 25.585938 5.429688 25.34375 6.785156 25.15625 8.140625 C 24.738281 8.535156 24.25 8.5625 23.6875 8.21875 C 23.582031 7.6875 23.539062 7.132812 23.5625 6.5625 C 23.59375 6 23.648438 5.4375 23.734375 4.875 C 23.921875 3.238281 24.210938 1.632812 24.609375 0.0625 C 25.003906 -1.507812 25.441406 -3.078125 25.921875 -4.640625 C 26.609375 -6.941406 27.304688 -9.226562 28.015625 -11.5 C 28.734375 -13.78125 29.445312 -16.054688 30.15625 -18.328125 C 30.269531 -18.648438 30.363281 -18.96875 30.4375 -19.28125 C 30.519531 -19.601562 30.546875 -19.9375 30.515625 -20.28125 C 30.390625 -20.09375 30.242188 -19.894531 30.078125 -19.6875 C 29.921875 -19.476562 29.773438 -19.265625 29.640625 -19.046875 C 28.210938 -16.847656 26.710938 -14.71875 25.140625 -12.65625 C 23.566406 -10.59375 21.90625 -8.597656 20.15625 -6.671875 C 19.070312 -5.421875 17.921875 -4.226562 16.703125 -3.09375 C 15.484375 -1.957031 14.210938 -0.875 12.890625 0.15625 C 12.046875 0.789062 11.164062 1.375 10.25 1.90625 C 9.34375 2.4375 8.398438 2.898438 7.421875 3.296875 C 6.234375 3.773438 5.039062 3.972656 3.84375 3.890625 C 1.9375 3.753906 0.894531 2.785156 0.71875 0.984375 C 0.664062 0.328125 0.648438 -0.335938 0.671875 -1.015625 C 0.703125 -1.691406 0.753906 -2.34375 0.828125 -2.96875 C 0.992188 -4.269531 1.253906 -5.546875 1.609375 -6.796875 C 1.960938 -8.054688 2.351562 -9.296875 2.78125 -10.515625 C 3.726562 -13.347656 4.738281 -16.160156 5.8125 -18.953125 C 6.882812 -21.742188 8.039062 -24.515625 9.28125 -27.265625 C 9.675781 -28.140625 10.128906 -28.988281 10.640625 -29.8125 C 10.953125 -30.3125 11.320312 -30.707031 11.75 -31 C 12.007812 -31.207031 12.296875 -31.316406 12.609375 -31.328125 C 12.929688 -31.347656 13.226562 -31.1875 13.5 -30.84375 C 13.257812 -30.570312 13.007812 -30.300781 12.75 -30.03125 C 12.5 -29.769531 12.285156 -29.492188 12.109375 -29.203125 C 11.921875 -28.910156 11.757812 -28.59375 11.625 -28.25 C 11.5 -27.90625 11.367188 -27.578125 11.234375 -27.265625 C 9.878906 -23.898438 8.59375 -20.53125 7.375 -17.15625 C 6.164062 -13.789062 5.054688 -10.375 4.046875 -6.90625 C 3.753906 -5.820312 3.5 -4.726562 3.28125 -3.625 C 3.070312 -2.53125 3.007812 -1.414062 3.09375 -0.28125 C 3.125 0.09375 3.179688 0.46875 3.265625 0.84375 C 3.359375 1.226562 3.472656 1.609375 3.609375 1.984375 C 3.816406 2.617188 4.253906 2.816406 4.921875 2.578125 C 5.347656 2.421875 5.765625 2.25 6.171875 2.0625 C 6.578125 1.875 6.976562 1.675781 7.375 1.46875 C 9.257812 0.488281 10.984375 -0.738281 12.546875 -2.21875 C 13.546875 -3.144531 14.535156 -4.082031 15.515625 -5.03125 C 16.492188 -5.988281 17.429688 -6.972656 18.328125 -7.984375 C 20.972656 -10.941406 23.40625 -14.050781 25.625 -17.3125 C 27.851562 -20.582031 29.84375 -24.003906 31.59375 -27.578125 C 32.070312 -28.535156 32.539062 -29.488281 33 -30.4375 C 33.457031 -31.394531 33.914062 -32.347656 34.375 -33.296875 C 34.550781 -33.691406 34.722656 -34.082031 34.890625 -34.46875 C 35.066406 -34.851562 35.265625 -35.226562 35.484375 -35.59375 Z M 35.484375 -35.59375 "/></g></g></g><g fill="#ffa100" fill-opacity="1"><g transform="translate(266.502586, 215.483504)"><g><path d="M 7.34375 -10.953125 C 7.425781 -10.898438 7.519531 -10.859375 7.625 -10.828125 C 7.726562 -10.941406 7.832031 -11.054688 7.9375 -11.171875 C 8.039062 -11.285156 8.144531 -11.410156 8.25 -11.546875 C 10.3125 -14.003906 12.375 -16.46875 14.4375 -18.9375 C 16.507812 -21.414062 18.578125 -23.890625 20.640625 -26.359375 C 21.859375 -27.804688 23.109375 -29.226562 24.390625 -30.625 C 25.671875 -32.03125 27.066406 -33.332031 28.578125 -34.53125 C 28.972656 -34.875 29.390625 -35.191406 29.828125 -35.484375 C 30.265625 -35.773438 30.707031 -36.050781 31.15625 -36.3125 C 32.101562 -36.894531 33.175781 -37.109375 34.375 -36.953125 C 35.1875 -36.867188 35.75 -36.632812 36.0625 -36.25 C 36.382812 -35.863281 36.519531 -35.273438 36.46875 -34.484375 C 36.394531 -33.878906 36.265625 -33.3125 36.078125 -32.78125 C 35.648438 -31.71875 35.242188 -30.671875 34.859375 -29.640625 C 34.484375 -28.609375 34.054688 -27.578125 33.578125 -26.546875 C 32.328125 -23.929688 31.0625 -21.304688 29.78125 -18.671875 C 28.5 -16.035156 27.238281 -13.394531 26 -10.75 C 24.59375 -7.789062 23.25 -4.800781 21.96875 -1.78125 C 20.6875 1.226562 19.53125 4.296875 18.5 7.421875 C 18.175781 8.367188 17.894531 9.335938 17.65625 10.328125 C 17.414062 11.328125 17.164062 12.316406 16.90625 13.296875 C 16.875 13.453125 16.859375 13.613281 16.859375 13.78125 C 16.859375 13.957031 16.859375 14.164062 16.859375 14.40625 C 17.097656 14.488281 17.332031 14.566406 17.5625 14.640625 C 17.789062 14.722656 18.019531 14.789062 18.25 14.84375 C 18.226562 14.925781 18.203125 15 18.171875 15.0625 C 18.148438 15.125 18.113281 15.171875 18.0625 15.203125 C 17.925781 15.335938 17.753906 15.429688 17.546875 15.484375 C 16.617188 15.828125 15.890625 15.816406 15.359375 15.453125 C 14.828125 15.097656 14.5625 14.429688 14.5625 13.453125 C 14.5625 12.867188 14.609375 12.28125 14.703125 11.6875 C 14.796875 11.09375 14.910156 10.519531 15.046875 9.96875 C 15.679688 7.15625 16.453125 4.398438 17.359375 1.703125 C 18.273438 -0.992188 19.289062 -3.648438 20.40625 -6.265625 C 21.382812 -8.566406 22.40625 -10.84375 23.46875 -13.09375 C 24.539062 -15.34375 25.609375 -17.609375 26.671875 -19.890625 C 27.378906 -21.367188 28.09375 -22.84375 28.8125 -24.3125 C 29.53125 -25.78125 30.234375 -27.265625 30.921875 -28.765625 C 31.234375 -29.484375 31.519531 -30.210938 31.78125 -30.953125 C 32.050781 -31.691406 32.316406 -32.429688 32.578125 -33.171875 C 32.628906 -33.304688 32.664062 -33.453125 32.6875 -33.609375 C 32.71875 -33.773438 32.75 -33.945312 32.78125 -34.125 C 32.351562 -34.070312 32.015625 -33.929688 31.765625 -33.703125 C 31.515625 -33.484375 31.285156 -33.253906 31.078125 -33.015625 C 30.171875 -32.117188 29.273438 -31.207031 28.390625 -30.28125 C 27.503906 -29.351562 26.640625 -28.414062 25.796875 -27.46875 C 23.390625 -24.632812 20.988281 -21.800781 18.59375 -18.96875 C 16.195312 -16.132812 13.796875 -13.304688 11.390625 -10.484375 C 10.597656 -9.554688 9.765625 -8.640625 8.890625 -7.734375 C 8.015625 -6.835938 7.140625 -5.941406 6.265625 -5.046875 C 6.003906 -4.753906 5.710938 -4.488281 5.390625 -4.25 C 5.078125 -4.007812 4.722656 -3.863281 4.328125 -3.8125 C 4.035156 -3.757812 3.734375 -3.722656 3.421875 -3.703125 C 3.117188 -3.691406 2.835938 -3.710938 2.578125 -3.765625 C 1.492188 -3.929688 1.097656 -4.53125 1.390625 -5.5625 C 1.679688 -6.5625 2.050781 -7.539062 2.5 -8.5 C 3.445312 -10.457031 4.394531 -12.40625 5.34375 -14.34375 C 6.300781 -16.289062 7.257812 -18.226562 8.21875 -20.15625 C 8.375 -20.476562 8.515625 -20.800781 8.640625 -21.125 C 8.773438 -21.457031 8.867188 -21.820312 8.921875 -22.21875 C 8.816406 -22.113281 8.703125 -22 8.578125 -21.875 C 8.460938 -21.757812 8.351562 -21.640625 8.25 -21.515625 C 7.0625 -19.898438 5.90625 -18.265625 4.78125 -16.609375 C 3.65625 -14.953125 2.707031 -13.195312 1.9375 -11.34375 C 1.914062 -11.269531 1.882812 -11.195312 1.84375 -11.125 C 1.800781 -11.0625 1.753906 -11.019531 1.703125 -11 C 1.597656 -10.9375 1.484375 -10.882812 1.359375 -10.84375 C 1.242188 -10.8125 1.132812 -10.796875 1.03125 -10.796875 C 0.976562 -10.796875 0.90625 -10.84375 0.8125 -10.9375 C 0.71875 -11.03125 0.671875 -11.113281 0.671875 -11.1875 C 0.671875 -11.507812 0.671875 -11.832031 0.671875 -12.15625 C 0.671875 -12.488281 0.710938 -12.800781 0.796875 -13.09375 C 1.003906 -13.726562 1.234375 -14.347656 1.484375 -14.953125 C 1.734375 -15.566406 2.019531 -16.164062 2.34375 -16.75 C 3.457031 -18.84375 4.679688 -20.859375 6.015625 -22.796875 C 7.347656 -24.742188 8.742188 -26.644531 10.203125 -28.5 C 10.492188 -28.84375 10.8125 -29.171875 11.15625 -29.484375 C 11.84375 -30.066406 12.632812 -30.316406 13.53125 -30.234375 C 14.78125 -30.128906 15.296875 -29.484375 15.078125 -28.296875 C 14.941406 -27.554688 14.742188 -26.867188 14.484375 -26.234375 C 14.171875 -25.460938 13.851562 -24.695312 13.53125 -23.9375 C 13.21875 -23.1875 12.875 -22.441406 12.5 -21.703125 C 11.789062 -20.203125 11.0625 -18.703125 10.3125 -17.203125 C 9.570312 -15.710938 8.832031 -14.210938 8.09375 -12.703125 C 7.957031 -12.410156 7.820312 -12.117188 7.6875 -11.828125 C 7.5625 -11.535156 7.445312 -11.242188 7.34375 -10.953125 Z M 7.34375 -10.953125 "/></g></g></g><g fill="#ffa100" fill-opacity="1"><g transform="translate(296.381695, 215.483504)"><g><path d="M -7.8125 -30.875 C -8.101562 -30.925781 -8.390625 -31.019531 -8.671875 -31.15625 C -8.953125 -31.289062 -9.144531 -31.554688 -9.25 -31.953125 C -9.144531 -32.054688 -9.03125 -32.171875 -8.90625 -32.296875 C -8.789062 -32.429688 -8.664062 -32.539062 -8.53125 -32.625 C -8.269531 -32.726562 -8.003906 -32.816406 -7.734375 -32.890625 C -7.472656 -32.972656 -7.207031 -33.039062 -6.9375 -33.09375 C -5.039062 -33.488281 -3.117188 -33.835938 -1.171875 -34.140625 C 0.773438 -34.453125 2.738281 -34.617188 4.71875 -34.640625 C 5.625 -34.671875 6.519531 -34.765625 7.40625 -34.921875 C 8.289062 -35.078125 9.179688 -35.210938 10.078125 -35.328125 C 11.535156 -35.503906 12.984375 -35.675781 14.421875 -35.84375 C 15.867188 -36.019531 17.304688 -36.203125 18.734375 -36.390625 C 18.992188 -36.421875 19.265625 -36.460938 19.546875 -36.515625 C 19.828125 -36.566406 20.125 -36.617188 20.4375 -36.671875 C 20.59375 -37.015625 20.742188 -37.363281 20.890625 -37.71875 C 21.035156 -38.082031 21.203125 -38.4375 21.390625 -38.78125 C 21.578125 -39.175781 21.773438 -39.398438 21.984375 -39.453125 C 22.191406 -39.503906 22.613281 -39.453125 23.25 -39.296875 C 23.226562 -38.953125 23.203125 -38.597656 23.171875 -38.234375 C 23.148438 -37.878906 23.125 -37.503906 23.09375 -37.109375 C 23.3125 -37.078125 23.523438 -37.046875 23.734375 -37.015625 C 23.941406 -36.992188 24.140625 -37 24.328125 -37.03125 C 25.960938 -37.1875 27.585938 -37.34375 29.203125 -37.5 C 30.816406 -37.664062 32.445312 -37.8125 34.09375 -37.9375 C 37.050781 -38.207031 40.003906 -38.429688 42.953125 -38.609375 C 45.910156 -38.796875 48.867188 -38.769531 51.828125 -38.53125 C 52.328125 -38.507812 52.828125 -38.4375 53.328125 -38.3125 C 53.835938 -38.195312 54.34375 -38.0625 54.84375 -37.90625 C 55.1875 -37.820312 55.5 -37.664062 55.78125 -37.4375 C 56.0625 -37.21875 56.253906 -36.882812 56.359375 -36.4375 C 55.984375 -36.039062 55.570312 -35.832031 55.125 -35.8125 C 54.675781 -35.800781 54.28125 -35.914062 53.9375 -36.15625 C 53.300781 -36.550781 52.644531 -36.796875 51.96875 -36.890625 C 51.289062 -36.984375 50.609375 -37.03125 49.921875 -37.03125 C 48.148438 -37.050781 46.390625 -37 44.640625 -36.875 C 42.898438 -36.757812 41.15625 -36.613281 39.40625 -36.4375 C 37.425781 -36.25 35.441406 -36.046875 33.453125 -35.828125 C 31.472656 -35.617188 29.488281 -35.410156 27.5 -35.203125 C 26.863281 -35.148438 26.226562 -35.082031 25.59375 -35 C 24.957031 -34.925781 24.335938 -34.847656 23.734375 -34.765625 C 23.523438 -34.734375 23.3125 -34.691406 23.09375 -34.640625 C 22.882812 -34.585938 22.675781 -34.535156 22.46875 -34.484375 C 22.414062 -34.296875 22.359375 -34.113281 22.296875 -33.9375 C 22.242188 -33.769531 22.191406 -33.597656 22.140625 -33.421875 C 21.140625 -29.523438 20.128906 -25.632812 19.109375 -21.75 C 18.085938 -17.863281 17.0625 -13.972656 16.03125 -10.078125 C 15.632812 -8.597656 15.3125 -7.097656 15.0625 -5.578125 C 14.8125 -4.054688 14.539062 -2.539062 14.25 -1.03125 C 13.769531 1.425781 13.265625 3.882812 12.734375 6.34375 C 12.210938 8.8125 11.59375 11.25 10.875 13.65625 C 10.664062 14.394531 10.421875 15.132812 10.140625 15.875 C 9.859375 16.613281 9.5625 17.34375 9.25 18.0625 C 8.957031 18.75 8.570312 19.195312 8.09375 19.40625 C 7.613281 19.613281 7.019531 19.664062 6.3125 19.5625 C 5.332031 19.4375 4.878906 18.921875 4.953125 18.015625 C 4.984375 17.597656 5.03125 17.175781 5.09375 16.75 C 5.164062 16.320312 5.253906 15.910156 5.359375 15.515625 C 5.992188 13.109375 6.640625 10.707031 7.296875 8.3125 C 7.960938 5.914062 8.625 3.53125 9.28125 1.15625 C 9.65625 -0.144531 10.046875 -1.441406 10.453125 -2.734375 C 10.867188 -4.035156 11.25 -5.347656 11.59375 -6.671875 C 11.832031 -7.597656 12.019531 -8.539062 12.15625 -9.5 C 12.300781 -10.46875 12.441406 -11.425781 12.578125 -12.375 C 12.785156 -13.882812 12.945312 -15.394531 13.0625 -16.90625 C 13.1875 -18.414062 13.195312 -19.925781 13.09375 -21.4375 C 13.039062 -22.300781 12.953125 -23.164062 12.828125 -24.03125 C 12.710938 -24.894531 12.5625 -25.757812 12.375 -26.625 C 12.269531 -27.15625 12.113281 -27.671875 11.90625 -28.171875 C 11.695312 -28.679688 11.457031 -29.171875 11.1875 -29.640625 C 11.03125 -29.984375 10.816406 -30.304688 10.546875 -30.609375 C 10.285156 -30.921875 10.023438 -31.207031 9.765625 -31.46875 C 9.367188 -31.84375 8.9375 -32.109375 8.46875 -32.265625 C 8.007812 -32.421875 7.5 -32.445312 6.9375 -32.34375 C 5.96875 -32.15625 4.984375 -31.988281 3.984375 -31.84375 C 2.992188 -31.695312 2.007812 -31.5625 1.03125 -31.4375 C -0.0507812 -31.300781 -1.132812 -31.179688 -2.21875 -31.078125 C -3.300781 -30.972656 -4.390625 -30.878906 -5.484375 -30.796875 C -5.847656 -30.742188 -6.226562 -30.738281 -6.625 -30.78125 C -7.019531 -30.820312 -7.414062 -30.851562 -7.8125 -30.875 Z M 12.0625 -32.90625 C 13.625 -31.789062 14.6875 -30.457031 15.25 -28.90625 C 15.820312 -27.363281 16.253906 -25.691406 16.546875 -23.890625 C 16.703125 -24.234375 16.894531 -24.742188 17.125 -25.421875 C 17.351562 -26.097656 17.597656 -26.863281 17.859375 -27.71875 C 18.117188 -28.582031 18.367188 -29.4375 18.609375 -30.28125 C 18.847656 -31.125 19.050781 -31.882812 19.21875 -32.5625 C 19.394531 -33.238281 19.5 -33.734375 19.53125 -34.046875 C 18.894531 -34.179688 18.265625 -34.175781 17.640625 -34.03125 C 17.015625 -33.882812 16.398438 -33.769531 15.796875 -33.6875 C 15.210938 -33.613281 14.601562 -33.550781 13.96875 -33.5 C 13.332031 -33.445312 12.695312 -33.25 12.0625 -32.90625 Z M 12.0625 -32.90625 "/></g></g></g></svg>