<svg xmlns="http://www.w3.org/2000/svg" xmlns:xlink="http://www.w3.org/1999/xlink" width="500" zoomAndPan="magnify" viewBox="0 0 375 374.999991" height="500" preserveAspectRatio="xMidYMid meet" version="1.0"><defs><g/><clipPath id="6053132635"><path d="M 125.15625 86.003906 L 249.65625 86.003906 L 249.65625 236.003906 L 125.15625 236.003906 Z M 125.15625 86.003906 " clip-rule="nonzero"/></clipPath></defs><rect x="-37.5" width="450" fill="#ffffff" y="-37.499999" height="449.999989" fill-opacity="1"/><rect x="-37.5" width="450" fill="#ffffff" y="-37.499999" height="449.999989" fill-opacity="1"/><g clip-path="url(#6053132635)"><path fill="#ff1616" d="M 221.179688 158.480469 C 243.089844 162.925781 249.835938 174.765625 248.960938 195.429688 C 242.800781 181.9375 230.550781 172.929688 216.65625 166.953125 C 218.515625 164.53125 220.269531 161.980469 221.179688 158.480469 M 125.164062 86.003906 L 195.761719 86.003906 C 214.261719 86.003906 227.292969 88.65625 234.789062 93.917969 C 242.320312 99.175781 246.070312 108.152344 246.070312 120.839844 L 246.070312 130.503906 C 246.070312 138.960938 244.011719 145.492188 239.878906 150.066406 C 235.804688 154.554688 229.578125 157.328125 221.207031 158.382812 C 221.742188 156.292969 221.972656 153.859375 221.757812 150.921875 C 216.097656 151.140625 211.480469 152.6875 207.953125 155.625 C 217.515625 133.453125 206.171875 129.84375 187.109375 129.558594 C 177.863281 129.417969 170.820312 126.136719 166.25 119.304688 C 167.28125 126.085938 170.105469 130.539062 174.542969 132.855469 C 178.855469 135.277344 183.089844 136.042969 187.753906 137.015625 C 198.351562 139.234375 199.445312 148.585938 193.558594 156.316406 C 195.25 150.550781 194.105469 145.601562 190.0625 141.492188 C 190.824219 144.867188 190.582031 147.511719 189.152344 149.285156 C 182.855469 146.996094 176.738281 147.339844 170.828125 150.78125 C 164.511719 136.457031 148.359375 147.480469 135.96875 138.5 C 142.652344 154.597656 159.667969 142.640625 162.015625 154.492188 C 159.699219 152.199219 156.214844 151.480469 153.132812 151.578125 C 156.09375 152.472656 159.46875 154.582031 160.613281 157.558594 C 161.675781 160.324219 160.253906 168.855469 158.945312 171.277344 L 152.589844 183.039062 C 148.867188 189.914062 145.917969 203.648438 159.960938 204.425781 C 165.75 204.75 169.695312 202.199219 175.078125 201.152344 C 188.441406 198.550781 200.785156 209.535156 205.949219 221.050781 C 201.34375 214.984375 195.785156 211.511719 189.917969 208.992188 C 192.953125 220.164062 192.609375 229.097656 189.210938 236.003906 L 125.164062 236.003906 Z M 125.164062 86.003906 " fill-opacity="1" fill-rule="nonzero"/></g><g fill="#000000" fill-opacity="1"><g transform="translate(71.367425, 280.04588)"><g><path d="M 15.15625 -14.65625 C 16.957031 -14.019531 17.859375 -12.554688 17.859375 -10.265625 L 17.859375 -5.46875 C 17.859375 -1.820312 16.144531 0 12.71875 0 L 2.078125 0 L 2.078125 -26.796875 L 12.390625 -26.796875 C 15.804688 -26.796875 17.515625 -24.972656 17.515625 -21.328125 L 17.515625 -18.890625 C 17.515625 -16.679688 16.726562 -15.269531 15.15625 -14.65625 Z M 10.9375 -22.859375 L 7.875 -22.859375 L 7.875 -15.703125 L 10.9375 -15.703125 C 11.15625 -15.703125 11.335938 -15.785156 11.484375 -15.953125 C 11.640625 -16.117188 11.71875 -16.3125 11.71875 -16.53125 L 11.71875 -22.03125 C 11.71875 -22.257812 11.640625 -22.453125 11.484375 -22.609375 C 11.335938 -22.773438 11.15625 -22.859375 10.9375 -22.859375 Z M 12.046875 -4.8125 L 12.046875 -10.8125 C 12.046875 -11.03125 11.96875 -11.222656 11.8125 -11.390625 C 11.664062 -11.554688 11.484375 -11.640625 11.265625 -11.640625 L 7.875 -11.640625 L 7.875 -3.96875 L 11.265625 -3.96875 C 11.484375 -3.96875 11.664062 -4.050781 11.8125 -4.21875 C 11.96875 -4.382812 12.046875 -4.582031 12.046875 -4.8125 Z M 12.046875 -4.8125 "/></g></g></g><g fill="#000000" fill-opacity="1"><g transform="translate(99.489579, 280.04588)"><g><path d="M 17.609375 -26.796875 L 11.84375 -9.78125 L 11.84375 0 L 6.046875 0 L 6.046875 -9.78125 L 0.296875 -26.796875 L 5.75 -26.796875 L 8.953125 -15.609375 L 12.140625 -26.796875 Z M 17.609375 -26.796875 "/></g></g></g><g fill="#000000" fill-opacity="1"><g transform="translate(125.872335, 280.04588)"><g><path d="M 0.53125 -21.875 L 0.53125 -26.796875 L 15.03125 -26.796875 L 15.03125 -21.875 L 10.6875 -21.875 L 10.6875 0 L 4.890625 0 L 4.890625 -21.875 Z M 0.53125 -21.875 "/></g></g></g><g fill="#000000" fill-opacity="1"><g transform="translate(149.77681, 277.421115)"><g><path d="M 16.46875 0 L 2.78125 0 L 2.78125 -21.40625 C 2.78125 -21.425781 2.742188 -21.597656 2.671875 -21.921875 C 2.597656 -22.253906 2.519531 -22.597656 2.4375 -22.953125 C 2.363281 -23.304688 2.328125 -23.503906 2.328125 -23.546875 L 16.46875 -23.546875 L 16.46875 -21.3125 L 5.796875 -21.3125 L 5.796875 -13.203125 L 14.0625 -13.203125 L 14.0625 -11 L 5.796875 -11 L 5.796875 -2.234375 L 16.46875 -2.234375 Z M 16.46875 0 "/></g></g></g><g fill="#000000" fill-opacity="1"><g transform="translate(177.779746, 277.421115)"><g><path d="M 36.84375 4.109375 L 37.359375 5.65625 C 36.367188 6.019531 35.617188 6.28125 35.109375 6.4375 C 34.597656 6.601562 33.894531 6.769531 33 6.9375 C 32.113281 7.101562 31.191406 7.1875 30.234375 7.1875 C 29.097656 7.1875 27.695312 6.9375 26.03125 6.4375 C 24.375 5.9375 22.957031 5.425781 21.78125 4.90625 C 20.601562 4.394531 19.125 3.710938 17.34375 2.859375 C 15.570312 2.003906 14.515625 1.503906 14.171875 1.359375 C 13.472656 1.035156 12.054688 0.632812 9.921875 0.15625 C 7.054688 -0.488281 4.929688 -1.875 3.546875 -4 C 2.171875 -6.125 1.484375 -8.703125 1.484375 -11.734375 C 1.484375 -13.960938 1.847656 -15.96875 2.578125 -17.75 C 3.316406 -19.539062 4.488281 -21.007812 6.09375 -22.15625 C 7.695312 -23.300781 9.644531 -23.875 11.9375 -23.875 C 13.65625 -23.875 15.1875 -23.539062 16.53125 -22.875 C 17.882812 -22.21875 18.976562 -21.320312 19.8125 -20.1875 C 20.644531 -19.0625 21.273438 -17.78125 21.703125 -16.34375 C 22.128906 -14.914062 22.34375 -13.378906 22.34375 -11.734375 C 22.34375 -9.210938 21.816406 -6.929688 20.765625 -4.890625 C 19.710938 -2.859375 18.109375 -1.378906 15.953125 -0.453125 C 15.992188 -0.429688 16.070312 -0.394531 16.1875 -0.34375 C 16.300781 -0.289062 16.382812 -0.25 16.4375 -0.21875 C 23.351562 3.332031 28.320312 5.109375 31.34375 5.109375 C 32.8125 5.109375 34.644531 4.773438 36.84375 4.109375 Z M 11.9375 -21.609375 C 10.875 -21.609375 9.921875 -21.410156 9.078125 -21.015625 C 8.242188 -20.628906 7.554688 -20.117188 7.015625 -19.484375 C 6.472656 -18.847656 6.023438 -18.09375 5.671875 -17.21875 C 5.316406 -16.34375 5.0625 -15.453125 4.90625 -14.546875 C 4.757812 -13.648438 4.6875 -12.703125 4.6875 -11.703125 C 4.6875 -10.453125 4.816406 -9.269531 5.078125 -8.15625 C 5.335938 -7.050781 5.734375 -6.007812 6.265625 -5.03125 C 6.804688 -4.050781 7.5625 -3.273438 8.53125 -2.703125 C 9.507812 -2.128906 10.644531 -1.84375 11.9375 -1.84375 C 13.226562 -1.84375 14.363281 -2.128906 15.34375 -2.703125 C 16.320312 -3.273438 17.082031 -4.050781 17.625 -5.03125 C 18.164062 -6.007812 18.566406 -7.054688 18.828125 -8.171875 C 19.085938 -9.296875 19.21875 -10.484375 19.21875 -11.734375 C 19.21875 -12.984375 19.085938 -14.171875 18.828125 -15.296875 C 18.566406 -16.421875 18.164062 -17.46875 17.625 -18.4375 C 17.082031 -19.40625 16.320312 -20.175781 15.34375 -20.75 C 14.363281 -21.320312 13.226562 -21.609375 11.9375 -21.609375 Z M 11.9375 -21.609375 "/></g></g></g><g fill="#000000" fill-opacity="1"><g transform="translate(211.861107, 277.421115)"><g><path d="M 17.5625 -8.34375 L 17.5625 -23.546875 L 20.046875 -23.546875 L 20.046875 -8.34375 C 20.046875 -5.601562 19.285156 -3.460938 17.765625 -1.921875 C 16.253906 -0.378906 14.117188 0.390625 11.359375 0.390625 C 8.617188 0.390625 6.503906 -0.3125 5.015625 -1.71875 C 3.523438 -3.132812 2.78125 -5.191406 2.78125 -7.890625 L 2.78125 -21.40625 L 2.296875 -23.546875 L 5.859375 -23.546875 L 5.859375 -7.890625 C 5.859375 -5.992188 6.328125 -4.507812 7.265625 -3.4375 C 8.203125 -2.375 9.609375 -1.84375 11.484375 -1.84375 C 13.441406 -1.84375 14.941406 -2.429688 15.984375 -3.609375 C 17.035156 -4.785156 17.5625 -6.363281 17.5625 -8.34375 Z M 17.5625 -8.34375 "/></g></g></g><g fill="#000000" fill-opacity="1"><g transform="translate(244.972513, 277.421115)"><g><path d="M 5.828125 0 L 2.8125 0 L 2.8125 -21.40625 C 2.8125 -21.425781 2.773438 -21.597656 2.703125 -21.921875 C 2.628906 -22.253906 2.550781 -22.597656 2.46875 -22.953125 C 2.394531 -23.304688 2.359375 -23.503906 2.359375 -23.546875 L 5.828125 -23.546875 Z M 5.828125 0 "/></g></g></g><g fill="#000000" fill-opacity="1"><g transform="translate(263.890145, 277.421115)"><g><path d="M 10.828125 0 L 7.765625 0 L 7.765625 -21.3125 L 0.78125 -21.3125 L 0.78125 -23.546875 L 17.921875 -23.546875 L 17.921875 -21.3125 L 10.828125 -21.3125 Z M 10.828125 0 "/></g></g></g><g fill="#000000" fill-opacity="1"><g transform="translate(292.830707, 277.421115)"><g><path d="M 11.125 0 L 8.046875 0 L 8.046875 -11.640625 L 1.03125 -23.546875 L 4.53125 -23.546875 L 10 -14.390625 L 15.078125 -23.546875 L 17.890625 -23.546875 L 11.125 -11.640625 Z M 11.125 0 "/></g></g></g></svg>