<svg xmlns="http://www.w3.org/2000/svg" xmlns:xlink="http://www.w3.org/1999/xlink" width="676" zoomAndPan="magnify" viewBox="0 0 507 220.499993" height="294" preserveAspectRatio="xMidYMid meet" version="1.0"><defs><g/><clipPath id="07d8a167a7"><path d="M 0.574219 0 L 506.425781 0 L 506.425781 220 L 0.574219 220 Z M 0.574219 0 " clip-rule="nonzero"/></clipPath><clipPath id="b41e7b3c74"><path d="M 43.265625 56.699219 L 131.566406 56.699219 L 131.566406 162.957031 L 43.265625 162.957031 Z M 43.265625 56.699219 " clip-rule="nonzero"/></clipPath><clipPath id="44a187e672"><path d="M 229.074219 117.476562 L 270 117.476562 L 270 124.957031 L 229.074219 124.957031 Z M 229.074219 117.476562 " clip-rule="nonzero"/></clipPath><clipPath id="7c6e417055"><path d="M 229.015625 152.03125 L 268 152.03125 L 268 160 L 229.015625 160 Z M 229.015625 152.03125 " clip-rule="nonzero"/></clipPath><clipPath id="b3cfe41e34"><path d="M 229.015625 161 L 241 161 L 241 161.011719 L 229.015625 161.011719 Z M 229.015625 161 " clip-rule="nonzero"/></clipPath><clipPath id="e8b298a57b"><path d="M 243 161 L 252 161 L 252 161.011719 L 243 161.011719 Z M 243 161 " clip-rule="nonzero"/></clipPath><clipPath id="ff8edac4a3"><path d="M 229.648438 134 L 263 134 L 263 142 L 229.648438 142 Z M 229.648438 134 " clip-rule="nonzero"/></clipPath><clipPath id="1bdc2966bf"><path d="M 230.148438 125 L 252 125 L 252 133 L 230.148438 133 Z M 230.148438 125 " clip-rule="nonzero"/></clipPath><clipPath id="b8375a4e79"><path d="M 230.148438 143 L 252 143 L 252 151 L 230.148438 151 Z M 230.148438 143 " clip-rule="nonzero"/></clipPath></defs><g clip-path="url(#07d8a167a7)"><path fill="#ffffff" d="M 0.574219 0 L 506.425781 0 L 506.425781 220 L 0.574219 220 Z M 0.574219 0 " fill-opacity="1" fill-rule="nonzero"/><path fill="#ffffff" d="M 0.574219 0 L 506.425781 0 L 506.425781 220 L 0.574219 220 Z M 0.574219 0 " fill-opacity="1" fill-rule="nonzero"/></g><g fill="#000000" fill-opacity="1"><g transform="translate(103.912127, 158.431388)"><g/></g></g><g fill="#000000" fill-opacity="1"><g transform="translate(121.421914, 158.431388)"><g/></g></g><g fill="#000000" fill-opacity="1"><g transform="translate(138.939803, 158.431388)"><g><path d="M 34.421875 -43.890625 L 21.40625 -19.96875 L 21.40625 0 L 13.4375 0 L 13.4375 -19.96875 L 0.59375 -43.890625 L 9.46875 -43.890625 L 18.234375 -27.578125 L 27.21875 -43.890625 Z M 34.421875 -43.890625 "/></g></g></g><g fill="#000000" fill-opacity="1"><g transform="translate(177.67696, 158.431388)"><g><path d="M 33.875 -37.953125 L 21.53125 -37.953125 L 21.53125 0 L 12.953125 0 L 12.953125 -37.953125 L 0.78125 -37.953125 L 0.78125 -43.890625 L 33.875 -43.890625 Z M 33.875 -37.953125 "/></g></g></g><g clip-path="url(#b41e7b3c74)"><path fill="#000000" d="M 111.511719 108.203125 C 127.082031 111.363281 131.875 119.777344 131.25 134.460938 C 126.875 124.871094 118.167969 118.472656 108.292969 114.222656 C 109.617188 112.503906 110.863281 110.6875 111.511719 108.203125 M 43.273438 56.699219 L 93.445312 56.699219 C 106.59375 56.699219 115.851562 58.582031 121.183594 62.320312 C 126.53125 66.058594 129.199219 72.4375 129.199219 81.453125 L 129.199219 88.320312 C 129.199219 94.332031 127.734375 98.972656 124.800781 102.222656 C 121.902344 105.410156 117.476562 107.382812 111.527344 108.132812 C 111.90625 106.648438 112.070312 104.917969 111.921875 102.832031 C 107.898438 102.988281 104.617188 104.085938 102.109375 106.171875 C 108.902344 90.414062 100.84375 87.851562 87.296875 87.648438 C 80.726562 87.550781 75.722656 85.214844 72.472656 80.363281 C 73.207031 85.183594 75.210938 88.34375 78.367188 89.992188 C 81.429688 91.710938 84.4375 92.257812 87.753906 92.949219 C 95.285156 94.523438 96.0625 101.171875 91.882812 106.664062 C 93.082031 102.566406 92.269531 99.050781 89.394531 96.128906 C 89.9375 98.527344 89.761719 100.40625 88.746094 101.667969 C 84.273438 100.039062 79.925781 100.285156 75.726562 102.730469 C 71.238281 92.550781 59.757812 100.386719 50.953125 94.003906 C 55.703125 105.441406 67.796875 96.945312 69.464844 105.367188 C 67.816406 103.738281 65.339844 103.230469 63.152344 103.296875 C 65.253906 103.933594 67.652344 105.433594 68.464844 107.546875 C 69.222656 109.511719 68.210938 115.574219 67.28125 117.296875 L 62.765625 125.652344 C 60.121094 130.542969 58.023438 140.300781 68.003906 140.851562 C 72.117188 141.082031 74.921875 139.273438 78.746094 138.527344 C 88.242188 136.679688 97.015625 144.484375 100.683594 152.667969 C 97.414062 148.355469 93.460938 145.886719 89.292969 144.097656 C 91.449219 152.039062 91.207031 158.386719 88.789062 163.296875 L 43.273438 163.296875 Z M 43.273438 56.699219 " fill-opacity="1" fill-rule="nonzero"/></g><g fill="#000000" fill-opacity="1"><g transform="translate(215.774713, 159.424839)"><g/></g></g><g fill="#000000" fill-opacity="1"><g transform="translate(234.601917, 159.424839)"><g/></g></g><g fill="#000000" fill-opacity="1"><g transform="translate(253.42912, 159.424839)"><g/></g></g><g fill="#000000" fill-opacity="1"><g transform="translate(272.259906, 159.424839)"><g><path d="M 44.203125 4.984375 C 42.398438 5.296875 40.664062 5.300781 39 5 C 37.34375 4.707031 35.6875 4.328125 34.03125 3.859375 C 32.375 3.398438 30.6875 3.019531 28.96875 2.71875 C 27.25 2.425781 25.445312 2.441406 23.5625 2.765625 L 23.5625 0.65625 C 19.644531 0.539062 16.15625 -0.453125 13.09375 -2.328125 C 10.039062 -4.210938 7.644531 -6.765625 5.90625 -9.984375 C 4.164062 -13.203125 3.296875 -16.867188 3.296875 -20.984375 C 3.296875 -24.148438 3.816406 -27.0625 4.859375 -29.71875 C 5.898438 -32.375 7.359375 -34.671875 9.234375 -36.609375 C 11.109375 -38.546875 13.328125 -40.046875 15.890625 -41.109375 C 18.453125 -42.171875 21.234375 -42.703125 24.234375 -42.703125 C 27.265625 -42.703125 30.0625 -42.171875 32.625 -41.109375 C 35.1875 -40.046875 37.40625 -38.546875 39.28125 -36.609375 C 41.15625 -34.671875 42.613281 -32.375 43.65625 -29.71875 C 44.695312 -27.0625 45.21875 -24.148438 45.21875 -20.984375 C 45.21875 -17.390625 44.546875 -14.132812 43.203125 -11.21875 C 41.867188 -8.300781 40 -5.859375 37.59375 -3.890625 C 35.195312 -1.929688 32.421875 -0.59375 29.265625 0.125 L 29.265625 0.421875 C 31.097656 0.816406 32.820312 1.222656 34.4375 1.640625 C 36.0625 2.066406 37.664062 2.367188 39.25 2.546875 C 40.832031 2.722656 42.484375 2.675781 44.203125 2.40625 Z M 24.234375 -1.984375 C 27.742188 -1.984375 30.867188 -2.789062 33.609375 -4.40625 C 36.347656 -6.03125 38.503906 -8.28125 40.078125 -11.15625 C 41.660156 -14.03125 42.453125 -17.304688 42.453125 -20.984375 C 42.453125 -24.703125 41.660156 -27.988281 40.078125 -30.84375 C 38.503906 -33.707031 36.347656 -35.957031 33.609375 -37.59375 C 30.867188 -39.238281 27.742188 -40.0625 24.234375 -40.0625 C 20.753906 -40.0625 17.644531 -39.238281 14.90625 -37.59375 C 12.164062 -35.957031 10.003906 -33.707031 8.421875 -30.84375 C 6.847656 -27.988281 6.0625 -24.703125 6.0625 -20.984375 C 6.0625 -17.304688 6.847656 -14.03125 8.421875 -11.15625 C 10.003906 -8.28125 12.164062 -6.03125 14.90625 -4.40625 C 17.644531 -2.789062 20.753906 -1.984375 24.234375 -1.984375 Z M 24.234375 -1.984375 "/></g></g></g><g fill="#000000" fill-opacity="1"><g transform="translate(323.404395, 159.424839)"><g><path d="M 22.3125 0.71875 C 18.945312 0.71875 15.945312 0.0507812 13.3125 -1.28125 C 10.675781 -2.625 8.597656 -4.535156 7.078125 -7.015625 C 5.554688 -9.492188 4.796875 -12.429688 4.796875 -15.828125 L 4.796875 -41.984375 L 7.609375 -41.984375 L 7.609375 -15.828125 C 7.609375 -12.910156 8.238281 -10.410156 9.5 -8.328125 C 10.757812 -6.253906 12.5 -4.664062 14.71875 -3.5625 C 16.9375 -2.46875 19.46875 -1.921875 22.3125 -1.921875 C 25.144531 -1.921875 27.671875 -2.46875 29.890625 -3.5625 C 32.109375 -4.664062 33.859375 -6.253906 35.140625 -8.328125 C 36.421875 -10.410156 37.0625 -12.910156 37.0625 -15.828125 L 37.0625 -41.984375 L 39.875 -41.984375 L 39.875 -15.828125 C 39.875 -12.429688 39.113281 -9.492188 37.59375 -7.015625 C 36.082031 -4.535156 34.003906 -2.625 31.359375 -1.28125 C 28.722656 0.0507812 25.707031 0.71875 22.3125 0.71875 Z M 22.3125 0.71875 "/></g></g></g><g fill="#000000" fill-opacity="1"><g transform="translate(370.711583, 159.424839)"><g><path d="M 4.796875 0 L 4.796875 -41.984375 L 7.609375 -41.984375 L 7.609375 0 Z M 4.796875 0 "/></g></g></g><g fill="#000000" fill-opacity="1"><g transform="translate(385.761443, 159.424839)"><g><path d="M 17.265625 0 L 17.265625 -39.34375 L 1.921875 -39.34375 L 1.921875 -41.984375 L 35.4375 -41.984375 L 35.4375 -39.34375 L 20.09375 -39.34375 L 20.09375 0 Z M 17.265625 0 "/></g></g></g><g fill="#000000" fill-opacity="1"><g transform="translate(425.753778, 159.424839)"><g><path d="M 18.53125 0 L 18.53125 -17.15625 L 0.71875 -41.984375 L 4.078125 -41.984375 L 19.734375 -20.265625 L 20.09375 -20.265625 L 35.859375 -41.984375 L 39.15625 -41.984375 L 21.28125 -17.09375 L 21.28125 0 Z M 18.53125 0 "/></g></g></g><g clip-path="url(#44a187e672)"><path fill="#000000" d="M 204.929688 124.335938 L 241.136719 124.335938 L 242.683594 121.664062 L 246.261719 121.664062 L 247.808594 124.335938 C 249.144531 124.335938 265.847656 124.335938 267.179688 124.335938 L 269.179688 120.871094 L 267.179688 117.410156 C 265.847656 117.410156 249.144531 117.410156 247.808594 117.410156 L 246.261719 120.082031 L 242.683594 120.082031 L 241.136719 117.410156 L 204.929688 117.410156 C 204.53125 119.695312 204.53125 122.039062 204.929688 124.335938 Z M 204.929688 124.335938 " fill-opacity="1" fill-rule="nonzero"/></g><g clip-path="url(#7c6e417055)"><path fill="#000000" d="M 203.601562 159.632812 L 239.808594 159.632812 L 241.355469 156.960938 L 244.933594 156.960938 L 246.480469 159.632812 C 247.816406 159.632812 264.519531 159.632812 265.851562 159.632812 L 267.851562 156.171875 L 265.851562 152.707031 C 264.519531 152.707031 247.816406 152.707031 246.480469 152.707031 L 244.933594 155.378906 L 241.355469 155.378906 L 239.808594 152.707031 L 203.601562 152.707031 C 203.203125 154.996094 203.203125 157.339844 203.601562 159.632812 Z M 203.601562 159.632812 " fill-opacity="1" fill-rule="nonzero"/></g><g clip-path="url(#b3cfe41e34)"><path fill="#000000" d="M 229.398438 165.472656 L 232.976562 165.472656 L 234.523438 168.148438 L 238.523438 168.148438 L 240.523438 164.683594 L 238.523438 161.222656 L 234.523438 161.222656 L 232.976562 163.894531 L 229.398438 163.894531 L 227.851562 161.222656 L 203.9375 161.222656 C 204.585938 163.75 205.703125 166.09375 207.195312 168.15625 L 227.851562 168.15625 Z M 229.398438 165.472656 " fill-opacity="1" fill-rule="nonzero"/></g><g clip-path="url(#e8b298a57b)"><path fill="#000000" d="M 251.945312 164.683594 L 249.945312 161.222656 L 245.9375 161.222656 L 243.9375 164.683594 L 245.9375 168.148438 L 249.945312 168.148438 Z M 251.945312 164.683594 " fill-opacity="1" fill-rule="nonzero"/></g><g clip-path="url(#ff8edac4a3)"><path fill="#000000" d="M 256.816406 134.402344 L 255.269531 137.078125 L 251.6875 137.078125 L 250.144531 134.402344 L 211.96875 134.402344 C 219.144531 142.492188 227.191406 141.335938 236.894531 141.335938 L 250.144531 141.335938 L 251.6875 138.664062 L 255.269531 138.664062 L 256.816406 141.335938 L 260.8125 141.335938 L 262.8125 137.875 L 260.8125 134.410156 L 256.816406 134.410156 Z M 256.816406 134.402344 " fill-opacity="1" fill-rule="nonzero"/></g><path stroke-linecap="butt" transform="matrix(0, 0.748303, -0.748303, 0, 228.160224, 117.24422)" fill="none" stroke-linejoin="miter" d="M 0.00250343 1.999406 L 56.4166 1.999406 " stroke="#000000" stroke-width="4" stroke-opacity="1" stroke-miterlimit="4"/><g clip-path="url(#1bdc2966bf)"><path fill="#000000" d="M 240.695312 130.082031 L 244.296875 130.082031 L 245.851562 132.769531 L 249.871094 132.769531 L 251.882812 129.289062 L 249.871094 125.804688 L 245.851562 125.804688 L 244.296875 128.492188 L 240.695312 128.492188 L 239.144531 125.804688 L 215.101562 125.804688 C 215.75 128.347656 216.875 130.703125 218.375 132.777344 L 239.144531 132.777344 Z M 240.695312 130.082031 " fill-opacity="1" fill-rule="nonzero"/></g><g clip-path="url(#b8375a4e79)"><path fill="#000000" d="M 240.695312 147.621094 L 244.296875 147.621094 L 245.851562 150.308594 L 249.871094 150.308594 L 251.882812 146.824219 L 249.871094 143.34375 L 245.851562 143.34375 L 244.296875 146.03125 L 240.695312 146.03125 L 239.144531 143.34375 L 215.101562 143.34375 C 215.75 145.886719 216.875 148.242188 218.375 150.316406 L 239.144531 150.316406 Z M 240.695312 147.621094 " fill-opacity="1" fill-rule="nonzero"/></g></svg>