<svg xmlns="http://www.w3.org/2000/svg" xmlns:xlink="http://www.w3.org/1999/xlink" width="2592" zoomAndPan="magnify" viewBox="0 0 1944 1457.999935" height="1944" preserveAspectRatio="xMidYMid meet" version="1.0"><defs><g/><clipPath id="16da5a09fa"><path d="M 192 346.664062 L 927 346.664062 L 927 934 L 192 934 Z M 192 346.664062 " clip-rule="nonzero"/></clipPath></defs><rect x="-194.4" width="2332.8" fill="#ffffff" y="-145.799993" height="1749.599922" fill-opacity="1"/><rect x="-194.4" width="2332.8" fill="#000000" y="-145.799993" height="1749.599922" fill-opacity="1"/><g clip-path="url(#16da5a09fa)"><path fill="#ffa100" d="M 880.074219 553.273438 L 770.511719 553.273438 L 570.703125 350.0625 C 567.882812 347.078125 563.90625 345.421875 559.679688 345.421875 C 555.535156 345.421875 551.558594 347.078125 548.65625 350.0625 L 348.929688 553.273438 L 239.203125 553.273438 C 213.675781 553.273438 192.710938 574.15625 192.710938 599.847656 L 192.710938 886.429688 C 192.710938 912.035156 213.675781 933.003906 239.203125 933.003906 L 880.074219 933.003906 C 905.761719 933.003906 926.730469 912.035156 926.730469 886.429688 L 926.730469 599.765625 C 926.730469 574.15625 905.761719 553.273438 880.074219 553.273438 Z M 330.03125 784.90625 C 330.03125 789.796875 328.871094 793.441406 326.636719 795.761719 C 324.398438 798.167969 321.578125 799.410156 318.097656 799.410156 C 314.535156 799.410156 311.636719 798.167969 309.480469 795.761719 C 307.410156 793.359375 306.332031 789.714844 306.332031 784.90625 L 306.332031 745.625 L 255.199219 745.625 L 255.199219 784.90625 C 255.199219 789.796875 254.121094 793.441406 251.800781 795.761719 C 249.644531 798.167969 246.746094 799.410156 243.261719 799.410156 C 239.699219 799.410156 236.882812 798.167969 234.726562 795.761719 C 232.65625 793.359375 231.578125 789.714844 231.578125 784.90625 L 231.578125 692.832031 C 231.578125 688.027344 232.65625 684.460938 234.726562 682.058594 C 236.800781 679.65625 239.699219 678.496094 243.347656 678.496094 C 246.910156 678.496094 249.808594 679.738281 251.964844 682.058594 C 254.121094 684.460938 255.28125 688.027344 255.28125 692.832031 L 255.28125 726.3125 L 306.414062 726.3125 L 306.414062 692.832031 C 306.414062 688.027344 307.492188 684.460938 309.644531 682.058594 C 311.800781 679.65625 314.617188 678.496094 318.183594 678.496094 C 321.664062 678.496094 324.5625 679.738281 326.800781 682.058594 C 329.039062 684.460938 330.117188 688.027344 330.117188 692.832031 L 330.117188 784.90625 Z M 532.660156 410.5625 C 536.226562 422 547 430.367188 559.679688 430.367188 C 572.359375 430.367188 583.132812 422 586.695312 410.480469 L 726.921875 553.273438 L 392.355469 553.273438 Z M 460.890625 763.359375 C 458.40625 770.816406 454.757812 777.199219 449.871094 782.585938 C 444.980469 788.054688 439.011719 792.199219 431.886719 795.015625 C 424.757812 797.917969 416.554688 799.410156 407.355469 799.410156 C 398.238281 799.410156 390.035156 797.917969 382.824219 794.933594 C 375.613281 791.949219 369.5625 787.808594 364.757812 782.421875 C 359.867188 777.035156 356.222656 770.570312 353.734375 763.027344 C 351.25 755.484375 350.007812 747.363281 350.007812 738.664062 C 350.007812 729.710938 351.332031 721.34375 353.902344 713.882812 C 356.46875 706.425781 360.199219 700.042969 365.089844 694.738281 C 369.980469 689.519531 375.945312 685.457031 382.988281 682.640625 C 389.953125 679.90625 397.992188 678.496094 406.859375 678.496094 C 418.957031 678.496094 429.398438 680.980469 438.101562 685.871094 C 446.722656 690.761719 453.351562 697.804688 457.824219 706.839844 C 462.300781 715.871094 464.539062 726.5625 464.539062 738.746094 C 464.539062 747.777344 463.296875 756.066406 460.890625 763.359375 Z M 568.214844 781.34375 C 564.570312 786.980469 559.179688 791.371094 552.21875 794.519531 C 545.175781 797.835938 536.886719 799.410156 527.273438 799.410156 C 515.753906 799.410156 506.226562 797.253906 498.683594 792.863281 C 493.378906 789.714844 488.988281 785.488281 485.671875 780.265625 C 482.355469 775.042969 480.699219 769.90625 480.699219 765.015625 C 480.699219 762.117188 481.695312 759.628906 483.683594 757.558594 C 485.671875 755.484375 488.242188 754.492188 491.308594 754.492188 C 493.792969 754.492188 495.949219 755.320312 497.605469 756.8125 C 499.347656 758.46875 500.835938 760.789062 502.082031 763.9375 C 503.574219 767.667969 505.148438 770.816406 506.886719 773.304688 C 508.628906 775.707031 511.03125 777.863281 514.179688 779.4375 C 517.414062 781.09375 521.472656 781.839844 526.613281 781.839844 C 533.574219 781.839844 539.292969 780.183594 543.683594 776.867188 C 548.078125 773.800781 550.230469 769.742188 550.230469 764.851562 C 550.230469 760.957031 549.070312 757.808594 546.667969 755.484375 C 544.347656 753 541.28125 751.175781 537.46875 749.851562 C 533.820312 748.609375 528.765625 747.199219 522.550781 745.789062 C 514.097656 743.800781 507.054688 741.5625 501.417969 738.910156 C 495.78125 736.257812 491.222656 732.695312 487.992188 728.136719 C 484.675781 723.578125 482.9375 717.945312 482.9375 711.230469 C 482.9375 704.765625 484.675781 699.046875 488.15625 693.992188 C 491.640625 689.019531 496.777344 685.207031 503.40625 682.472656 C 510.035156 679.738281 517.910156 678.414062 526.945312 678.414062 C 534.070312 678.414062 540.285156 679.324219 545.507812 681.066406 C 550.8125 682.804688 555.121094 685.292969 558.601562 688.191406 C 562.082031 691.175781 564.570312 694.242188 566.226562 697.472656 C 567.800781 700.789062 568.546875 703.9375 568.546875 707.003906 C 568.546875 709.824219 567.550781 712.390625 565.5625 714.628906 C 563.492188 716.949219 561.085938 718.027344 558.019531 718.027344 C 555.285156 718.027344 553.296875 717.363281 551.886719 715.953125 C 550.480469 714.628906 548.90625 712.472656 547.332031 709.324219 C 545.175781 704.933594 542.605469 701.453125 539.625 699.046875 C 536.640625 696.5625 531.832031 695.320312 525.285156 695.320312 C 519.152344 695.320312 514.261719 696.726562 510.535156 699.378906 C 506.804688 702.03125 504.816406 705.265625 504.816406 709.078125 C 504.816406 711.398438 505.5625 713.46875 506.722656 715.210938 C 508.046875 716.949219 509.789062 718.359375 511.941406 719.519531 C 514.179688 720.761719 516.417969 721.757812 518.738281 722.417969 C 521.140625 723.082031 524.871094 724.078125 530.175781 725.402344 C 536.804688 726.976562 542.691406 728.550781 548.078125 730.457031 C 553.464844 732.363281 558.019531 734.601562 561.75 737.253906 C 565.480469 739.90625 568.378906 743.222656 570.453125 747.363281 C 572.605469 751.425781 573.683594 756.398438 573.683594 762.363281 C 573.601562 769.410156 571.777344 775.789062 568.214844 781.34375 Z M 678.769531 697.308594 C 676.613281 699.132812 673.632812 700.042969 669.652344 700.042969 L 643.796875 700.042969 L 643.796875 784.90625 C 643.796875 789.878906 642.71875 793.527344 640.566406 795.847656 C 638.410156 798.167969 635.507812 799.410156 632.027344 799.410156 C 628.628906 799.410156 625.730469 798.167969 623.410156 795.761719 C 621.253906 793.441406 620.175781 789.796875 620.175781 784.90625 L 620.175781 700.042969 L 594.402344 700.042969 C 590.257812 700.042969 587.359375 699.132812 585.371094 697.390625 C 583.464844 695.566406 582.386719 693.246094 582.386719 690.265625 C 582.386719 687.199219 583.382812 684.878906 585.453125 683.136719 C 587.523438 681.394531 590.425781 680.484375 594.320312 680.484375 L 669.570312 680.484375 C 673.546875 680.484375 676.613281 681.394531 678.605469 683.21875 C 680.675781 685.042969 681.585938 687.363281 681.585938 690.265625 C 681.585938 693.164062 680.757812 695.566406 678.769531 697.308594 Z M 783.027344 794.769531 C 781.203125 796.59375 778.386719 797.339844 774.65625 797.339844 L 710.261719 797.339844 C 705.039062 797.339844 701.394531 796.175781 699.15625 793.941406 C 696.917969 791.703125 695.84375 787.972656 695.84375 782.917969 L 695.84375 694.988281 C 695.84375 691.589844 696.339844 688.855469 697.332031 686.617188 C 698.410156 684.460938 699.984375 682.886719 702.140625 681.894531 C 704.296875 680.898438 707.113281 680.402344 710.429688 680.402344 L 773 680.402344 C 776.726562 680.402344 779.546875 681.230469 781.453125 682.886719 C 783.191406 684.628906 784.105469 686.78125 784.105469 689.433594 C 784.105469 692.253906 783.191406 694.492188 781.453125 696.148438 C 779.628906 697.804688 776.726562 698.632812 773 698.632812 L 719.460938 698.632812 L 719.460938 727.308594 L 768.6875 727.308594 C 772.253906 727.308594 774.90625 728.136719 776.726562 729.710938 C 778.46875 731.617188 779.296875 733.691406 779.296875 736.34375 C 779.296875 738.910156 778.386719 741.148438 776.644531 742.804688 C 774.90625 744.546875 772.253906 745.292969 768.605469 745.292969 L 719.460938 745.292969 L 719.460938 778.527344 L 774.65625 778.527344 C 778.386719 778.527344 781.203125 779.355469 783.109375 781.09375 C 784.933594 782.835938 785.925781 785.074219 785.925781 787.972656 C 785.84375 790.789062 784.933594 793.113281 783.027344 794.769531 Z M 884.796875 794.6875 C 882.722656 796.425781 879.824219 797.339844 875.929688 797.339844 L 818.746094 797.339844 C 813.523438 797.339844 809.878906 796.175781 807.640625 793.941406 C 805.320312 791.703125 804.160156 787.972656 804.160156 782.917969 L 804.160156 692.832031 C 804.160156 688.027344 805.238281 684.460938 807.390625 682.058594 C 809.546875 679.738281 812.445312 678.496094 816.011719 678.496094 C 819.574219 678.496094 822.390625 679.738281 824.546875 682.058594 C 826.699219 684.460938 827.945312 688.027344 827.945312 692.832031 L 827.945312 777.945312 L 875.847656 777.945312 C 879.65625 777.945312 882.640625 778.855469 884.628906 780.679688 C 886.621094 782.503906 887.695312 784.90625 887.695312 787.722656 C 887.78125 790.625 886.785156 793.027344 884.796875 794.6875 Z M 884.796875 794.6875 " fill-opacity="1" fill-rule="nonzero"/></g><path fill="#ffa100" d="M 424.511719 702.199219 C 419.371094 698.882812 413.570312 697.308594 406.859375 697.308594 C 402.132812 697.308594 397.742188 698.21875 393.765625 700.042969 C 389.785156 701.867188 386.304688 704.433594 383.40625 707.832031 C 380.503906 711.148438 378.265625 715.539062 376.527344 720.84375 C 374.867188 726.148438 374.039062 731.949219 374.039062 738.664062 C 374.039062 745.210938 374.867188 751.257812 376.527344 756.648438 C 378.265625 762.035156 380.585938 766.425781 383.652344 769.90625 C 386.71875 773.46875 390.199219 776.203125 394.179688 777.945312 C 398.15625 779.6875 402.464844 780.597656 407.191406 780.597656 C 413.238281 780.597656 418.875 778.941406 423.929688 775.957031 C 428.984375 772.972656 432.964844 768.25 436.03125 761.949219 C 439.011719 755.652344 440.589844 747.863281 440.589844 738.664062 C 440.589844 730.042969 439.179688 722.585938 436.445312 716.285156 C 433.625 710.070312 429.648438 705.347656 424.511719 702.199219 Z M 424.511719 702.199219 " fill-opacity="1" fill-rule="nonzero"/><g fill="#ffa100" fill-opacity="1"><g transform="translate(1023.237027, 791.869705)"><g><path d="M 159.375 -111.234375 C 158.75 -109.054688 158.085938 -106.835938 157.390625 -104.578125 C 156.691406 -102.316406 156.421875 -99.785156 156.578125 -96.984375 C 158.441406 -97.140625 160.148438 -97.332031 161.703125 -97.5625 C 163.265625 -97.800781 164.828125 -98 166.390625 -98.15625 C 169.816406 -98.457031 173.203125 -98.765625 176.546875 -99.078125 C 179.898438 -99.390625 183.210938 -99.625 186.484375 -99.78125 C 187.878906 -99.78125 189.28125 -99.582031 190.6875 -99.1875 C 192.09375 -98.800781 193.414062 -98.378906 194.65625 -97.921875 C 195.90625 -97.453125 196.921875 -96.75 197.703125 -95.8125 C 198.484375 -94.875 198.71875 -93.472656 198.40625 -91.609375 C 195.4375 -89.421875 192.160156 -89.03125 188.578125 -90.4375 C 186.242188 -91.375 183.945312 -91.6875 181.6875 -91.375 C 179.425781 -91.0625 177.207031 -90.671875 175.03125 -90.203125 C 171.445312 -89.421875 167.785156 -88.601562 164.046875 -87.75 C 160.304688 -86.894531 156.488281 -86 152.59375 -85.0625 C 148.539062 -72.132812 144.800781 -59.125 141.375 -46.03125 C 137.945312 -32.945312 134.519531 -19.941406 131.09375 -7.015625 C 127.820312 5.921875 124.585938 18.851562 121.390625 31.78125 C 118.203125 44.707031 114.972656 57.640625 111.703125 70.578125 C 109.054688 70.734375 107.300781 70.613281 106.4375 70.21875 C 105.582031 69.832031 105.15625 68.9375 105.15625 67.53125 C 105.3125 64.257812 105.390625 61.023438 105.390625 57.828125 C 105.390625 54.640625 105.703125 51.488281 106.328125 48.375 C 108.972656 35.445312 111.738281 22.554688 114.625 9.703125 C 117.507812 -3.148438 120.351562 -15.96875 123.15625 -28.75 C 124.863281 -36.070312 126.613281 -43.351562 128.40625 -50.59375 C 130.195312 -57.832031 131.953125 -65.113281 133.671875 -72.4375 C 133.984375 -73.375 134.21875 -74.382812 134.375 -75.46875 C 134.53125 -76.5625 134.765625 -77.8125 135.078125 -79.21875 C 134.140625 -79.21875 133.316406 -79.296875 132.609375 -79.453125 C 131.910156 -79.609375 131.328125 -79.609375 130.859375 -79.453125 C 118.710938 -76.023438 106.5625 -72.554688 94.40625 -69.046875 C 82.257812 -65.546875 70.109375 -62.082031 57.953125 -58.65625 C 57.484375 -58.5 57.015625 -58.265625 56.546875 -57.953125 C 56.078125 -57.640625 55.613281 -57.40625 55.15625 -57.25 C 54.0625 -54.445312 52.734375 -50.28125 51.171875 -44.75 C 49.617188 -39.21875 47.945312 -32.945312 46.15625 -25.9375 C 44.363281 -18.925781 42.570312 -11.679688 40.78125 -4.203125 C 38.988281 3.273438 37.351562 10.363281 35.875 17.0625 C 34.394531 23.757812 33.222656 29.519531 32.359375 34.34375 C 31.503906 39.175781 31.078125 42.53125 31.078125 44.40625 C 25.003906 47.050781 21.890625 45.644531 21.734375 40.1875 C 21.734375 37.070312 21.8125 33.992188 21.96875 30.953125 C 22.125 27.921875 22.515625 24.925781 23.140625 21.96875 C 25.160156 11.21875 27.222656 0.429688 29.328125 -10.390625 C 31.429688 -21.222656 33.492188 -32.09375 35.515625 -43 C 35.671875 -44.09375 35.828125 -45.300781 35.984375 -46.625 C 36.140625 -47.945312 36.375 -49.382812 36.6875 -50.9375 C 33.570312 -50.625 30.804688 -49.921875 28.390625 -48.828125 C 25.972656 -47.742188 23.519531 -46.8125 21.03125 -46.03125 C 19.164062 -45.414062 17.296875 -44.910156 15.421875 -44.515625 C 13.554688 -44.128906 11.6875 -43.859375 9.8125 -43.703125 C 8.875 -43.703125 7.9375 -44.007812 7 -44.625 C 6.070312 -45.25 5.0625 -45.796875 3.96875 -46.265625 C 5.84375 -50.160156 8.414062 -52.804688 11.6875 -54.203125 C 14.957031 -55.609375 18.148438 -57.015625 21.265625 -58.421875 C 24.222656 -59.984375 27.296875 -61.347656 30.484375 -62.515625 C 33.679688 -63.679688 36.992188 -64.96875 40.421875 -66.375 C 41.515625 -71.039062 42.644531 -75.671875 43.8125 -80.265625 C 44.976562 -84.867188 46.109375 -89.503906 47.203125 -94.171875 C 49.691406 -103.984375 52.179688 -113.796875 54.671875 -123.609375 C 57.171875 -133.429688 59.664062 -143.25 62.15625 -153.0625 C 62.9375 -155.707031 63.753906 -158.273438 64.609375 -160.765625 C 65.472656 -163.265625 66.367188 -165.757812 67.296875 -168.25 C 67.921875 -169.8125 68.703125 -171.210938 69.640625 -172.453125 C 70.578125 -173.703125 71.898438 -174.640625 73.609375 -175.265625 C 74.703125 -175.578125 75.832031 -175.65625 77 -175.5 C 78.164062 -175.34375 80.226562 -174.640625 83.1875 -173.390625 C 83.03125 -169.191406 82.289062 -165.101562 80.96875 -161.125 C 79.644531 -157.15625 78.515625 -153.066406 77.578125 -148.859375 C 76.648438 -144.648438 75.675781 -140.476562 74.65625 -136.34375 C 73.644531 -132.21875 72.597656 -128.132812 71.515625 -124.09375 C 69.484375 -115.675781 67.457031 -107.335938 65.4375 -99.078125 C 64.34375 -95.023438 63.289062 -90.894531 62.28125 -86.6875 C 61.269531 -82.488281 60.140625 -78.128906 58.890625 -73.609375 C 60.140625 -73.609375 61.226562 -73.566406 62.15625 -73.484375 C 63.09375 -73.410156 63.953125 -73.453125 64.734375 -73.609375 C 76.421875 -76.566406 88.101562 -79.566406 99.78125 -82.609375 C 111.46875 -85.648438 123.234375 -88.648438 135.078125 -91.609375 C 135.535156 -91.765625 136.035156 -92 136.578125 -92.3125 C 137.128906 -92.625 137.796875 -92.929688 138.578125 -93.234375 C 139.046875 -94.640625 139.550781 -96.160156 140.09375 -97.796875 C 140.632812 -99.429688 141.140625 -101.109375 141.609375 -102.828125 C 145.816406 -118.710938 150.0625 -134.519531 154.34375 -150.25 C 158.632812 -165.988281 163.035156 -181.726562 167.546875 -197.46875 C 169.109375 -202.914062 170.941406 -208.328125 173.046875 -213.703125 C 175.148438 -219.078125 177.289062 -224.335938 179.46875 -229.484375 C 180.71875 -232.441406 182.160156 -234.078125 183.796875 -234.390625 C 185.429688 -234.703125 188.117188 -234.078125 191.859375 -232.515625 C 191.703125 -229.867188 191.3125 -227.296875 190.6875 -224.796875 C 190.0625 -222.304688 189.4375 -219.738281 188.8125 -217.09375 C 183.832031 -199.488281 178.890625 -181.84375 173.984375 -164.15625 C 169.078125 -146.476562 164.207031 -128.835938 159.375 -111.234375 Z M 159.375 -111.234375 "/></g></g></g><g fill="#ffa100" fill-opacity="1"><g transform="translate(1206.211498, 791.869705)"><g><path d="M 208.921875 -209.625 C 211.253906 -214.289062 213.628906 -217.050781 216.046875 -217.90625 C 218.460938 -218.769531 222.550781 -218.1875 228.3125 -216.15625 C 228.9375 -213.664062 229.015625 -211.367188 228.546875 -209.265625 C 228.078125 -207.160156 227.53125 -205.097656 226.90625 -203.078125 C 223.632812 -193.410156 220.398438 -183.785156 217.203125 -174.203125 C 214.015625 -164.628906 210.863281 -155.015625 207.75 -145.359375 C 199.644531 -121.046875 191.503906 -96.738281 183.328125 -72.4375 C 175.148438 -48.132812 167.007812 -23.832031 158.90625 0.46875 C 156.414062 8.257812 154.273438 16.125 152.484375 24.0625 C 150.691406 32.007812 149.25 39.957031 148.15625 47.90625 C 145.664062 50.238281 142.785156 50.394531 139.515625 48.375 C 138.890625 45.257812 138.65625 42.023438 138.8125 38.671875 C 138.96875 35.328125 139.28125 32.019531 139.75 28.75 C 140.832031 19.082031 142.539062 9.613281 144.875 0.34375 C 147.21875 -8.914062 149.789062 -18.144531 152.59375 -27.34375 C 156.644531 -40.894531 160.773438 -54.367188 164.984375 -67.765625 C 169.191406 -81.160156 173.398438 -94.5625 177.609375 -107.96875 C 178.222656 -109.832031 178.765625 -111.695312 179.234375 -113.5625 C 179.703125 -115.4375 179.859375 -117.390625 179.703125 -119.421875 C 178.921875 -118.328125 178.0625 -117.15625 177.125 -115.90625 C 176.195312 -114.664062 175.34375 -113.421875 174.5625 -112.171875 C 166.15625 -99.242188 157.316406 -86.703125 148.046875 -74.546875 C 138.773438 -62.390625 129 -50.628906 118.71875 -39.265625 C 112.320312 -31.941406 105.539062 -24.925781 98.375 -18.21875 C 91.207031 -11.519531 83.734375 -5.132812 75.953125 0.9375 C 70.960938 4.675781 65.78125 8.101562 60.40625 11.21875 C 55.03125 14.332031 49.460938 17.054688 43.703125 19.390625 C 36.691406 22.203125 29.679688 23.375 22.671875 22.90625 C 11.453125 22.125 5.296875 16.4375 4.203125 5.84375 C 3.890625 1.945312 3.8125 -1.984375 3.96875 -5.953125 C 4.125 -9.929688 4.4375 -13.789062 4.90625 -17.53125 C 5.84375 -25.164062 7.363281 -32.679688 9.46875 -40.078125 C 11.570312 -47.472656 13.867188 -54.753906 16.359375 -61.921875 C 21.960938 -78.597656 27.921875 -95.148438 34.234375 -111.578125 C 40.546875 -128.015625 47.363281 -144.335938 54.6875 -160.546875 C 57.019531 -165.679688 59.664062 -170.664062 62.625 -175.5 C 64.5 -178.457031 66.679688 -180.796875 69.171875 -182.515625 C 70.734375 -183.753906 72.445312 -184.410156 74.3125 -184.484375 C 76.175781 -184.566406 77.890625 -183.597656 79.453125 -181.578125 C 78.046875 -180.015625 76.601562 -178.453125 75.125 -176.890625 C 73.644531 -175.335938 72.363281 -173.707031 71.28125 -172 C 70.1875 -170.28125 69.25 -168.40625 68.46875 -166.375 C 67.6875 -164.351562 66.910156 -162.410156 66.140625 -160.546875 C 58.191406 -140.753906 50.632812 -120.925781 43.46875 -101.0625 C 36.300781 -81.207031 29.757812 -61.070312 23.84375 -40.65625 C 22.125 -34.269531 20.640625 -27.84375 19.390625 -21.375 C 18.148438 -14.914062 17.765625 -8.335938 18.234375 -1.640625 C 18.390625 0.546875 18.738281 2.765625 19.28125 5.015625 C 19.820312 7.273438 20.484375 9.5 21.265625 11.6875 C 22.515625 15.425781 25.085938 16.59375 28.984375 15.1875 C 31.472656 14.25 33.921875 13.234375 36.328125 12.140625 C 38.742188 11.054688 41.125 9.890625 43.46875 8.640625 C 54.53125 2.878906 64.65625 -4.363281 73.84375 -13.09375 C 79.757812 -18.539062 85.597656 -24.066406 91.359375 -29.671875 C 97.128906 -35.285156 102.664062 -41.050781 107.96875 -46.96875 C 123.539062 -64.414062 137.867188 -82.757812 150.953125 -102 C 164.046875 -121.238281 175.734375 -141.375 186.015625 -162.40625 C 188.816406 -168.019531 191.582031 -173.628906 194.3125 -179.234375 C 197.039062 -184.847656 199.726562 -190.457031 202.375 -196.0625 C 203.46875 -198.394531 204.519531 -200.691406 205.53125 -202.953125 C 206.539062 -205.210938 207.671875 -207.4375 208.921875 -209.625 Z M 208.921875 -209.625 "/></g></g></g><g fill="#ffa100" fill-opacity="1"><g transform="translate(1407.646938, 791.869705)"><g><path d="M 43.234375 -64.5 C 43.703125 -64.1875 44.25 -63.953125 44.875 -63.796875 C 45.488281 -64.421875 46.109375 -65.082031 46.734375 -65.78125 C 47.359375 -66.476562 47.984375 -67.21875 48.609375 -68 C 60.753906 -82.488281 72.90625 -97.015625 85.0625 -111.578125 C 97.21875 -126.148438 109.367188 -140.679688 121.515625 -155.171875 C 128.679688 -163.734375 136.039062 -172.144531 143.59375 -180.40625 C 151.15625 -188.664062 159.375 -196.300781 168.25 -203.3125 C 170.59375 -205.332031 173.046875 -207.195312 175.609375 -208.90625 C 178.179688 -210.625 180.789062 -212.265625 183.4375 -213.828125 C 189.050781 -217.253906 195.363281 -218.5 202.375 -217.5625 C 207.207031 -217.09375 210.554688 -215.726562 212.421875 -213.46875 C 214.285156 -211.207031 215.066406 -207.742188 214.765625 -203.078125 C 214.296875 -199.492188 213.515625 -196.144531 212.421875 -193.03125 C 209.929688 -186.789062 207.554688 -180.632812 205.296875 -174.5625 C 203.035156 -168.488281 200.503906 -162.414062 197.703125 -156.34375 C 190.378906 -140.914062 182.9375 -125.453125 175.375 -109.953125 C 167.820312 -94.453125 160.382812 -78.910156 153.0625 -63.328125 C 144.8125 -45.878906 136.90625 -28.273438 129.34375 -10.515625 C 121.789062 7.242188 114.972656 25.316406 108.890625 43.703125 C 107.023438 49.304688 105.390625 55.03125 103.984375 60.875 C 102.585938 66.71875 101.109375 72.519531 99.546875 78.28125 C 99.390625 79.21875 99.3125 80.191406 99.3125 81.203125 C 99.3125 82.210938 99.3125 83.421875 99.3125 84.828125 C 100.71875 85.296875 102.082031 85.765625 103.40625 86.234375 C 104.726562 86.703125 106.09375 87.09375 107.5 87.40625 C 107.34375 87.863281 107.1875 88.285156 107.03125 88.671875 C 106.875 89.066406 106.640625 89.34375 106.328125 89.5 C 105.546875 90.28125 104.535156 90.828125 103.296875 91.140625 C 97.835938 93.160156 93.550781 93.117188 90.4375 91.015625 C 87.320312 88.910156 85.765625 84.976562 85.765625 79.21875 C 85.765625 75.789062 86.035156 72.320312 86.578125 68.8125 C 87.128906 65.3125 87.789062 61.925781 88.5625 58.65625 C 92.300781 42.144531 96.859375 25.941406 102.234375 10.046875 C 107.609375 -5.835938 113.566406 -21.492188 120.109375 -36.921875 C 125.878906 -50.472656 131.914062 -63.867188 138.21875 -77.109375 C 144.53125 -90.359375 150.800781 -103.679688 157.03125 -117.078125 C 161.238281 -125.796875 165.445312 -134.476562 169.65625 -143.125 C 173.863281 -151.78125 177.992188 -160.546875 182.046875 -169.421875 C 183.910156 -173.628906 185.617188 -177.910156 187.171875 -182.265625 C 188.734375 -186.628906 190.296875 -190.992188 191.859375 -195.359375 C 192.171875 -196.140625 192.40625 -196.992188 192.5625 -197.921875 C 192.71875 -198.859375 192.875 -199.875 193.03125 -200.96875 C 190.53125 -200.65625 188.539062 -199.835938 187.0625 -198.515625 C 185.582031 -197.191406 184.222656 -195.828125 182.984375 -194.421875 C 177.679688 -189.128906 172.421875 -183.753906 167.203125 -178.296875 C 161.984375 -172.847656 156.878906 -167.320312 151.890625 -161.71875 C 137.710938 -145.039062 123.570312 -128.367188 109.46875 -111.703125 C 95.375 -95.035156 81.238281 -78.363281 67.0625 -61.6875 C 62.394531 -56.238281 57.488281 -50.863281 52.34375 -45.5625 C 47.207031 -40.269531 42.066406 -34.972656 36.921875 -29.671875 C 35.359375 -27.960938 33.644531 -26.40625 31.78125 -25 C 29.914062 -23.601562 27.8125 -22.75 25.46875 -22.4375 C 23.757812 -22.125 22.007812 -21.925781 20.21875 -21.84375 C 18.425781 -21.769531 16.75 -21.890625 15.1875 -22.203125 C 8.800781 -23.140625 6.460938 -26.644531 8.171875 -32.71875 C 9.890625 -38.632812 12.070312 -44.398438 14.71875 -50.015625 C 20.332031 -61.535156 25.941406 -73.019531 31.546875 -84.46875 C 37.148438 -95.925781 42.757812 -107.34375 48.375 -118.71875 C 49.3125 -120.582031 50.164062 -122.488281 50.9375 -124.4375 C 51.71875 -126.382812 52.265625 -128.523438 52.578125 -130.859375 C 51.953125 -130.242188 51.289062 -129.582031 50.59375 -128.875 C 49.894531 -128.175781 49.234375 -127.4375 48.609375 -126.65625 C 41.597656 -117.15625 34.78125 -107.535156 28.15625 -97.796875 C 21.539062 -88.054688 15.972656 -77.734375 11.453125 -66.828125 C 11.296875 -66.367188 11.097656 -65.941406 10.859375 -65.546875 C 10.628906 -65.160156 10.359375 -64.890625 10.046875 -64.734375 C 9.421875 -64.421875 8.757812 -64.144531 8.0625 -63.90625 C 7.363281 -63.675781 6.703125 -63.5625 6.078125 -63.5625 C 5.765625 -63.5625 5.332031 -63.832031 4.78125 -64.375 C 4.238281 -64.925781 3.96875 -65.4375 3.96875 -65.90625 C 3.96875 -67.769531 3.96875 -69.675781 3.96875 -71.625 C 3.96875 -73.570312 4.203125 -75.398438 4.671875 -77.109375 C 5.921875 -80.847656 7.285156 -84.507812 8.765625 -88.09375 C 10.242188 -91.675781 11.914062 -95.179688 13.78125 -98.609375 C 20.332031 -110.921875 27.539062 -122.800781 35.40625 -134.25 C 43.269531 -145.695312 51.488281 -156.875 60.0625 -167.78125 C 61.769531 -169.8125 63.640625 -171.757812 65.671875 -173.625 C 69.710938 -177.050781 74.382812 -178.53125 79.6875 -178.0625 C 87.007812 -177.445312 90.046875 -173.632812 88.796875 -166.625 C 88.015625 -162.257812 86.847656 -158.207031 85.296875 -154.46875 C 83.421875 -149.945312 81.550781 -145.46875 79.6875 -141.03125 C 77.820312 -136.59375 75.796875 -132.191406 73.609375 -127.828125 C 69.398438 -118.941406 65.113281 -110.097656 60.75 -101.296875 C 56.394531 -92.492188 52.035156 -83.65625 47.671875 -74.78125 C 46.890625 -73.0625 46.109375 -71.34375 45.328125 -69.625 C 44.554688 -67.914062 43.859375 -66.207031 43.234375 -64.5 Z M 43.234375 -64.5 "/></g></g></g><g fill="#ffa100" fill-opacity="1"><g transform="translate(1583.610852, 791.869705)"><g><path d="M -46.03125 -181.8125 C -47.75 -182.125 -49.425781 -182.664062 -51.0625 -183.4375 C -52.695312 -184.21875 -53.828125 -185.78125 -54.453125 -188.125 C -53.828125 -188.738281 -53.160156 -189.4375 -52.453125 -190.21875 C -51.753906 -191 -51.019531 -191.625 -50.25 -192.09375 C -48.6875 -192.71875 -47.125 -193.257812 -45.5625 -193.71875 C -44.007812 -194.1875 -42.453125 -194.578125 -40.890625 -194.890625 C -29.671875 -197.234375 -18.335938 -199.300781 -6.890625 -201.09375 C 4.554688 -202.882812 16.125 -203.859375 27.8125 -204.015625 C 33.101562 -204.171875 38.359375 -204.710938 43.578125 -205.640625 C 48.796875 -206.578125 54.054688 -207.359375 59.359375 -207.984375 C 67.921875 -209.078125 76.445312 -210.128906 84.9375 -211.140625 C 93.4375 -212.148438 101.890625 -213.203125 110.296875 -214.296875 C 111.859375 -214.453125 113.457031 -214.679688 115.09375 -214.984375 C 116.726562 -215.296875 118.476562 -215.609375 120.34375 -215.921875 C 121.28125 -217.953125 122.175781 -220.019531 123.03125 -222.125 C 123.894531 -224.226562 124.867188 -226.289062 125.953125 -228.3125 C 127.046875 -230.644531 128.210938 -231.96875 129.453125 -232.28125 C 130.703125 -232.59375 133.195312 -232.28125 136.9375 -231.34375 C 136.78125 -229.320312 136.625 -227.257812 136.46875 -225.15625 C 136.3125 -223.050781 136.15625 -220.832031 136 -218.5 C 137.25 -218.34375 138.492188 -218.1875 139.734375 -218.03125 C 140.984375 -217.875 142.15625 -217.875 143.25 -218.03125 C 152.90625 -218.96875 162.484375 -219.898438 171.984375 -220.828125 C 181.492188 -221.765625 191.078125 -222.625 200.734375 -223.40625 C 218.179688 -224.957031 235.585938 -226.28125 252.953125 -227.375 C 270.328125 -228.46875 287.742188 -228.3125 305.203125 -226.90625 C 308.160156 -226.75 311.117188 -226.320312 314.078125 -225.625 C 317.035156 -224.925781 319.992188 -224.109375 322.953125 -223.171875 C 324.984375 -222.703125 326.816406 -221.804688 328.453125 -220.484375 C 330.085938 -219.160156 331.21875 -217.175781 331.84375 -214.53125 C 329.65625 -212.1875 327.238281 -210.972656 324.59375 -210.890625 C 321.945312 -210.816406 319.609375 -211.484375 317.578125 -212.890625 C 313.835938 -215.222656 309.976562 -216.660156 306 -217.203125 C 302.03125 -217.753906 298.023438 -218.03125 293.984375 -218.03125 C 283.546875 -218.1875 273.179688 -217.910156 262.890625 -217.203125 C 252.609375 -216.503906 242.328125 -215.613281 232.046875 -214.53125 C 220.367188 -213.4375 208.6875 -212.265625 197 -211.015625 C 185.3125 -209.773438 173.628906 -208.53125 161.953125 -207.28125 C 158.210938 -206.96875 154.472656 -206.578125 150.734375 -206.109375 C 146.992188 -205.640625 143.332031 -205.171875 139.75 -204.703125 C 138.5 -204.546875 137.25 -204.3125 136 -204 C 134.757812 -203.695312 133.515625 -203.390625 132.265625 -203.078125 C 131.953125 -201.984375 131.640625 -200.929688 131.328125 -199.921875 C 131.015625 -198.910156 130.703125 -197.859375 130.390625 -196.765625 C 124.472656 -173.859375 118.515625 -150.953125 112.515625 -128.046875 C 106.523438 -105.148438 100.488281 -82.253906 94.40625 -59.359375 C 92.070312 -50.628906 90.164062 -41.785156 88.6875 -32.828125 C 87.207031 -23.867188 85.609375 -14.953125 83.890625 -6.078125 C 81.085938 8.410156 78.128906 22.898438 75.015625 37.390625 C 71.898438 51.878906 68.238281 66.210938 64.03125 80.390625 C 62.78125 84.753906 61.335938 89.113281 59.703125 93.46875 C 58.066406 97.832031 56.316406 102.117188 54.453125 106.328125 C 52.734375 110.378906 50.472656 113.023438 47.671875 114.265625 C 44.867188 115.515625 41.363281 115.828125 37.15625 115.203125 C 31.394531 114.429688 28.742188 111.394531 29.203125 106.09375 C 29.359375 103.601562 29.628906 101.109375 30.015625 98.609375 C 30.410156 96.117188 30.921875 93.707031 31.546875 91.375 C 35.285156 77.195312 39.101562 63.054688 43 48.953125 C 46.894531 34.859375 50.789062 20.800781 54.6875 6.78125 C 56.863281 -0.851562 59.160156 -8.488281 61.578125 -16.125 C 63.992188 -23.757812 66.210938 -31.472656 68.234375 -39.265625 C 69.640625 -44.710938 70.769531 -50.28125 71.625 -55.96875 C 72.476562 -61.65625 73.296875 -67.300781 74.078125 -72.90625 C 75.328125 -81.789062 76.300781 -90.671875 77 -99.546875 C 77.695312 -108.429688 77.734375 -117.3125 77.109375 -126.1875 C 76.804688 -131.332031 76.300781 -136.4375 75.59375 -141.5 C 74.894531 -146.5625 74 -151.660156 72.90625 -156.796875 C 72.28125 -159.921875 71.34375 -162.960938 70.09375 -165.921875 C 68.851562 -168.878906 67.457031 -171.757812 65.90625 -174.5625 C 64.96875 -176.59375 63.71875 -178.503906 62.15625 -180.296875 C 60.601562 -182.085938 59.046875 -183.757812 57.484375 -185.3125 C 55.148438 -187.488281 52.617188 -189.046875 49.890625 -189.984375 C 47.160156 -190.921875 44.160156 -191.078125 40.890625 -190.453125 C 35.128906 -189.359375 29.328125 -188.382812 23.484375 -187.53125 C 17.640625 -186.675781 11.835938 -185.859375 6.078125 -185.078125 C -0.304688 -184.296875 -6.691406 -183.59375 -13.078125 -182.96875 C -19.472656 -182.351562 -25.863281 -181.8125 -32.25 -181.34375 C -34.425781 -181.03125 -36.679688 -180.988281 -39.015625 -181.21875 C -41.359375 -181.457031 -43.695312 -181.65625 -46.03125 -181.8125 Z M 71.046875 -193.734375 C 80.234375 -187.179688 86.5 -179.347656 89.84375 -170.234375 C 93.195312 -161.128906 95.734375 -151.28125 97.453125 -140.6875 C 98.378906 -142.707031 99.503906 -145.703125 100.828125 -149.671875 C 102.160156 -153.648438 103.601562 -158.171875 105.15625 -163.234375 C 106.71875 -168.296875 108.195312 -173.316406 109.59375 -178.296875 C 111 -183.285156 112.207031 -187.765625 113.21875 -191.734375 C 114.226562 -195.710938 114.8125 -198.632812 114.96875 -200.5 C 111.226562 -201.28125 107.523438 -201.242188 103.859375 -200.390625 C 100.203125 -199.535156 96.582031 -198.875 93 -198.40625 C 89.570312 -197.9375 85.988281 -197.546875 82.25 -197.234375 C 78.519531 -196.921875 74.785156 -195.753906 71.046875 -193.734375 Z M 71.046875 -193.734375 "/></g></g></g></svg>