<svg xmlns="http://www.w3.org/2000/svg" xmlns:xlink="http://www.w3.org/1999/xlink" width="500" zoomAndPan="magnify" viewBox="0 0 375 374.999991" height="500" preserveAspectRatio="xMidYMid meet" version="1.0"><defs><g/><clipPath id="72ddba25ed"><path d="M 73.527344 154.785156 L 222 154.785156 L 222 232 L 73.527344 232 Z M 73.527344 154.785156 " clip-rule="nonzero"/></clipPath><clipPath id="92cf32b9dd"><path d="M 171.316406 224.007812 C 189.585938 211.058594 208.867188 209.4375 221.953125 210.398438 C 195.222656 190.238281 159.785156 211.921875 140.066406 215.359375 C 123.167969 219.132812 114.023438 216.109375 114.023438 216.109375 C 119.082031 216.164062 123.679688 215.664062 127.828125 214.792969 C 116.113281 211.765625 106.058594 203 106.058594 203 C 105.03125 204.800781 103.648438 206.214844 101.914062 207.238281 C 99.984375 208.382812 97.75 208.949219 95.214844 208.949219 C 92.679688 208.949219 90.445312 208.382812 88.515625 207.238281 C 86.585938 206.097656 85.09375 204.480469 84.035156 202.382812 C 82.980469 200.28125 82.449219 197.855469 82.449219 195.09375 L 82.449219 177.097656 C 82.449219 174.335938 82.980469 171.90625 84.035156 169.808594 C 85.09375 167.710938 86.585938 166.089844 88.515625 164.949219 C 90.445312 163.808594 92.679688 163.238281 95.214844 163.238281 C 97.75 163.238281 99.984375 163.808594 101.914062 164.949219 C 103.84375 166.089844 105.335938 167.710938 106.394531 169.808594 C 107.449219 171.90625 107.980469 174.335938 107.980469 177.097656 L 107.980469 195.09375 C 107.980469 195.152344 107.976562 195.210938 107.976562 195.269531 L 116.03125 201.597656 C 116.550781 199.488281 116.8125 197.222656 116.8125 194.796875 L 116.8125 177.390625 C 116.8125 172.886719 115.917969 168.921875 114.128906 165.5 C 112.339844 162.078125 109.8125 159.429688 106.542969 157.558594 C 103.273438 155.683594 99.496094 154.75 95.214844 154.75 C 90.929688 154.75 87.15625 155.683594 83.886719 157.558594 C 80.621094 159.429688 78.089844 162.078125 76.300781 165.5 C 74.511719 168.921875 73.617188 172.886719 73.617188 177.390625 L 73.617188 194.796875 C 73.617188 199.304688 74.511719 203.269531 76.300781 206.691406 C 78.089844 210.113281 80.621094 212.761719 83.886719 214.632812 C 87.15625 216.507812 90.929688 217.441406 95.214844 217.441406 C 98.902344 217.441406 102.214844 216.746094 105.152344 215.355469 C 113.507812 223.742188 137.007812 241.414062 175.816406 225.703125 C 187.535156 220.957031 196.707031 217.886719 203.777344 215.90625 C 183.050781 216.390625 171.316406 224.007812 171.316406 224.007812 Z M 171.316406 224.007812 " clip-rule="nonzero"/></clipPath><clipPath id="2c4e5a195e"><path d="M 171.316406 224.007812 C 189.585938 211.058594 208.867188 209.4375 221.953125 210.398438 C 195.222656 190.238281 159.785156 211.921875 140.066406 215.359375 C 123.167969 219.132812 114.023438 216.109375 114.023438 216.109375 C 119.082031 216.164062 123.679688 215.664062 127.828125 214.792969 C 116.113281 211.765625 106.058594 203 106.058594 203 C 105.03125 204.800781 103.648438 206.214844 101.914062 207.238281 C 99.984375 208.382812 97.75 208.949219 95.214844 208.949219 C 92.679688 208.949219 90.445312 208.382812 88.515625 207.238281 C 86.585938 206.097656 85.09375 204.480469 84.035156 202.382812 C 82.980469 200.28125 82.449219 197.855469 82.449219 195.09375 L 82.449219 177.097656 C 82.449219 174.335938 82.980469 171.90625 84.035156 169.808594 C 85.09375 167.710938 86.585938 166.089844 88.515625 164.949219 C 90.445312 163.808594 92.679688 163.238281 95.214844 163.238281 C 97.75 163.238281 99.984375 163.808594 101.914062 164.949219 C 103.84375 166.089844 105.335938 167.710938 106.394531 169.808594 C 107.449219 171.90625 107.980469 174.335938 107.980469 177.097656 L 107.980469 195.09375 C 107.980469 195.152344 107.976562 195.210938 107.976562 195.269531 L 116.03125 201.597656 C 116.550781 199.488281 116.8125 197.222656 116.8125 194.796875 L 116.8125 177.390625 C 116.8125 172.886719 115.917969 168.921875 114.128906 165.5 C 112.339844 162.078125 109.8125 159.429688 106.542969 157.558594 C 103.273438 155.683594 99.496094 154.75 95.214844 154.75 C 90.929688 154.75 87.15625 155.683594 83.886719 157.558594 C 80.621094 159.429688 78.089844 162.078125 76.300781 165.5 C 74.511719 168.921875 73.617188 172.886719 73.617188 177.390625 L 73.617188 194.796875 C 73.617188 199.304688 74.511719 203.269531 76.300781 206.691406 C 78.089844 210.113281 80.621094 212.761719 83.886719 214.632812 C 87.15625 216.507812 90.929688 217.441406 95.214844 217.441406 C 98.902344 217.441406 102.214844 216.746094 105.152344 215.355469 C 113.507812 223.742188 137.007812 241.414062 175.816406 225.703125 C 187.535156 220.957031 196.707031 217.886719 203.777344 215.90625 C 183.050781 216.390625 171.316406 224.007812 171.316406 224.007812 " clip-rule="nonzero"/></clipPath><clipPath id="7cab1f0885"><path d="M 87.980469 110.898438 L 47.976562 233.023438 L 207.589844 285.261719 L 247.59375 163.140625 Z M 87.980469 110.898438 " clip-rule="nonzero"/></clipPath><radialGradient gradientTransform="matrix(0.950552, 0.311109, -0.311239, 0.950154, 112.448252, 172.515596)" gradientUnits="userSpaceOnUse" r="163.001246" cx="0" id="88f180039c" cy="0" fx="0" fy="0"><stop stop-opacity="1" stop-color="rgb(0.193787%, 67.799377%, 93.699646%)" offset="0"/><stop stop-opacity="1" stop-color="rgb(0.393677%, 67.658997%, 93.513489%)" offset="0.0078125"/><stop stop-opacity="1" stop-color="rgb(0.39978%, 67.50946%, 93.313599%)" offset="0.0117188"/><stop stop-opacity="1" stop-color="rgb(0.39978%, 67.498779%, 93.299866%)" offset="0.015625"/><stop stop-opacity="1" stop-color="rgb(0.59967%, 67.498779%, 93.299866%)" offset="0.0195312"/><stop stop-opacity="1" stop-color="rgb(0.799561%, 67.481995%, 93.299866%)" offset="0.0234375"/><stop stop-opacity="1" stop-color="rgb(0.799561%, 67.282104%, 93.286133%)" offset="0.0273438"/><stop stop-opacity="1" stop-color="rgb(0.80719%, 67.098999%, 93.086243%)" offset="0.03125"/><stop stop-opacity="1" stop-color="rgb(1.00708%, 67.098999%, 92.89856%)" offset="0.0351562"/><stop stop-opacity="1" stop-color="rgb(1.199341%, 66.90979%, 92.89856%)" offset="0.046875"/><stop stop-opacity="1" stop-color="rgb(1.199341%, 66.7099%, 92.89856%)" offset="0.0507812"/><stop stop-opacity="1" stop-color="rgb(1.199341%, 66.699219%, 92.718506%)" offset="0.0546875"/><stop stop-opacity="1" stop-color="rgb(1.373291%, 66.699219%, 92.518616%)" offset="0.0585938"/><stop stop-opacity="1" stop-color="rgb(1.573181%, 66.677856%, 92.498779%)" offset="0.0625"/><stop stop-opacity="1" stop-color="rgb(1.61438%, 66.477966%, 92.498779%)" offset="0.0664062"/><stop stop-opacity="1" stop-color="rgb(1.81427%, 66.299438%, 92.349243%)" offset="0.0703125"/><stop stop-opacity="1" stop-color="rgb(1.998901%, 66.299438%, 92.199707%)" offset="0.0820312"/><stop stop-opacity="1" stop-color="rgb(2.191162%, 66.107178%, 92.199707%)" offset="0.0859375"/><stop stop-opacity="1" stop-color="rgb(2.391052%, 65.907288%, 92.021179%)" offset="0.0898438"/><stop stop-opacity="1" stop-color="rgb(2.415466%, 65.875244%, 91.821289%)" offset="0.101562"/><stop stop-opacity="1" stop-color="rgb(2.566528%, 65.675354%, 91.799927%)" offset="0.105469"/><stop stop-opacity="1" stop-color="rgb(2.703857%, 65.499878%, 91.793823%)" offset="0.117188"/><stop stop-opacity="1" stop-color="rgb(2.903748%, 65.499878%, 91.593933%)" offset="0.121094"/><stop stop-opacity="1" stop-color="rgb(3.09906%, 65.304565%, 91.398621%)" offset="0.125"/><stop stop-opacity="1" stop-color="rgb(3.09906%, 65.103149%, 91.398621%)" offset="0.128906"/><stop stop-opacity="1" stop-color="rgb(3.09906%, 65.098572%, 91.398621%)" offset="0.140625"/><stop stop-opacity="1" stop-color="rgb(3.29895%, 64.898682%, 91.19873%)" offset="0.144531"/><stop stop-opacity="1" stop-color="rgb(3.49884%, 64.698792%, 90.99884%)" offset="0.148438"/><stop stop-opacity="1" stop-color="rgb(3.511047%, 64.698792%, 90.99884%)" offset="0.152344"/><stop stop-opacity="1" stop-color="rgb(3.710938%, 64.698792%, 90.99884%)" offset="0.15625"/><stop stop-opacity="1" stop-color="rgb(3.898621%, 64.69574%, 90.99884%)" offset="0.160156"/><stop stop-opacity="1" stop-color="rgb(3.898621%, 64.497375%, 90.99884%)" offset="0.164062"/><stop stop-opacity="1" stop-color="rgb(4.092407%, 64.300537%, 90.805054%)" offset="0.167969"/><stop stop-opacity="1" stop-color="rgb(4.292297%, 64.299011%, 90.605164%)" offset="0.171875"/><stop stop-opacity="1" stop-color="rgb(4.299927%, 64.123535%, 90.59906%)" offset="0.183594"/><stop stop-opacity="1" stop-color="rgb(4.319763%, 63.923645%, 90.577698%)" offset="0.1875"/><stop stop-opacity="1" stop-color="rgb(4.525757%, 63.893127%, 90.377808%)" offset="0.191406"/><stop stop-opacity="1" stop-color="rgb(4.905701%, 63.693237%, 90.19928%)" offset="0.203125"/><stop stop-opacity="1" stop-color="rgb(5.28717%, 63.499451%, 90.011597%)" offset="0.214844"/><stop stop-opacity="1" stop-color="rgb(5.487061%, 63.499451%, 89.811707%)" offset="0.21875"/><stop stop-opacity="1" stop-color="rgb(5.499268%, 63.320923%, 89.7995%)" offset="0.222656"/><stop stop-opacity="1" stop-color="rgb(5.499268%, 63.121033%, 89.7995%)" offset="0.226562"/><stop stop-opacity="1" stop-color="rgb(5.499268%, 63.09967%, 89.779663%)" offset="0.230469"/><stop stop-opacity="1" stop-color="rgb(5.513%, 63.084412%, 89.579773%)" offset="0.234375"/><stop stop-opacity="1" stop-color="rgb(5.712891%, 62.884521%, 89.399719%)" offset="0.238281"/><stop stop-opacity="1" stop-color="rgb(6.09436%, 62.69989%, 89.399719%)" offset="0.25"/><stop stop-opacity="1" stop-color="rgb(6.29425%, 62.554932%, 89.205933%)" offset="0.253906"/><stop stop-opacity="1" stop-color="rgb(6.298828%, 62.40387%, 89.006042%)" offset="0.261719"/><stop stop-opacity="1" stop-color="rgb(6.396484%, 62.30011%, 88.999939%)" offset="0.269531"/><stop stop-opacity="1" stop-color="rgb(6.596375%, 62.10022%, 88.893127%)" offset="0.273438"/><stop stop-opacity="1" stop-color="rgb(6.800842%, 61.999512%, 88.691711%)" offset="0.28125"/><stop stop-opacity="1" stop-color="rgb(7.000732%, 61.901855%, 88.598633%)" offset="0.289062"/><stop stop-opacity="1" stop-color="rgb(7.191467%, 61.701965%, 88.50708%)" offset="0.296875"/><stop stop-opacity="1" stop-color="rgb(7.391357%, 61.499023%, 88.30719%)" offset="0.304688"/><stop stop-opacity="1" stop-color="rgb(7.580566%, 61.299133%, 88.198853%)" offset="0.3125"/><stop stop-opacity="1" stop-color="rgb(7.730103%, 61.199951%, 88.095093%)" offset="0.320312"/><stop stop-opacity="1" stop-color="rgb(7.798767%, 61.196899%, 87.895203%)" offset="0.328125"/><stop stop-opacity="1" stop-color="rgb(7.798767%, 61.000061%, 87.799072%)" offset="0.332031"/><stop stop-opacity="1" stop-color="rgb(7.798767%, 60.614014%, 87.658691%)" offset="0.335938"/><stop stop-opacity="1" stop-color="rgb(7.981873%, 60.411072%, 87.509155%)" offset="0.34375"/><stop stop-opacity="1" stop-color="rgb(8.280945%, 60.299683%, 87.5%)" offset="0.347656"/><stop stop-opacity="1" stop-color="rgb(8.49762%, 60.099792%, 87.391663%)" offset="0.355469"/><stop stop-opacity="1" stop-color="rgb(8.702087%, 59.999084%, 87.191772%)" offset="0.363281"/><stop stop-opacity="1" stop-color="rgb(8.901978%, 59.901428%, 87.098694%)" offset="0.371094"/><stop stop-opacity="1" stop-color="rgb(8.999634%, 59.701538%, 87.005615%)" offset="0.378906"/><stop stop-opacity="1" stop-color="rgb(9.100342%, 59.498596%, 86.805725%)" offset="0.386719"/><stop stop-opacity="1" stop-color="rgb(9.300232%, 59.298706%, 86.698914%)" offset="0.394531"/><stop stop-opacity="1" stop-color="rgb(9.503174%, 59.095764%, 86.595154%)" offset="0.402344"/><stop stop-opacity="1" stop-color="rgb(9.703064%, 58.80127%, 86.300659%)" offset="0.410156"/><stop stop-opacity="1" stop-color="rgb(9.889221%, 58.505249%, 86.004639%)" offset="0.425781"/><stop stop-opacity="1" stop-color="rgb(10.076904%, 58.399963%, 85.899353%)" offset="0.433594"/><stop stop-opacity="1" stop-color="rgb(10.284424%, 58.399963%, 85.899353%)" offset="0.4375"/><stop stop-opacity="1" stop-color="rgb(10.496521%, 58.293152%, 85.794067%)" offset="0.441406"/><stop stop-opacity="1" stop-color="rgb(10.699463%, 58.093262%, 85.594177%)" offset="0.449219"/><stop stop-opacity="1" stop-color="rgb(10.899353%, 57.902527%, 85.499573%)" offset="0.457031"/><stop stop-opacity="1" stop-color="rgb(10.998535%, 57.702637%, 85.40802%)" offset="0.464844"/><stop stop-opacity="1" stop-color="rgb(11.097717%, 57.524109%, 85.20813%)" offset="0.472656"/><stop stop-opacity="1" stop-color="rgb(11.297607%, 57.272339%, 84.996033%)" offset="0.480469"/><stop stop-opacity="1" stop-color="rgb(11.497498%, 56.996155%, 84.796143%)" offset="0.496094"/><stop stop-opacity="1" stop-color="rgb(11.697388%, 56.716919%, 84.698486%)" offset="0.503906"/><stop stop-opacity="1" stop-color="rgb(11.975098%, 56.517029%, 84.521484%)" offset="0.515625"/><stop stop-opacity="1" stop-color="rgb(12.184143%, 56.486511%, 84.321594%)" offset="0.519531"/><stop stop-opacity="1" stop-color="rgb(12.358093%, 56.286621%, 84.298706%)" offset="0.53125"/><stop stop-opacity="1" stop-color="rgb(12.5%, 56.098938%, 84.295654%)" offset="0.535156"/><stop stop-opacity="1" stop-color="rgb(12.5%, 56.098938%, 84.09729%)" offset="0.539062"/><stop stop-opacity="1" stop-color="rgb(12.5%, 56.098938%, 83.900452%)" offset="0.542969"/><stop stop-opacity="1" stop-color="rgb(12.5%, 55.909729%, 83.898926%)" offset="0.546875"/><stop stop-opacity="1" stop-color="rgb(12.5%, 55.709839%, 83.898926%)" offset="0.550781"/><stop stop-opacity="1" stop-color="rgb(12.678528%, 55.699158%, 83.898926%)" offset="0.554688"/><stop stop-opacity="1" stop-color="rgb(12.878418%, 55.699158%, 83.898926%)" offset="0.558594"/><stop stop-opacity="1" stop-color="rgb(12.919617%, 55.677795%, 83.699036%)" offset="0.5625"/><stop stop-opacity="1" stop-color="rgb(13.119507%, 55.471802%, 83.499146%)" offset="0.566406"/><stop stop-opacity="1" stop-color="rgb(13.299561%, 55.093384%, 83.49762%)" offset="0.578125"/><stop stop-opacity="1" stop-color="rgb(13.299561%, 54.899597%, 83.300781%)" offset="0.582031"/><stop stop-opacity="1" stop-color="rgb(13.299561%, 54.899597%, 83.102417%)" offset="0.585938"/><stop stop-opacity="1" stop-color="rgb(13.487244%, 54.899597%, 83.099365%)" offset="0.589844"/><stop stop-opacity="1" stop-color="rgb(13.687134%, 54.899597%, 83.099365%)" offset="0.59375"/><stop stop-opacity="1" stop-color="rgb(13.699341%, 54.721069%, 83.099365%)" offset="0.597656"/><stop stop-opacity="1" stop-color="rgb(13.722229%, 54.521179%, 83.074951%)" offset="0.601562"/><stop stop-opacity="1" stop-color="rgb(13.922119%, 54.499817%, 82.875061%)" offset="0.605469"/><stop stop-opacity="1" stop-color="rgb(14.099121%, 54.484558%, 82.699585%)" offset="0.609375"/><stop stop-opacity="1" stop-color="rgb(14.099121%, 54.284668%, 82.699585%)" offset="0.613281"/><stop stop-opacity="1" stop-color="rgb(14.103699%, 54.098511%, 82.699585%)" offset="0.617188"/><stop stop-opacity="1" stop-color="rgb(14.303589%, 54.003906%, 82.548523%)" offset="0.621094"/><stop stop-opacity="1" stop-color="rgb(14.588928%, 53.804016%, 82.398987%)" offset="0.632812"/><stop stop-opacity="1" stop-color="rgb(14.788818%, 53.601074%, 82.299805%)" offset="0.640625"/><stop stop-opacity="1" stop-color="rgb(15.005493%, 53.401184%, 82.099915%)" offset="0.648438"/><stop stop-opacity="1" stop-color="rgb(15.205383%, 53.196716%, 81.999207%)" offset="0.65625"/><stop stop-opacity="1" stop-color="rgb(15.299988%, 52.996826%, 81.90155%)" offset="0.664062"/><stop stop-opacity="1" stop-color="rgb(15.391541%, 52.806091%, 81.70166%)" offset="0.671875"/><stop stop-opacity="1" stop-color="rgb(15.591431%, 52.606201%, 81.599426%)" offset="0.679688"/><stop stop-opacity="1" stop-color="rgb(15.80658%, 52.418518%, 81.491089%)" offset="0.6875"/><stop stop-opacity="1" stop-color="rgb(16.00647%, 52.1698%, 81.193542%)" offset="0.695312"/><stop stop-opacity="1" stop-color="rgb(16.192627%, 51.899719%, 80.900574%)" offset="0.710938"/><stop stop-opacity="1" stop-color="rgb(16.392517%, 51.696777%, 80.799866%)" offset="0.71875"/><stop stop-opacity="1" stop-color="rgb(16.607666%, 51.496887%, 80.690002%)" offset="0.726562"/><stop stop-opacity="1" stop-color="rgb(16.807556%, 51.293945%, 80.488586%)" offset="0.734375"/><stop stop-opacity="1" stop-color="rgb(16.998291%, 51.094055%, 80.39856%)" offset="0.742188"/><stop stop-opacity="1" stop-color="rgb(17.198181%, 50.999451%, 80.39856%)" offset="0.75"/><stop stop-opacity="1" stop-color="rgb(17.298889%, 50.813293%, 80.212402%)" offset="0.757812"/><stop stop-opacity="1" stop-color="rgb(17.448425%, 50.590515%, 80.012512%)" offset="0.761719"/><stop stop-opacity="1" stop-color="rgb(17.599487%, 50.376892%, 79.998779%)" offset="0.773438"/><stop stop-opacity="1" stop-color="rgb(17.599487%, 50.19989%, 79.986572%)" offset="0.777344"/><stop stop-opacity="1" stop-color="rgb(17.599487%, 50.19989%, 79.786682%)" offset="0.78125"/><stop stop-opacity="1" stop-color="rgb(17.599487%, 50.195312%, 79.598999%)" offset="0.785156"/><stop stop-opacity="1" stop-color="rgb(17.599487%, 49.996948%, 79.598999%)" offset="0.789062"/><stop stop-opacity="1" stop-color="rgb(17.793274%, 49.80011%, 79.598999%)" offset="0.792969"/><stop stop-opacity="1" stop-color="rgb(17.993164%, 49.798584%, 79.598999%)" offset="0.796875"/><stop stop-opacity="1" stop-color="rgb(17.999268%, 49.798584%, 79.414368%)" offset="0.800781"/><stop stop-opacity="1" stop-color="rgb(17.999268%, 49.61853%, 79.214478%)" offset="0.804688"/><stop stop-opacity="1" stop-color="rgb(18.173218%, 49.41864%, 79.199219%)" offset="0.808594"/><stop stop-opacity="1" stop-color="rgb(18.383789%, 49.388123%, 79.188538%)" offset="0.8125"/><stop stop-opacity="1" stop-color="rgb(18.608093%, 49.188232%, 78.988647%)" offset="0.816406"/><stop stop-opacity="1" stop-color="rgb(18.798828%, 48.997498%, 78.799438%)" offset="0.824219"/><stop stop-opacity="1" stop-color="rgb(18.798828%, 48.802185%, 78.799438%)" offset="0.832031"/><stop stop-opacity="1" stop-color="rgb(18.989563%, 48.602295%, 78.607178%)" offset="0.839844"/><stop stop-opacity="1" stop-color="rgb(19.189453%, 48.497009%, 78.407288%)" offset="0.847656"/><stop stop-opacity="1" stop-color="rgb(19.198608%, 48.297119%, 78.399658%)" offset="0.851562"/><stop stop-opacity="1" stop-color="rgb(19.303894%, 48.094177%, 78.294373%)" offset="0.859375"/><stop stop-opacity="1" stop-color="rgb(19.503784%, 47.894287%, 78.094482%)" offset="0.867188"/><stop stop-opacity="1" stop-color="rgb(19.784546%, 47.659302%, 77.999878%)" offset="0.882812"/><stop stop-opacity="1" stop-color="rgb(19.984436%, 47.509766%, 77.818298%)" offset="0.886719"/><stop stop-opacity="1" stop-color="rgb(19.999695%, 47.499084%, 77.616882%)" offset="0.890625"/><stop stop-opacity="1" stop-color="rgb(20.021057%, 47.476196%, 77.598572%)" offset="0.894531"/><stop stop-opacity="1" stop-color="rgb(20.220947%, 47.273254%, 77.449036%)" offset="0.898438"/><stop stop-opacity="1" stop-color="rgb(20.399475%, 46.896362%, 77.2995%)" offset="0.910156"/><stop stop-opacity="1" stop-color="rgb(20.593262%, 46.699524%, 77.2995%)" offset="0.917969"/><stop stop-opacity="1" stop-color="rgb(20.793152%, 46.508789%, 77.108765%)" offset="0.925781"/><stop stop-opacity="1" stop-color="rgb(20.799255%, 46.289062%, 76.908875%)" offset="0.933594"/><stop stop-opacity="1" stop-color="rgb(20.799255%, 46.078491%, 76.899719%)" offset="0.941406"/><stop stop-opacity="1" stop-color="rgb(20.809937%, 45.899963%, 76.899719%)" offset="0.945312"/><stop stop-opacity="1" stop-color="rgb(21.009827%, 45.892334%, 76.89209%)" offset="0.949219"/><stop stop-opacity="1" stop-color="rgb(21.199036%, 45.692444%, 76.6922%)" offset="0.953125"/><stop stop-opacity="1" stop-color="rgb(21.395874%, 45.498657%, 76.499939%)" offset="0.957031"/><stop stop-opacity="1" stop-color="rgb(21.594238%, 45.307922%, 76.499939%)" offset="0.964844"/><stop stop-opacity="1" stop-color="rgb(21.598816%, 45.108032%, 76.321411%)" offset="0.972656"/><stop stop-opacity="1" stop-color="rgb(21.798706%, 45.08667%, 76.119995%)" offset="0.976562"/><stop stop-opacity="1" stop-color="rgb(21.998596%, 44.88678%, 76.098633%)" offset="0.980469"/><stop stop-opacity="1" stop-color="rgb(21.998596%, 44.699097%, 76.094055%)" offset="0.988281"/><stop stop-opacity="1" stop-color="rgb(21.998596%, 44.699097%, 75.894165%)" offset="0.992188"/><stop stop-opacity="1" stop-color="rgb(21.998596%, 44.699097%, 75.698853%)" offset="1"/></radialGradient></defs><rect x="-37.5" width="450" fill="#ffffff" y="-37.499999" height="449.999989" fill-opacity="1"/><rect x="-37.5" width="450" fill="#e1f7f8" y="-37.499999" height="449.999989" fill-opacity="1"/><g clip-path="url(#72ddba25ed)"><g clip-path="url(#92cf32b9dd)"><g clip-path="url(#2c4e5a195e)"><g clip-path="url(#7cab1f0885)"><path fill="url(#88f180039c)" d="M 87.980469 110.9375 L 50.773438 224.527344 L 207.589844 275.851562 L 244.796875 162.261719 Z M 87.980469 110.9375 " fill-rule="nonzero"/></g></g></g></g><g fill="#23a0e8" fill-opacity="1"><g transform="translate(120.356041, 200.25315)"><g><path d="M 16.0625 0.984375 C 11.769531 0.984375 8.429688 -0.148438 6.046875 -2.421875 C 3.660156 -4.691406 2.46875 -7.878906 2.46875 -11.984375 L 2.46875 -39 L 9.34375 -39 L 9.34375 -12.375 C 9.34375 -10.0625 9.9375 -8.242188 11.125 -6.921875 C 12.320312 -5.609375 13.96875 -4.953125 16.0625 -4.953125 C 18.144531 -4.953125 19.773438 -5.609375 20.953125 -6.921875 C 22.128906 -8.242188 22.71875 -10.082031 22.71875 -12.4375 L 22.71875 -39 L 29.59375 -39 L 29.59375 -11.984375 C 29.59375 -7.878906 28.398438 -4.691406 26.015625 -2.421875 C 23.628906 -0.148438 20.3125 0.984375 16.0625 0.984375 Z M 16.0625 0.984375 "/></g></g></g><g fill="#23a0e8" fill-opacity="1"><g transform="translate(152.41871, 200.25315)"><g><path d="M 0.390625 0 L 11.609375 -39 L 20.34375 -39 L 31.5625 0 L 24.6875 0 L 22.390625 -8.53125 L 9.515625 -8.53125 L 7.203125 0 Z M 10.671875 -13.859375 L 21.234375 -13.859375 L 16.0625 -33.171875 L 15.953125 -33.171875 Z M 10.671875 -13.859375 "/></g></g></g><g fill="#23a0e8" fill-opacity="1"><g transform="translate(184.426391, 200.25315)"><g><path d="M 9.953125 0 L 9.953125 -33 L 0.65625 -33 L 0.65625 -39 L 26.1875 -39 L 26.1875 -33 L 16.890625 -33 L 16.890625 0 Z M 9.953125 0 "/></g></g></g><g fill="#23a0e8" fill-opacity="1"><g transform="translate(211.264444, 200.25315)"><g><path d="M 0.390625 0 L 11.609375 -39 L 20.34375 -39 L 31.5625 0 L 24.6875 0 L 22.390625 -8.53125 L 9.515625 -8.53125 L 7.203125 0 Z M 10.671875 -13.859375 L 21.234375 -13.859375 L 16.0625 -33.171875 L 15.953125 -33.171875 Z M 10.671875 -13.859375 "/></g></g></g><g fill="#23a0e8" fill-opacity="1"><g transform="translate(243.272124, 200.25315)"><g><path d="M 9.953125 0 L 9.953125 -33 L 0.65625 -33 L 0.65625 -39 L 26.1875 -39 L 26.1875 -33 L 16.890625 -33 L 16.890625 0 Z M 9.953125 0 "/></g></g></g><g fill="#23a0e8" fill-opacity="1"><g transform="translate(270.110177, 200.25315)"><g><path d="M 2.921875 0 L 2.921875 -39 L 9.796875 -39 L 9.796875 0 Z M 2.921875 0 "/></g></g></g><g fill="#23a0e8" fill-opacity="1"><g transform="translate(282.814251, 200.25315)"><g><path d="M 18.75 0.984375 C 15.300781 0.984375 12.296875 0.144531 9.734375 -1.53125 C 7.171875 -3.21875 5.179688 -5.59375 3.765625 -8.65625 C 2.359375 -11.71875 1.65625 -15.320312 1.65625 -19.46875 C 1.65625 -23.644531 2.359375 -27.265625 3.765625 -30.328125 C 5.179688 -33.390625 7.171875 -35.765625 9.734375 -37.453125 C 12.296875 -39.140625 15.300781 -39.984375 18.75 -39.984375 C 22.195312 -39.984375 25.203125 -39.148438 27.765625 -37.484375 C 30.335938 -35.816406 32.328125 -33.453125 33.734375 -30.390625 C 35.148438 -27.328125 35.859375 -23.707031 35.859375 -19.53125 C 35.859375 -15.34375 35.148438 -11.71875 33.734375 -8.65625 C 32.328125 -5.59375 30.335938 -3.21875 27.765625 -1.53125 C 25.203125 0.144531 22.195312 0.984375 18.75 0.984375 Z M 18.75 -4.953125 C 21.875 -4.953125 24.351562 -6.257812 26.1875 -8.875 C 28.019531 -11.5 28.9375 -15.03125 28.9375 -19.46875 C 28.9375 -23.945312 28.019531 -27.492188 26.1875 -30.109375 C 24.351562 -32.734375 21.875 -34.046875 18.75 -34.046875 C 16.695312 -34.046875 14.898438 -33.445312 13.359375 -32.25 C 11.828125 -31.0625 10.640625 -29.375 9.796875 -27.1875 C 8.953125 -25.007812 8.53125 -22.4375 8.53125 -19.46875 C 8.53125 -15.03125 9.453125 -11.5 11.296875 -8.875 C 13.148438 -6.257812 15.632812 -4.953125 18.75 -4.953125 Z M 18.75 -4.953125 "/></g></g></g><g fill="#23a0e8" fill-opacity="1"><g transform="translate(320.321527, 200.25315)"><g><path d="M 2.921875 0 L 2.921875 -39 L 11.984375 -39 L 24.140625 -8.359375 L 24.25 -8.359375 L 24.25 -39 L 30.75 -39 L 30.75 0 L 21.671875 0 L 9.515625 -30.578125 L 9.40625 -30.578125 L 9.40625 0 Z M 2.921875 0 "/></g></g></g><g fill="#23a0e8" fill-opacity="1"><g transform="translate(39.503908, 200.285128)"><g><path d="M 0.390625 0 L 11.609375 -39 L 20.34375 -39 L 31.5625 0 L 24.6875 0 L 22.390625 -8.53125 L 9.515625 -8.53125 L 7.203125 0 Z M 10.671875 -13.859375 L 21.234375 -13.859375 L 16.0625 -33.171875 L 15.953125 -33.171875 Z M 10.671875 -13.859375 "/></g></g></g></svg>