<svg xmlns="http://www.w3.org/2000/svg" xmlns:xlink="http://www.w3.org/1999/xlink" width="500" zoomAndPan="magnify" viewBox="0 0 375 374.999991" height="500" preserveAspectRatio="xMidYMid meet" version="1.0"><defs><filter x="0%" y="0%" width="100%" height="100%" id="0a1f55599b"><feColorMatrix values="0 0 0 0 1 0 0 0 0 1 0 0 0 0 1 0 0 0 1 0" color-interpolation-filters="sRGB"/></filter><g/><mask id="ba272c486b"><g filter="url(#0a1f55599b)"><rect x="-37.5" width="450" fill="#000000" y="-37.499999" height="449.999989" fill-opacity="0.48"/></g></mask><clipPath id="f88eef2f77"><path d="M 0.398438 0.804688 L 22.238281 0.804688 L 22.238281 22.679688 L 0.398438 22.679688 Z M 0.398438 0.804688 " clip-rule="nonzero"/></clipPath><clipPath id="23dc78faba"><rect x="0" width="23" y="0" height="23"/></clipPath><mask id="625ff781c2"><g filter="url(#0a1f55599b)"><rect x="-37.5" width="450" fill="#000000" y="-37.499999" height="449.999989" fill-opacity="0.8"/></g></mask><clipPath id="d64b3e1407"><path d="M 0.179688 0.96875 L 22 0.96875 L 22 22.921875 L 0.179688 22.921875 Z M 0.179688 0.96875 " clip-rule="nonzero"/></clipPath><clipPath id="554833f96e"><rect x="0" width="23" y="0" height="23"/></clipPath><clipPath id="efe26597c8"><path d="M 71.019531 88.691406 L 93 88.691406 L 93 110.878906 L 71.019531 110.878906 Z M 71.019531 88.691406 " clip-rule="nonzero"/></clipPath><mask id="aae081d7be"><g filter="url(#0a1f55599b)"><rect x="-37.5" width="450" fill="#000000" y="-37.499999" height="449.999989" fill-opacity="0.48"/></g></mask><clipPath id="3d1f5d33c8"><path d="M 0.710938 0.886719 L 22.640625 0.886719 L 22.640625 22.800781 L 0.710938 22.800781 Z M 0.710938 0.886719 " clip-rule="nonzero"/></clipPath><clipPath id="a2abad7950"><rect x="0" width="23" y="0" height="23"/></clipPath><mask id="1f3e998805"><g filter="url(#0a1f55599b)"><rect x="-37.5" width="450" fill="#000000" y="-37.499999" height="449.999989" fill-opacity="0.8"/></g></mask><clipPath id="ed2effab4b"><path d="M 0.515625 0.59375 L 22.480469 0.59375 L 22.480469 22.441406 L 0.515625 22.441406 Z M 0.515625 0.59375 " clip-rule="nonzero"/></clipPath><clipPath id="1da5ee6678"><rect x="0" width="23" y="0" height="23"/></clipPath><clipPath id="affcc449c8"><path d="M 281.792969 77.789062 L 303.980469 77.789062 L 303.980469 99.976562 L 281.792969 99.976562 Z M 281.792969 77.789062 " clip-rule="nonzero"/></clipPath></defs><rect x="-37.5" width="450" fill="#ffffff" y="-37.499999" height="449.999989" fill-opacity="1"/><rect x="-37.5" width="450" fill="#000000" y="-37.499999" height="449.999989" fill-opacity="1"/><path fill="#ffd43d" d="M 188.457031 42.945312 C 173.648438 42.945312 161.644531 54.949219 161.644531 69.753906 C 161.644531 79.492188 170.140625 87.214844 174.597656 95.125 C 175.441406 96.617188 175.402344 101.992188 175.402344 101.992188 L 201.386719 101.992188 C 201.386719 101.992188 201.472656 96.617188 202.316406 95.125 C 206.769531 87.214844 215.269531 79.492188 215.269531 69.753906 C 215.269531 54.949219 203.261719 42.945312 188.457031 42.945312 Z M 188.457031 46.824219 C 201.101562 46.824219 211.386719 57.109375 211.386719 69.753906 C 211.386719 75.363281 207.726562 80.453125 203.851562 85.839844 C 202.132812 88.226562 200.355469 90.695312 198.933594 93.214844 C 198.5 93.984375 198.023438 95.175781 197.726562 98.109375 L 179.132812 98.109375 C 178.945312 95.789062 178.589844 94.300781 177.976562 93.21875 C 176.554688 90.695312 174.78125 88.222656 173.0625 85.839844 C 169.183594 80.449219 165.523438 75.363281 165.523438 69.753906 C 165.523438 57.109375 175.8125 46.824219 188.457031 46.824219 " fill-opacity="1" fill-rule="nonzero"/><path fill="#ffd43d" d="M 204.238281 104.019531 C 204.238281 105.140625 203.324219 106.050781 202.203125 106.050781 L 174.707031 106.050781 C 173.585938 106.050781 172.675781 105.140625 172.675781 104.019531 C 172.675781 102.898438 173.585938 101.992188 174.707031 101.992188 L 202.203125 101.992188 C 203.324219 101.992188 204.238281 102.898438 204.238281 104.019531 " fill-opacity="1" fill-rule="nonzero"/><path fill="#ffd43d" d="M 204.238281 108.082031 C 204.238281 109.207031 203.324219 110.117188 202.203125 110.117188 L 174.707031 110.117188 C 173.585938 110.117188 172.675781 109.207031 172.675781 108.082031 C 172.675781 106.960938 173.585938 106.050781 174.707031 106.050781 L 202.203125 106.050781 C 203.324219 106.050781 204.238281 106.960938 204.238281 108.082031 " fill-opacity="1" fill-rule="nonzero"/><path fill="#ffd43d" d="M 204.238281 112.148438 C 204.238281 113.269531 203.324219 114.179688 202.203125 114.179688 L 174.707031 114.179688 C 173.585938 114.179688 172.675781 113.269531 172.675781 112.148438 C 172.675781 111.027344 173.585938 110.117188 174.707031 110.117188 L 202.203125 110.117188 C 203.324219 110.117188 204.238281 111.027344 204.238281 112.148438 " fill-opacity="1" fill-rule="nonzero"/><path fill="#ffd43d" d="M 176.84375 114.179688 C 176.882812 117.769531 182.066406 120.667969 188.457031 120.667969 C 194.84375 120.667969 200.027344 117.769531 200.066406 114.179688 L 176.84375 114.179688 " fill-opacity="1" fill-rule="nonzero"/><g mask="url(#ba272c486b)"><g transform="matrix(1, 0, 0, 1, 128, 81)"><g clip-path="url(#23dc78faba)"><g clip-path="url(#f88eef2f77)"><path fill="#ffd43d" d="M 11.300781 22.609375 C 9.671875 22.609375 8.019531 21.511719 8.019531 19.40625 L 8.019531 14.988281 L 3.601562 14.988281 C 1.5 14.988281 0.398438 13.339844 0.398438 11.707031 C 0.398438 10.078125 1.5 8.425781 3.601562 8.425781 L 8.019531 8.425781 L 8.019531 4.011719 C 8.019531 1.90625 9.671875 0.804688 11.300781 0.804688 C 12.929688 0.804688 14.582031 1.90625 14.582031 4.011719 L 14.582031 8.425781 L 19 8.425781 C 21.101562 8.425781 22.203125 10.078125 22.203125 11.707031 C 22.203125 13.339844 21.101562 14.988281 19 14.988281 L 14.582031 14.988281 L 14.582031 19.40625 C 14.582031 21.511719 12.929688 22.609375 11.300781 22.609375 Z M 3.601562 10.292969 C 2.300781 10.292969 2.265625 11.5625 2.265625 11.707031 C 2.265625 11.851562 2.300781 13.125 3.601562 13.125 L 9.886719 13.125 L 9.886719 19.40625 C 9.886719 20.707031 11.15625 20.746094 11.300781 20.746094 C 11.445312 20.746094 12.714844 20.707031 12.714844 19.40625 L 12.714844 13.125 L 19 13.125 C 20.300781 13.125 20.335938 11.851562 20.335938 11.707031 C 20.335938 11.5625 20.300781 10.292969 19 10.292969 L 12.714844 10.292969 L 12.714844 4.011719 C 12.714844 2.707031 11.445312 2.671875 11.300781 2.671875 C 11.15625 2.671875 9.886719 2.707031 9.886719 4.011719 L 9.886719 10.292969 Z M 3.601562 10.292969 " fill-opacity="1" fill-rule="nonzero"/></g></g></g></g><g mask="url(#625ff781c2)"><g transform="matrix(1, 0, 0, 1, 98, 51)"><g clip-path="url(#554833f96e)"><g clip-path="url(#d64b3e1407)"><path fill="#ffd43d" d="M 11.082031 22.773438 C 9.449219 22.773438 7.800781 21.671875 7.800781 19.566406 L 7.800781 15.152344 L 3.382812 15.152344 C 1.277344 15.152344 0.179688 13.5 0.179688 11.871094 C 0.179688 10.238281 1.277344 8.589844 3.382812 8.589844 L 7.800781 8.589844 L 7.800781 4.171875 C 7.800781 2.070312 9.449219 0.96875 11.082031 0.96875 C 12.710938 0.96875 14.359375 2.070312 14.359375 4.171875 L 14.359375 8.589844 L 18.777344 8.589844 C 20.882812 8.589844 21.984375 10.238281 21.984375 11.871094 C 21.984375 13.5 20.882812 15.152344 18.777344 15.152344 L 14.359375 15.152344 L 14.359375 19.566406 C 14.359375 21.671875 12.710938 22.773438 11.082031 22.773438 Z M 3.382812 10.453125 C 2.082031 10.453125 2.042969 11.726562 2.042969 11.871094 C 2.042969 12.015625 2.082031 13.285156 3.382812 13.285156 L 9.664062 13.285156 L 9.664062 19.566406 C 9.664062 20.871094 10.9375 20.90625 11.082031 20.90625 C 11.226562 20.90625 12.496094 20.871094 12.496094 19.566406 L 12.496094 13.285156 L 18.777344 13.285156 C 20.078125 13.285156 20.117188 12.015625 20.117188 11.871094 C 20.117188 11.726562 20.078125 10.453125 18.777344 10.453125 L 12.496094 10.453125 L 12.496094 4.171875 C 12.496094 2.871094 11.226562 2.832031 11.082031 2.832031 C 10.9375 2.832031 9.664062 2.871094 9.664062 4.171875 L 9.664062 10.453125 Z M 3.382812 10.453125 " fill-opacity="1" fill-rule="nonzero"/></g></g></g></g><g clip-path="url(#efe26597c8)"><path fill="#ffd43d" d="M 81.921875 110.496094 C 80.289062 110.496094 78.640625 109.394531 78.640625 107.292969 L 78.640625 102.875 L 74.222656 102.875 C 72.117188 102.875 71.019531 101.222656 71.019531 99.59375 C 71.019531 97.964844 72.117188 96.3125 74.222656 96.3125 L 78.640625 96.3125 L 78.640625 91.894531 C 78.640625 89.792969 80.289062 88.691406 81.921875 88.691406 C 83.550781 88.691406 85.203125 89.792969 85.203125 91.894531 L 85.203125 96.3125 L 89.617188 96.3125 C 91.722656 96.3125 92.824219 97.964844 92.824219 99.59375 C 92.824219 101.222656 91.722656 102.875 89.617188 102.875 L 85.203125 102.875 L 85.203125 107.292969 C 85.203125 109.394531 83.550781 110.496094 81.921875 110.496094 Z M 74.222656 98.179688 C 72.921875 98.179688 72.882812 99.449219 72.882812 99.59375 C 72.882812 99.738281 72.921875 101.007812 74.222656 101.007812 L 80.503906 101.007812 L 80.503906 107.292969 C 80.503906 108.59375 81.777344 108.628906 81.921875 108.628906 C 82.066406 108.628906 83.335938 108.59375 83.335938 107.292969 L 83.335938 101.007812 L 89.617188 101.007812 C 90.917969 101.007812 90.957031 99.738281 90.957031 99.59375 C 90.957031 99.449219 90.917969 98.179688 89.617188 98.179688 L 83.335938 98.179688 L 83.335938 91.894531 C 83.335938 90.59375 82.066406 90.554688 81.921875 90.554688 C 81.777344 90.554688 80.503906 90.59375 80.503906 91.894531 L 80.503906 98.179688 Z M 74.222656 98.179688 " fill-opacity="1" fill-rule="nonzero"/></g><g mask="url(#aae081d7be)"><g transform="matrix(1, 0, 0, 1, 226, 66)"><g clip-path="url(#a2abad7950)"><g clip-path="url(#3d1f5d33c8)"><path fill="#ffd43d" d="M 11.613281 22.691406 C 9.980469 22.691406 8.332031 21.589844 8.332031 19.488281 L 8.332031 15.070312 L 3.914062 15.070312 C 1.808594 15.070312 0.710938 13.417969 0.710938 11.789062 C 0.710938 10.160156 1.808594 8.507812 3.914062 8.507812 L 8.332031 8.507812 L 8.332031 4.089844 C 8.332031 1.988281 9.980469 0.886719 11.613281 0.886719 C 13.242188 0.886719 14.894531 1.988281 14.894531 4.089844 L 14.894531 8.507812 L 19.308594 8.507812 C 21.414062 8.507812 22.515625 10.160156 22.515625 11.789062 C 22.515625 13.417969 21.414062 15.070312 19.308594 15.070312 L 14.894531 15.070312 L 14.894531 19.488281 C 14.894531 21.589844 13.242188 22.691406 11.613281 22.691406 Z M 3.914062 10.375 C 2.613281 10.375 2.574219 11.644531 2.574219 11.789062 C 2.574219 11.933594 2.613281 13.203125 3.914062 13.203125 L 10.195312 13.203125 L 10.195312 19.488281 C 10.195312 20.789062 11.46875 20.824219 11.613281 20.824219 C 11.757812 20.824219 13.027344 20.789062 13.027344 19.488281 L 13.027344 13.203125 L 19.308594 13.203125 C 20.609375 13.203125 20.648438 11.933594 20.648438 11.789062 C 20.648438 11.644531 20.609375 10.375 19.308594 10.375 L 13.027344 10.375 L 13.027344 4.089844 C 13.027344 2.789062 11.757812 2.753906 11.613281 2.753906 C 11.46875 2.753906 10.195312 2.789062 10.195312 4.089844 L 10.195312 10.375 Z M 3.914062 10.375 " fill-opacity="1" fill-rule="nonzero"/></g></g></g></g><g mask="url(#1f3e998805)"><g transform="matrix(1, 0, 0, 1, 248, 99)"><g clip-path="url(#1da5ee6678)"><g clip-path="url(#ed2effab4b)"><path fill="#ffd43d" d="M 11.417969 22.398438 C 9.785156 22.398438 8.136719 21.296875 8.136719 19.195312 L 8.136719 14.777344 L 3.71875 14.777344 C 1.613281 14.777344 0.515625 13.125 0.515625 11.496094 C 0.515625 9.867188 1.613281 8.214844 3.71875 8.214844 L 8.136719 8.214844 L 8.136719 3.796875 C 8.136719 1.695312 9.785156 0.59375 11.417969 0.59375 C 13.046875 0.59375 14.695312 1.695312 14.695312 3.796875 L 14.695312 8.214844 L 19.113281 8.214844 C 21.21875 8.214844 22.320312 9.867188 22.320312 11.496094 C 22.320312 13.125 21.21875 14.777344 19.113281 14.777344 L 14.695312 14.777344 L 14.695312 19.195312 C 14.695312 21.296875 13.046875 22.398438 11.417969 22.398438 Z M 3.71875 10.082031 C 2.417969 10.082031 2.378906 11.351562 2.378906 11.496094 C 2.378906 11.640625 2.417969 12.910156 3.71875 12.910156 L 10 12.910156 L 10 19.195312 C 10 20.496094 11.273438 20.53125 11.417969 20.53125 C 11.5625 20.53125 12.832031 20.496094 12.832031 19.195312 L 12.832031 12.910156 L 19.113281 12.910156 C 20.414062 12.910156 20.453125 11.640625 20.453125 11.496094 C 20.453125 11.351562 20.414062 10.082031 19.113281 10.082031 L 12.832031 10.082031 L 12.832031 3.796875 C 12.832031 2.496094 11.5625 2.457031 11.417969 2.457031 C 11.273438 2.457031 10 2.496094 10 3.796875 L 10 10.082031 Z M 3.71875 10.082031 " fill-opacity="1" fill-rule="nonzero"/></g></g></g></g><g clip-path="url(#affcc449c8)"><path fill="#ffd43d" d="M 292.695312 99.59375 C 291.066406 99.59375 289.417969 98.492188 289.417969 96.390625 L 289.417969 91.972656 L 285 91.972656 C 282.894531 91.972656 281.792969 90.320312 281.792969 88.691406 C 281.792969 87.0625 282.894531 85.410156 285 85.410156 L 289.417969 85.410156 L 289.417969 80.992188 C 289.417969 78.890625 291.066406 77.789062 292.695312 77.789062 C 294.328125 77.789062 295.976562 78.890625 295.976562 80.992188 L 295.976562 85.410156 L 300.394531 85.410156 C 302.5 85.410156 303.597656 87.0625 303.597656 88.691406 C 303.597656 90.320312 302.5 91.972656 300.394531 91.972656 L 295.976562 91.972656 L 295.976562 96.390625 C 295.976562 98.492188 294.328125 99.59375 292.695312 99.59375 Z M 285 87.277344 C 283.699219 87.277344 283.660156 88.546875 283.660156 88.691406 C 283.660156 88.835938 283.699219 90.105469 285 90.105469 L 291.28125 90.105469 L 291.28125 96.390625 C 291.28125 97.691406 292.550781 97.726562 292.695312 97.726562 C 292.84375 97.726562 294.113281 97.691406 294.113281 96.390625 L 294.113281 90.105469 L 300.394531 90.105469 C 301.695312 90.105469 301.734375 88.835938 301.734375 88.691406 C 301.734375 88.546875 301.695312 87.277344 300.394531 87.277344 L 294.113281 87.277344 L 294.113281 80.992188 C 294.113281 79.691406 292.84375 79.65625 292.695312 79.65625 C 292.550781 79.65625 291.28125 79.691406 291.28125 80.992188 L 291.28125 87.277344 Z M 285 87.277344 " fill-opacity="1" fill-rule="nonzero"/></g><g fill="#ffffff" fill-opacity="1"><g transform="translate(83.087833, 304.467457)"><g><path d="M 3.203125 0 L 3.203125 -27.125 L 7.765625 -27.125 L 16.3125 -5.453125 L 24.890625 -27.125 L 29.484375 -27.125 L 29.484375 0 L 26.09375 0 L 26.09375 -22.015625 L 17.265625 0 L 15.390625 0 L 6.546875 -21.984375 L 6.546875 0 Z M 3.203125 0 "/></g></g></g><g fill="#ffffff" fill-opacity="1"><g transform="translate(115.743014, 304.467457)"><g><path d="M 5.109375 0 L 1.28125 -3.859375 L 1.28125 -8.25 L 5.109375 -12.109375 L 14.90625 -12.109375 L 14.90625 -14.5 L 12.921875 -16.53125 L 3.796875 -16.53125 L 3.796875 -19.25 L 14.3125 -19.25 L 18.15625 -15.390625 L 18.15625 0 L 14.90625 0 L 14.90625 -2.984375 L 11.921875 0 Z M 6.546875 -2.578125 L 11.125 -2.578125 L 14.90625 -6.328125 L 14.90625 -9.578125 L 6.546875 -9.53125 L 4.53125 -7.546875 L 4.53125 -4.609375 Z M 6.546875 -2.578125 "/></g></g></g><g fill="#ffffff" fill-opacity="1"><g transform="translate(136.727744, 304.467457)"><g><path d="M 3.015625 0 L 3.015625 -27.125 L 6.265625 -27.125 L 6.265625 -12.375 L 7.0625 -12.375 L 14.796875 -19.25 L 19.0625 -19.25 L 10.75 -11.453125 L 19.625 0 L 15.71875 0 L 8.5 -9.34375 L 6.265625 -7.25 L 6.265625 0 Z M 3.015625 0 "/></g></g></g><g fill="#ffffff" fill-opacity="1"><g transform="translate(156.718454, 304.467457)"><g><path d="M 6.4375 0 L 2.578125 -3.859375 L 2.578125 -15.390625 L 6.4375 -19.25 L 15.015625 -19.25 L 18.890625 -15.390625 L 18.890625 -8.4375 L 5.8125 -8.4375 L 5.8125 -4.71875 L 7.84375 -2.6875 L 18.546875 -2.6875 L 18.546875 0 Z M 5.8125 -11 L 15.640625 -11 L 15.640625 -14.65625 L 13.625 -16.671875 L 7.84375 -16.671875 L 5.8125 -14.65625 Z M 5.8125 -11 "/></g></g></g><g fill="#ffffff" fill-opacity="1"><g transform="translate(178.18178, 304.467457)"><g/></g></g><g fill="#ffffff" fill-opacity="1"><g transform="translate(186.35478, 304.467457)"><g><path d="M 3.203125 0 L 3.203125 -27.125 L 7.765625 -27.125 L 19.875 -5.296875 L 19.875 -27.125 L 23.234375 -27.125 L 23.234375 0 L 19.25 0 L 7.359375 -21.421875 L 6.546875 -21.421875 L 6.546875 0 Z M 3.203125 0 "/></g></g></g><g fill="#ffffff" fill-opacity="1"><g transform="translate(212.788174, 304.467457)"><g><path d="M 6.4375 0 L 2.578125 -3.859375 L 2.578125 -15.390625 L 6.4375 -19.25 L 15.578125 -19.25 L 19.4375 -15.390625 L 19.4375 -3.859375 L 15.578125 0 Z M 7.84375 -2.578125 L 14.171875 -2.578125 L 16.203125 -4.609375 L 16.15625 -14.65625 L 14.171875 -16.671875 L 7.84375 -16.671875 L 5.8125 -14.65625 L 5.8125 -4.609375 Z M 7.84375 -2.578125 "/></g></g></g><g fill="#ffffff" fill-opacity="1"><g transform="translate(234.803735, 304.467457)"><g><path d="M 6.625 0 L 3.234375 -3.34375 L 3.234375 -16.671875 L 1.21875 -16.671875 L 1.21875 -19.25 L 3.3125 -19.25 L 4.125 -24.1875 L 6.484375 -24.1875 L 6.484375 -19.25 L 10.5625 -19.25 L 10.5625 -16.671875 L 6.484375 -16.671875 L 6.484375 -4.484375 L 8.203125 -2.6875 L 11.40625 -2.6875 L 11.40625 0 Z M 6.625 0 "/></g></g></g><g fill="#ffffff" fill-opacity="1"><g transform="translate(247.136869, 304.467457)"><g><path d="M 6.4375 0 L 2.578125 -3.859375 L 2.578125 -15.390625 L 6.4375 -19.25 L 15.015625 -19.25 L 18.890625 -15.390625 L 18.890625 -8.4375 L 5.8125 -8.4375 L 5.8125 -4.71875 L 7.84375 -2.6875 L 18.546875 -2.6875 L 18.546875 0 Z M 5.8125 -11 L 15.640625 -11 L 15.640625 -14.65625 L 13.625 -16.671875 L 7.84375 -16.671875 L 5.8125 -14.65625 Z M 5.8125 -11 "/></g></g></g><g fill="#ffffff" fill-opacity="1"><g transform="translate(268.600203, 304.467457)"><g><path d="M 3.015625 0 L 3.015625 -2.6875 L 13.21875 -2.6875 L 14.953125 -4.453125 L 14.953125 -6.78125 L 13.109375 -8.609375 L 5.484375 -8.609375 L 2.09375 -11.921875 L 2.09375 -15.828125 L 5.484375 -19.25 L 16.34375 -19.25 L 16.34375 -16.53125 L 7.03125 -16.53125 L 5.34375 -14.875 L 5.34375 -13 L 7.109375 -11.234375 L 14.796875 -11.234375 L 18.1875 -7.921875 L 18.1875 -3.390625 L 14.828125 0 Z M 3.015625 0 "/></g></g></g><g fill="#ffffff" fill-opacity="1"><g transform="translate(288.893487, 304.467457)"><g/></g></g><g fill="#ffffff" fill-opacity="1"><g transform="translate(123.975231, 216.580899)"><g><path d="M 68.21875 -2.109375 C 68.570312 -2.109375 68.835938 -1.992188 69.015625 -1.765625 C 69.191406 -1.535156 69.28125 -1.296875 69.28125 -1.046875 C 69.28125 -0.347656 68.925781 0 68.21875 0 L 49.125 0 C 48.769531 0 48.488281 -0.109375 48.28125 -0.328125 C 48.082031 -0.554688 47.984375 -0.796875 47.984375 -1.046875 C 47.984375 -1.296875 48.082031 -1.535156 48.28125 -1.765625 C 48.488281 -1.992188 48.769531 -2.109375 49.125 -2.109375 L 52.359375 -2.109375 L 52.359375 -46.78125 L 52.28125 -46.265625 L 34.59375 0.375 C 34.394531 0.875 34.070312 1.125 33.625 1.125 C 33.21875 1.125 32.890625 0.898438 32.640625 0.453125 L 10.6875 -46.484375 L 10.6875 -2.109375 L 16.921875 -2.109375 C 17.273438 -2.109375 17.539062 -1.992188 17.71875 -1.765625 C 17.894531 -1.535156 17.984375 -1.296875 17.984375 -1.046875 C 17.984375 -0.347656 17.628906 0 16.921875 0 L 3.078125 0 C 2.378906 0 2.03125 -0.347656 2.03125 -1.046875 C 2.03125 -1.296875 2.117188 -1.535156 2.296875 -1.765625 C 2.472656 -1.992188 2.734375 -2.109375 3.078125 -2.109375 L 8.421875 -2.109375 L 8.421875 -50.546875 L 4.21875 -50.546875 C 3.457031 -50.546875 3.078125 -50.894531 3.078125 -51.59375 C 3.078125 -52.300781 3.457031 -52.65625 4.21875 -52.65625 L 19.78125 -52.65625 C 20.382812 -52.65625 20.8125 -52.378906 21.0625 -51.828125 L 38.140625 -15.34375 L 51.96875 -51.75 C 52.175781 -52.351562 52.601562 -52.65625 53.25 -52.65625 L 67.46875 -52.65625 C 67.820312 -52.65625 68.085938 -52.539062 68.265625 -52.3125 C 68.441406 -52.082031 68.53125 -51.84375 68.53125 -51.59375 C 68.53125 -50.894531 68.175781 -50.546875 67.46875 -50.546875 L 64.015625 -50.546875 L 64.015625 -2.109375 Z M 37 -12.484375 L 19.1875 -50.546875 L 11.28125 -50.546875 L 33.46875 -3.078125 Z M 54.609375 -2.109375 L 61.75 -2.109375 L 61.75 -50.546875 L 54.609375 -50.546875 Z M 54.609375 -2.109375 "/></g></g></g><g fill="#ffffff" fill-opacity="1"><g transform="translate(197.380348, 216.580899)"><g><path d="M 50.546875 -52.65625 C 51.242188 -52.65625 51.59375 -52.300781 51.59375 -51.59375 C 51.59375 -50.894531 51.242188 -50.546875 50.546875 -50.546875 L 45.4375 -50.546875 L 45.4375 -1.125 C 45.4375 0.375 45.082031 1.125 44.375 1.125 C 43.675781 1.125 43 0.648438 42.34375 -0.296875 L 10.078125 -46.859375 L 10.078125 -2.109375 L 16.921875 -2.109375 C 17.671875 -2.109375 18.046875 -1.753906 18.046875 -1.046875 C 18.046875 -0.347656 17.671875 0 16.921875 0 L 3.078125 0 C 2.828125 0 2.585938 -0.0859375 2.359375 -0.265625 C 2.140625 -0.441406 2.03125 -0.703125 2.03125 -1.046875 C 2.03125 -1.347656 2.140625 -1.597656 2.359375 -1.796875 C 2.585938 -2.003906 2.828125 -2.109375 3.078125 -2.109375 L 7.828125 -2.109375 L 7.828125 -50.546875 L 3.6875 -50.546875 C 3.03125 -50.546875 2.703125 -50.894531 2.703125 -51.59375 C 2.703125 -52.300781 3.03125 -52.65625 3.6875 -52.65625 L 19.78125 -52.65625 C 20.082031 -52.65625 20.304688 -52.554688 20.453125 -52.359375 L 43.171875 -19.484375 L 43.171875 -50.546875 L 38.21875 -50.546875 C 37.457031 -50.546875 37.078125 -50.894531 37.078125 -51.59375 C 37.078125 -52.300781 37.457031 -52.65625 38.21875 -52.65625 Z M 43.171875 -3.015625 L 43.171875 -15.640625 L 19.03125 -50.546875 L 10.234375 -50.546875 Z M 43.171875 -3.015625 "/></g></g></g></svg>