<svg xmlns="http://www.w3.org/2000/svg" xmlns:xlink="http://www.w3.org/1999/xlink" width="676" zoomAndPan="magnify" viewBox="0 0 507 220.499993" height="294" preserveAspectRatio="xMidYMid meet" version="1.0"><defs><g/><clipPath id="d98116c253"><path d="M 0.574219 0 L 506.425781 0 L 506.425781 220 L 0.574219 220 Z M 0.574219 0 " clip-rule="nonzero"/></clipPath><clipPath id="8900cbfafb"><path d="M 77 74 L 118.308594 74 L 118.308594 146.941406 L 77 146.941406 Z M 77 74 " clip-rule="nonzero"/></clipPath><clipPath id="7af8627b62"><path d="M 44.414062 73.046875 L 85 73.046875 L 85 146 L 44.414062 146 Z M 44.414062 73.046875 " clip-rule="nonzero"/></clipPath></defs><g clip-path="url(#d98116c253)"><path fill="#ffffff" d="M 0.574219 0 L 506.425781 0 L 506.425781 220 L 0.574219 220 Z M 0.574219 0 " fill-opacity="1" fill-rule="nonzero"/><path fill="#ffffff" d="M 0.574219 0 L 506.425781 0 L 506.425781 220 L 0.574219 220 Z M 0.574219 0 " fill-opacity="1" fill-rule="nonzero"/></g><g clip-path="url(#8900cbfafb)"><path fill="#5766f6" d="M 98.625 85.347656 C 106.386719 90.796875 111.464844 99.8125 111.464844 109.996094 C 111.464844 126.59375 97.960938 140.097656 81.363281 140.097656 C 80.171875 140.097656 79 140.03125 77.847656 139.894531 L 77.847656 146.964844 C 79.007812 147.074219 80.183594 147.128906 81.363281 147.128906 C 86.375 147.128906 91.238281 146.148438 95.816406 144.210938 C 100.238281 142.339844 104.210938 139.664062 107.621094 136.253906 C 111.03125 132.84375 113.707031 128.875 115.578125 124.453125 C 117.515625 119.871094 118.496094 115.007812 118.496094 109.996094 C 118.496094 104.984375 117.515625 100.121094 115.578125 95.539062 C 113.707031 91.117188 111.03125 87.148438 107.621094 83.738281 C 104.210938 80.328125 100.238281 77.652344 95.816406 75.78125 C 94.433594 75.195312 93.027344 74.699219 91.59375 74.289062 L 91.59375 112.425781 L 98.625 112.425781 L 98.625 85.347656 " fill-opacity="1" fill-rule="nonzero"/></g><path fill="#a85cf9" d="M 84.878906 90.59375 L 77.847656 90.59375 L 77.847656 129.398438 L 84.878906 129.398438 L 84.878906 90.59375 " fill-opacity="1" fill-rule="nonzero"/><g clip-path="url(#7af8627b62)"><path fill="#6be8b8" d="M 47.148438 124.453125 C 49.019531 128.875 51.695312 132.84375 55.105469 136.253906 C 58.511719 139.664062 62.484375 142.339844 66.90625 144.210938 C 68.289062 144.796875 69.699219 145.292969 71.128906 145.703125 L 71.128906 107.5625 L 64.097656 107.5625 L 64.097656 134.644531 C 56.339844 129.195312 51.257812 120.175781 51.257812 109.996094 C 51.257812 93.394531 64.761719 79.890625 81.363281 79.890625 C 82.550781 79.890625 83.722656 79.960938 84.878906 80.097656 L 84.878906 73.023438 C 83.714844 72.917969 82.542969 72.859375 81.363281 72.859375 C 76.351562 72.859375 71.488281 73.84375 66.90625 75.78125 C 62.484375 77.652344 58.511719 80.328125 55.105469 83.738281 C 51.695312 87.148438 49.019531 91.117188 47.148438 95.539062 C 45.210938 100.121094 44.226562 104.984375 44.226562 109.996094 C 44.226562 115.007812 45.210938 119.871094 47.148438 124.453125 " fill-opacity="1" fill-rule="nonzero"/></g><g fill="#464646" fill-opacity="1"><g transform="translate(146.545741, 132.079125)"><g><path d="M 33.328125 -11.5 C 33.328125 -7.40625 32.21875 -4.460938 30 -2.671875 C 27.789062 -0.890625 24.238281 0 19.34375 0 L 4.59375 0 L 4.59375 -40.046875 L 19.28125 -40.046875 C 23.707031 -40.046875 26.859375 -39.296875 28.734375 -37.796875 C 30.609375 -36.304688 31.546875 -33.753906 31.546875 -30.140625 C 31.546875 -27.546875 31.085938 -25.546875 30.171875 -24.140625 C 29.253906 -22.734375 27.710938 -21.773438 25.546875 -21.265625 C 28.140625 -20.921875 30.082031 -19.941406 31.375 -18.328125 C 32.675781 -16.710938 33.328125 -14.4375 33.328125 -11.5 Z M 26.5 -29.375 C 26.5 -31.59375 25.96875 -33.132812 24.90625 -34 C 23.84375 -34.875 21.988281 -35.3125 19.34375 -35.3125 L 10.03125 -35.3125 L 10.03125 -22.796875 L 19.34375 -22.796875 C 21.90625 -22.796875 23.738281 -23.304688 24.84375 -24.328125 C 25.945312 -25.347656 26.5 -27.03125 26.5 -29.375 Z M 28.09375 -11.8125 C 28.09375 -14.195312 27.429688 -15.859375 26.109375 -16.796875 C 24.796875 -17.734375 22.539062 -18.203125 19.34375 -18.203125 L 10.03125 -18.203125 L 10.03125 -4.859375 L 19.34375 -4.859375 C 22.539062 -4.859375 24.796875 -5.367188 26.109375 -6.390625 C 27.429688 -7.410156 28.09375 -9.21875 28.09375 -11.8125 Z M 28.09375 -11.8125 "/></g></g></g><g fill="#464646" fill-opacity="1"><g transform="translate(185.814487, 132.079125)"><g><path d="M 7.09375 5.625 C 8.707031 5.625 9.925781 5.269531 10.75 4.5625 C 11.582031 3.863281 12.46875 2.191406 13.40625 -0.453125 L 0.515625 -31.546875 L 6.390625 -31.546875 L 16.09375 -5.6875 L 25.28125 -31.546875 L 30.90625 -31.546875 L 18.015625 2.109375 C 16.859375 5.171875 15.515625 7.304688 13.984375 8.515625 C 12.453125 9.734375 10.472656 10.34375 8.046875 10.34375 C 7.316406 10.34375 6.554688 10.300781 5.765625 10.21875 C 4.984375 10.132812 4.210938 10.023438 3.453125 9.890625 L 3.453125 5.296875 C 3.921875 5.421875 4.441406 5.503906 5.015625 5.546875 C 5.585938 5.597656 6.28125 5.625 7.09375 5.625 Z M 7.09375 5.625 "/></g></g></g><g fill="#464646" fill-opacity="1"><g transform="translate(220.932901, 132.079125)"><g><path d="M 22.734375 -4.921875 L 22.734375 -0.515625 C 22.054688 -0.210938 21.128906 0.03125 19.953125 0.21875 C 18.785156 0.414062 17.671875 0.515625 16.609375 0.515625 C 12.773438 0.515625 10.035156 -0.332031 8.390625 -2.03125 C 6.753906 -3.738281 5.9375 -6.679688 5.9375 -10.859375 L 5.9375 -27.078125 L 1.21875 -27.078125 L 1.21875 -31.546875 L 6 -31.546875 L 6.828125 -39.203125 L 11.171875 -39.203125 L 11.171875 -31.546875 L 22.421875 -31.546875 L 22.421875 -27.078125 L 11.171875 -27.078125 L 11.171875 -11.046875 C 11.171875 -8.453125 11.648438 -6.6875 12.609375 -5.75 C 13.566406 -4.8125 15.257812 -4.34375 17.6875 -4.34375 C 18.457031 -4.34375 19.34375 -4.40625 20.34375 -4.53125 C 21.34375 -4.65625 22.140625 -4.785156 22.734375 -4.921875 Z M 22.734375 -4.921875 "/></g></g></g><g fill="#464646" fill-opacity="1"><g transform="translate(248.133758, 132.079125)"><g><path d="M 31.15625 -5.109375 L 31.15625 0 L 4.59375 0 L 4.59375 -40.046875 L 30.59375 -40.046875 L 30.59375 -35.125 L 10.03125 -35.125 L 10.03125 -22.859375 L 28.21875 -22.859375 L 28.21875 -18.078125 L 10.03125 -18.078125 L 10.03125 -5.109375 Z M 31.15625 -5.109375 "/></g></g></g><g fill="#464646" fill-opacity="1"><g transform="translate(285.040005, 132.079125)"><g><path d="M 30.390625 -30.96875 L 30.390625 9.703125 L 25.15625 9.703125 L 25.15625 -2.296875 C 23.664062 -1.398438 21.992188 -0.707031 20.140625 -0.21875 C 18.296875 0.269531 16.414062 0.515625 14.5 0.515625 C 10.238281 0.515625 7.203125 -0.75 5.390625 -3.28125 C 3.585938 -5.820312 2.6875 -10.007812 2.6875 -15.84375 C 2.6875 -21.71875 3.851562 -25.910156 6.1875 -28.421875 C 8.53125 -30.929688 12.515625 -32.1875 18.140625 -32.1875 C 20.265625 -32.1875 22.472656 -32.066406 24.765625 -31.828125 C 27.066406 -31.597656 28.941406 -31.3125 30.390625 -30.96875 Z M 18.140625 -27.453125 C 14.003906 -27.453125 11.265625 -26.65625 9.921875 -25.0625 C 8.585938 -23.46875 7.921875 -20.394531 7.921875 -15.84375 C 7.921875 -11.5 8.492188 -8.492188 9.640625 -6.828125 C 10.785156 -5.171875 13 -4.34375 16.28125 -4.34375 C 17.769531 -4.34375 19.289062 -4.53125 20.84375 -4.90625 C 22.40625 -5.289062 23.84375 -5.828125 25.15625 -6.515625 L 25.15625 -26.75 C 24.132812 -26.96875 23.015625 -27.140625 21.796875 -27.265625 C 20.585938 -27.390625 19.367188 -27.453125 18.140625 -27.453125 Z M 18.140625 -27.453125 "/></g></g></g><g fill="#464646" fill-opacity="1"><g transform="translate(323.095584, 132.079125)"><g><path d="M 14.4375 0.515625 C 10.945312 0.515625 8.328125 -0.351562 6.578125 -2.09375 C 4.828125 -3.84375 3.953125 -6.46875 3.953125 -9.96875 L 3.953125 -31.546875 L 9.203125 -31.546875 L 9.203125 -10.59375 C 9.203125 -8.425781 9.753906 -6.851562 10.859375 -5.875 C 11.960938 -4.894531 13.707031 -4.40625 16.09375 -4.40625 C 17.539062 -4.40625 19 -4.582031 20.46875 -4.9375 C 21.9375 -5.300781 23.414062 -5.867188 24.90625 -6.640625 L 24.90625 -31.546875 L 30.140625 -31.546875 L 30.140625 0 L 25.359375 0 L 25.09375 -2.625 L 24.96875 -2.625 C 22.75 -1.46875 20.832031 -0.65625 19.21875 -0.1875 C 17.601562 0.28125 16.007812 0.515625 14.4375 0.515625 Z M 14.4375 0.515625 "/></g></g></g><g fill="#464646" fill-opacity="1"><g transform="translate(360.959613, 132.079125)"><g><path d="M 9.640625 -37.03125 L 4.015625 -37.03125 L 4.015625 -42.46875 L 9.640625 -42.46875 Z M 9.453125 0 L 4.21875 0 L 4.21875 -31.546875 L 9.453125 -31.546875 Z M 9.453125 0 "/></g></g></g><g fill="#464646" fill-opacity="1"><g transform="translate(378.135805, 132.079125)"><g><path d="M 22.734375 -4.921875 L 22.734375 -0.515625 C 22.054688 -0.210938 21.128906 0.03125 19.953125 0.21875 C 18.785156 0.414062 17.671875 0.515625 16.609375 0.515625 C 12.773438 0.515625 10.035156 -0.332031 8.390625 -2.03125 C 6.753906 -3.738281 5.9375 -6.679688 5.9375 -10.859375 L 5.9375 -27.078125 L 1.21875 -27.078125 L 1.21875 -31.546875 L 6 -31.546875 L 6.828125 -39.203125 L 11.171875 -39.203125 L 11.171875 -31.546875 L 22.421875 -31.546875 L 22.421875 -27.078125 L 11.171875 -27.078125 L 11.171875 -11.046875 C 11.171875 -8.453125 11.648438 -6.6875 12.609375 -5.75 C 13.566406 -4.8125 15.257812 -4.34375 17.6875 -4.34375 C 18.457031 -4.34375 19.34375 -4.40625 20.34375 -4.53125 C 21.34375 -4.65625 22.140625 -4.785156 22.734375 -4.921875 Z M 22.734375 -4.921875 "/></g></g></g><g fill="#464646" fill-opacity="1"><g transform="translate(405.336651, 132.079125)"><g><path d="M 7.09375 5.625 C 8.707031 5.625 9.925781 5.269531 10.75 4.5625 C 11.582031 3.863281 12.46875 2.191406 13.40625 -0.453125 L 0.515625 -31.546875 L 6.390625 -31.546875 L 16.09375 -5.6875 L 25.28125 -31.546875 L 30.90625 -31.546875 L 18.015625 2.109375 C 16.859375 5.171875 15.515625 7.304688 13.984375 8.515625 C 12.453125 9.734375 10.472656 10.34375 8.046875 10.34375 C 7.316406 10.34375 6.554688 10.300781 5.765625 10.21875 C 4.984375 10.132812 4.210938 10.023438 3.453125 9.890625 L 3.453125 5.296875 C 3.921875 5.421875 4.441406 5.503906 5.015625 5.546875 C 5.585938 5.597656 6.28125 5.625 7.09375 5.625 Z M 7.09375 5.625 "/></g></g></g></svg>