<svg xmlns="http://www.w3.org/2000/svg" xmlns:xlink="http://www.w3.org/1999/xlink" width="500" zoomAndPan="magnify" viewBox="0 0 375 374.999991" height="500" preserveAspectRatio="xMidYMid meet" version="1.0"><defs><clipPath id="5b6126313a"><path d="M 69.367188 88.339844 L 201.789062 88.339844 L 201.789062 247.5625 L 69.367188 247.5625 Z M 69.367188 88.339844 " clip-rule="nonzero"/></clipPath><clipPath id="e85b00ff8b"><path d="M 210.496094 194.9375 L 295 194.9375 L 295 210 L 210.496094 210 Z M 210.496094 194.9375 " clip-rule="nonzero"/></clipPath><clipPath id="adbc8f5193"><path d="M 210.371094 269 L 293 269 L 293 284 L 210.371094 284 Z M 210.371094 269 " clip-rule="nonzero"/></clipPath><clipPath id="db1c296fc7"><path d="M 211.703125 230 L 282 230 L 282 246 L 211.703125 246 Z M 211.703125 230 " clip-rule="nonzero"/></clipPath><clipPath id="12908705f3"><path d="M 212.761719 212 L 259 212 L 259 228 L 212.761719 228 Z M 212.761719 212 " clip-rule="nonzero"/></clipPath><clipPath id="3d9b12350d"><path d="M 212.761719 249 L 259 249 L 259 265 L 212.761719 265 Z M 212.761719 249 " clip-rule="nonzero"/></clipPath></defs><rect x="-37.5" width="450" fill="#ffffff" y="-37.499999" height="449.999989" fill-opacity="1"/><rect x="-37.5" width="450" fill="#000000" y="-37.499999" height="449.999989" fill-opacity="1"/><g clip-path="url(#5b6126313a)"><path fill="#ffffff" d="M 171.707031 165.582031 C 195.058594 170.320312 202.246094 182.941406 201.3125 204.960938 C 194.746094 190.582031 181.695312 180.980469 166.882812 174.613281 C 168.867188 172.03125 170.734375 169.308594 171.707031 165.582031 M 69.375 88.339844 L 144.617188 88.339844 C 164.332031 88.339844 178.21875 91.167969 186.210938 96.773438 C 194.234375 102.378906 198.234375 111.945312 198.234375 125.464844 L 198.234375 135.761719 C 198.234375 144.777344 196.035156 151.738281 191.636719 156.613281 C 187.292969 161.394531 180.65625 164.351562 171.734375 165.480469 C 172.304688 163.25 172.550781 160.65625 172.324219 157.527344 C 166.289062 157.761719 161.371094 159.40625 157.609375 162.535156 C 167.796875 138.90625 155.710938 135.0625 135.394531 134.757812 C 125.542969 134.609375 118.035156 131.109375 113.164062 123.832031 C 114.265625 131.058594 117.273438 135.800781 122.003906 138.273438 C 126.597656 140.851562 131.109375 141.667969 136.078125 142.703125 C 147.375 145.070312 148.542969 155.039062 142.269531 163.277344 C 144.070312 157.132812 142.851562 151.855469 138.542969 147.476562 C 139.351562 151.070312 139.09375 153.890625 137.570312 155.785156 C 130.863281 153.339844 124.34375 153.710938 118.042969 157.378906 C 111.308594 142.109375 94.09375 153.859375 80.894531 144.285156 C 88.015625 161.441406 106.148438 148.699219 108.652344 161.332031 C 106.183594 158.886719 102.46875 158.125 99.183594 158.226562 C 102.339844 159.179688 105.9375 161.429688 107.15625 164.597656 C 108.289062 167.546875 106.773438 176.640625 105.378906 179.21875 L 98.605469 191.753906 C 94.640625 199.082031 91.496094 213.71875 106.460938 214.546875 C 112.632812 214.890625 116.835938 212.175781 122.574219 211.0625 C 136.8125 208.289062 149.96875 219.992188 155.472656 232.265625 C 150.566406 225.800781 144.640625 222.097656 138.386719 219.414062 C 141.621094 231.320312 141.257812 240.839844 137.636719 248.203125 L 69.375 248.203125 Z M 69.375 88.339844 " fill-opacity="1" fill-rule="nonzero"/></g><g clip-path="url(#e85b00ff8b)"><path fill="#ffffff" d="M 159.632812 209.390625 L 235.910156 209.390625 L 239.164062 203.757812 L 246.707031 203.757812 L 249.964844 209.390625 C 252.773438 209.390625 287.96875 209.390625 290.773438 209.390625 L 294.988281 202.09375 L 290.773438 194.796875 C 287.96875 194.796875 252.773438 194.796875 249.964844 194.796875 L 246.707031 200.429688 L 239.164062 200.429688 L 235.910156 194.796875 L 159.632812 194.796875 C 158.792969 199.617188 158.792969 204.554688 159.632812 209.390625 Z M 159.632812 209.390625 " fill-opacity="1" fill-rule="nonzero"/></g><g clip-path="url(#adbc8f5193)"><path fill="#ffffff" d="M 156.832031 283.753906 L 233.109375 283.753906 L 236.367188 278.121094 L 243.910156 278.121094 L 247.167969 283.753906 C 249.976562 283.753906 285.167969 283.753906 287.976562 283.753906 L 292.191406 276.457031 L 287.976562 269.160156 C 285.167969 269.160156 249.976562 269.160156 247.167969 269.160156 L 243.910156 274.792969 L 236.367188 274.792969 L 233.109375 269.160156 L 156.832031 269.160156 C 155.992188 273.980469 155.992188 278.917969 156.832031 283.753906 Z M 156.832031 283.753906 " fill-opacity="1" fill-rule="nonzero"/></g><g clip-path="url(#db1c296fc7)"><path fill="#ffffff" d="M 268.9375 230.601562 L 265.679688 236.230469 L 258.136719 236.230469 L 254.878906 230.601562 L 174.460938 230.601562 C 189.574219 247.640625 206.527344 245.207031 226.96875 245.207031 L 254.878906 245.207031 L 258.136719 239.574219 L 265.679688 239.574219 L 268.9375 245.207031 L 277.363281 245.207031 L 281.574219 237.910156 L 277.363281 230.613281 L 268.9375 230.613281 Z M 268.9375 230.601562 " fill-opacity="1" fill-rule="nonzero"/></g><path stroke-linecap="butt" transform="matrix(0, 1.576458, -1.576458, 0, 208.569644, 194.450114)" fill="none" stroke-linejoin="miter" d="M -0.000567653 1.999212 L 56.415454 1.999212 " stroke="#ffffff" stroke-width="4" stroke-opacity="1" stroke-miterlimit="4"/><g clip-path="url(#12908705f3)"><path fill="#ffffff" d="M 234.980469 221.496094 L 242.5625 221.496094 L 245.839844 227.15625 L 254.308594 227.15625 L 258.546875 219.824219 L 254.308594 212.488281 L 245.839844 212.488281 L 242.5625 218.148438 L 234.980469 218.148438 L 231.707031 212.488281 L 181.058594 212.488281 C 182.425781 217.84375 184.796875 222.804688 187.957031 227.171875 L 231.707031 227.171875 Z M 234.980469 221.496094 " fill-opacity="1" fill-rule="nonzero"/></g><g clip-path="url(#3d9b12350d)"><path fill="#ffffff" d="M 234.980469 258.445312 L 242.5625 258.445312 L 245.839844 264.105469 L 254.308594 264.105469 L 258.546875 256.769531 L 254.308594 249.433594 L 245.839844 249.433594 L 242.5625 255.097656 L 234.980469 255.097656 L 231.707031 249.433594 L 181.058594 249.433594 C 182.425781 254.792969 184.796875 259.753906 187.957031 264.121094 L 231.707031 264.121094 Z M 234.980469 258.445312 " fill-opacity="1" fill-rule="nonzero"/></g></svg>