<svg xmlns="http://www.w3.org/2000/svg" xmlns:xlink="http://www.w3.org/1999/xlink" width="500" zoomAndPan="magnify" viewBox="0 0 375 374.999991" height="500" preserveAspectRatio="xMidYMid meet" version="1.0"><defs><g/><clipPath id="bfba2eab4a"><path d="M 130 37.5 L 245 37.5 L 245 204.75 L 130 204.75 Z M 130 37.5 " clip-rule="nonzero"/></clipPath><clipPath id="2ef74ab992"><path d="M 133 204.777344 L 244 204.777344 L 244 293 L 133 293 Z M 133 204.777344 " clip-rule="nonzero"/></clipPath></defs><rect x="-37.5" width="450" fill="#ffffff" y="-37.499999" height="449.999989" fill-opacity="1"/><rect x="-37.5" width="450" fill="#ffa100" y="-37.499999" height="449.999989" fill-opacity="1"/><g clip-path="url(#bfba2eab4a)"><path fill="#000000" d="M 231.765625 60.375 C 220.277344 46.367188 203.320312 37.664062 187.515625 37.664062 C 171.707031 37.664062 154.753906 46.367188 143.265625 60.375 C 133.003906 72.882812 128.648438 87.699219 131.316406 101.019531 C 138.125 135.042969 184.160156 201.066406 186.121094 203.859375 C 186.4375 204.3125 186.960938 204.585938 187.515625 204.585938 C 188.070312 204.585938 188.59375 204.3125 188.914062 203.859375 C 190.867188 201.066406 236.910156 135.042969 243.71875 101.019531 C 246.378906 87.699219 242.027344 72.882812 231.765625 60.375 Z M 240.375 100.351562 C 234.355469 130.421875 195.417969 188.34375 187.515625 199.882812 C 179.609375 188.34375 140.671875 130.417969 134.65625 100.351562 C 132.191406 88.035156 136.289062 74.25 145.898438 62.535156 C 156.761719 49.296875 172.703125 41.070312 187.515625 41.070312 C 202.328125 41.070312 218.273438 49.296875 229.132812 62.535156 C 238.738281 74.25 242.839844 88.035156 240.375 100.351562 Z M 240.375 100.351562 " fill-opacity="1" fill-rule="nonzero"/></g><path fill="#000000" d="M 209.667969 87.910156 L 209.667969 73.433594 C 209.667969 72.492188 208.902344 71.730469 207.964844 71.730469 C 207.023438 71.730469 206.257812 72.492188 206.257812 73.433594 L 206.257812 85.355469 L 188.539062 72.070312 C 187.929688 71.613281 187.097656 71.613281 186.492188 72.070312 L 159.226562 92.507812 C 158.472656 93.074219 158.320312 94.140625 158.886719 94.894531 C 159.449219 95.648438 160.519531 95.796875 161.273438 95.234375 L 165.363281 92.167969 L 165.363281 114.3125 C 165.363281 115.253906 166.125 116.015625 167.066406 116.015625 L 207.964844 116.015625 C 208.902344 116.015625 209.667969 115.253906 209.667969 114.3125 L 209.667969 92.167969 L 213.757812 95.234375 C 214.0625 95.464844 214.421875 95.574219 214.78125 95.574219 C 215.292969 95.574219 215.808594 95.339844 216.144531 94.894531 C 216.707031 94.140625 216.550781 93.074219 215.796875 92.507812 Z M 206.257812 112.609375 L 168.769531 112.609375 L 168.769531 90.464844 C 168.769531 90.203125 168.703125 89.964844 168.597656 89.742188 L 187.515625 75.5625 L 206.257812 89.613281 Z M 206.257812 112.609375 " fill-opacity="1" fill-rule="nonzero"/><g clip-path="url(#2ef74ab992)"><path fill="#000000" d="M 236.734375 235.851562 L 220.230469 235.851562 L 190.136719 205.285156 C 189.710938 204.839844 189.113281 204.589844 188.476562 204.589844 C 187.851562 204.589844 187.253906 204.839844 186.816406 205.285156 L 156.730469 235.851562 L 140.203125 235.851562 C 136.359375 235.851562 133.203125 238.992188 133.203125 242.855469 L 133.203125 285.957031 C 133.203125 289.808594 136.359375 292.964844 140.203125 292.964844 L 236.734375 292.964844 C 240.601562 292.964844 243.761719 289.808594 243.761719 285.957031 L 243.761719 242.84375 C 243.761719 238.992188 240.601562 235.851562 236.734375 235.851562 Z M 153.886719 270.691406 C 153.886719 271.425781 153.710938 271.972656 153.375 272.324219 C 153.035156 272.683594 152.613281 272.871094 152.089844 272.871094 C 151.550781 272.871094 151.113281 272.683594 150.789062 272.324219 C 150.476562 271.960938 150.316406 271.414062 150.316406 270.691406 L 150.316406 264.78125 L 142.613281 264.78125 L 142.613281 270.691406 C 142.613281 271.425781 142.453125 271.972656 142.101562 272.324219 C 141.777344 272.683594 141.339844 272.871094 140.816406 272.871094 C 140.28125 272.871094 139.855469 272.683594 139.53125 272.324219 C 139.21875 271.960938 139.054688 271.414062 139.054688 270.691406 L 139.054688 256.839844 C 139.054688 256.117188 139.21875 255.582031 139.53125 255.21875 C 139.84375 254.859375 140.28125 254.683594 140.828125 254.683594 C 141.367188 254.683594 141.800781 254.871094 142.125 255.21875 C 142.453125 255.582031 142.625 256.117188 142.625 256.839844 L 142.625 261.875 L 150.328125 261.875 L 150.328125 256.839844 C 150.328125 256.117188 150.492188 255.582031 150.816406 255.21875 C 151.140625 254.859375 151.5625 254.683594 152.101562 254.683594 C 152.625 254.683594 153.0625 254.871094 153.398438 255.21875 C 153.734375 255.582031 153.898438 256.117188 153.898438 256.839844 L 153.898438 270.691406 Z M 184.40625 214.386719 C 184.941406 216.105469 186.566406 217.363281 188.476562 217.363281 C 190.386719 217.363281 192.007812 216.105469 192.542969 214.375 L 213.664062 235.851562 L 163.273438 235.851562 Z M 173.597656 267.449219 C 173.222656 268.570312 172.671875 269.53125 171.9375 270.339844 C 171.199219 271.164062 170.300781 271.785156 169.226562 272.210938 C 168.152344 272.644531 166.917969 272.871094 165.53125 272.871094 C 164.160156 272.871094 162.921875 272.644531 161.835938 272.199219 C 160.75 271.75 159.839844 271.125 159.117188 270.316406 C 158.378906 269.503906 157.832031 268.53125 157.457031 267.398438 C 157.082031 266.265625 156.894531 265.042969 156.894531 263.734375 C 156.894531 262.386719 157.09375 261.128906 157.480469 260.007812 C 157.867188 258.886719 158.429688 257.925781 159.164062 257.128906 C 159.902344 256.34375 160.800781 255.730469 161.863281 255.308594 C 162.910156 254.898438 164.121094 254.683594 165.457031 254.683594 C 167.28125 254.683594 168.851562 255.058594 170.164062 255.792969 C 171.460938 256.53125 172.460938 257.589844 173.132812 258.949219 C 173.808594 260.304688 174.144531 261.914062 174.144531 263.746094 C 174.144531 265.105469 173.957031 266.351562 173.597656 267.449219 Z M 189.761719 270.152344 C 189.210938 271 188.402344 271.660156 187.351562 272.136719 C 186.289062 272.632812 185.042969 272.871094 183.59375 272.871094 C 181.859375 272.871094 180.425781 272.546875 179.289062 271.886719 C 178.488281 271.414062 177.828125 270.777344 177.328125 269.992188 C 176.828125 269.207031 176.578125 268.433594 176.578125 267.699219 C 176.578125 267.261719 176.730469 266.886719 177.027344 266.574219 C 177.328125 266.265625 177.714844 266.113281 178.175781 266.113281 C 178.550781 266.113281 178.875 266.238281 179.125 266.464844 C 179.386719 266.714844 179.613281 267.0625 179.800781 267.535156 C 180.023438 268.097656 180.261719 268.570312 180.523438 268.945312 C 180.785156 269.304688 181.148438 269.628906 181.621094 269.867188 C 182.109375 270.117188 182.722656 270.226562 183.496094 270.226562 C 184.542969 270.226562 185.40625 269.980469 186.066406 269.480469 C 186.726562 269.019531 187.050781 268.410156 187.050781 267.671875 C 187.050781 267.085938 186.878906 266.613281 186.515625 266.265625 C 186.164062 265.890625 185.703125 265.617188 185.128906 265.417969 C 184.582031 265.230469 183.820312 265.019531 182.882812 264.804688 C 181.609375 264.507812 180.546875 264.171875 179.699219 263.773438 C 178.851562 263.371094 178.164062 262.835938 177.675781 262.152344 C 177.179688 261.464844 176.917969 260.617188 176.917969 259.609375 C 176.917969 258.636719 177.179688 257.777344 177.703125 257.015625 C 178.226562 256.269531 179 255.695312 180 255.28125 C 181 254.871094 182.183594 254.671875 183.542969 254.671875 C 184.617188 254.671875 185.554688 254.808594 186.339844 255.070312 C 187.140625 255.332031 187.789062 255.707031 188.3125 256.144531 C 188.835938 256.59375 189.210938 257.054688 189.460938 257.539062 C 189.699219 258.039062 189.8125 258.511719 189.8125 258.972656 C 189.8125 259.394531 189.660156 259.78125 189.363281 260.121094 C 189.050781 260.46875 188.6875 260.628906 188.226562 260.628906 C 187.8125 260.628906 187.515625 260.53125 187.300781 260.320312 C 187.089844 260.121094 186.851562 259.796875 186.617188 259.320312 C 186.289062 258.660156 185.902344 258.136719 185.453125 257.777344 C 185.003906 257.402344 184.28125 257.214844 183.296875 257.214844 C 182.371094 257.214844 181.632812 257.425781 181.074219 257.824219 C 180.511719 258.226562 180.210938 258.710938 180.210938 259.285156 C 180.210938 259.632812 180.324219 259.945312 180.5 260.207031 C 180.699219 260.46875 180.960938 260.679688 181.285156 260.855469 C 181.621094 261.042969 181.960938 261.191406 182.308594 261.292969 C 182.671875 261.390625 183.234375 261.539062 184.03125 261.738281 C 185.03125 261.976562 185.917969 262.214844 186.726562 262.5 C 187.539062 262.785156 188.226562 263.125 188.789062 263.523438 C 189.347656 263.921875 189.785156 264.417969 190.097656 265.042969 C 190.421875 265.652344 190.585938 266.402344 190.585938 267.300781 C 190.574219 268.359375 190.296875 269.320312 189.761719 270.152344 Z M 206.414062 257.515625 C 206.089844 257.789062 205.640625 257.925781 205.039062 257.925781 L 201.144531 257.925781 L 201.144531 270.691406 C 201.144531 271.4375 200.984375 271.984375 200.660156 272.335938 C 200.332031 272.683594 199.898438 272.871094 199.371094 272.871094 C 198.859375 272.871094 198.425781 272.683594 198.074219 272.324219 C 197.75 271.972656 197.585938 271.425781 197.585938 270.691406 L 197.585938 257.925781 L 193.707031 257.925781 C 193.082031 257.925781 192.644531 257.789062 192.34375 257.527344 C 192.058594 257.253906 191.894531 256.902344 191.894531 256.453125 C 191.894531 255.992188 192.046875 255.644531 192.359375 255.382812 C 192.667969 255.121094 193.105469 254.984375 193.691406 254.984375 L 205.027344 254.984375 C 205.625 254.984375 206.089844 255.121094 206.386719 255.394531 C 206.699219 255.667969 206.835938 256.019531 206.835938 256.453125 C 206.835938 256.890625 206.710938 257.253906 206.414062 257.515625 Z M 222.117188 272.171875 C 221.839844 272.445312 221.417969 272.558594 220.855469 272.558594 L 211.15625 272.558594 C 210.371094 272.558594 209.820312 272.382812 209.484375 272.046875 C 209.148438 271.710938 208.984375 271.152344 208.984375 270.390625 L 208.984375 257.164062 C 208.984375 256.652344 209.058594 256.242188 209.210938 255.90625 C 209.371094 255.582031 209.609375 255.34375 209.933594 255.195312 C 210.257812 255.046875 210.683594 254.972656 211.179688 254.972656 L 220.605469 254.972656 C 221.167969 254.972656 221.59375 255.097656 221.878906 255.34375 C 222.140625 255.605469 222.277344 255.929688 222.277344 256.328125 C 222.277344 256.753906 222.140625 257.089844 221.878906 257.339844 C 221.605469 257.589844 221.167969 257.714844 220.605469 257.714844 L 212.542969 257.714844 L 212.542969 262.027344 L 219.957031 262.027344 C 220.492188 262.027344 220.894531 262.152344 221.167969 262.386719 C 221.429688 262.675781 221.554688 262.984375 221.554688 263.386719 C 221.554688 263.773438 221.417969 264.109375 221.15625 264.355469 C 220.894531 264.621094 220.492188 264.730469 219.945312 264.730469 L 212.542969 264.730469 L 212.542969 269.730469 L 220.855469 269.730469 C 221.417969 269.730469 221.839844 269.855469 222.128906 270.117188 C 222.402344 270.378906 222.554688 270.714844 222.554688 271.152344 C 222.539062 271.574219 222.402344 271.921875 222.117188 272.171875 Z M 237.445312 272.160156 C 237.132812 272.421875 236.695312 272.558594 236.109375 272.558594 L 227.496094 272.558594 C 226.710938 272.558594 226.160156 272.382812 225.824219 272.046875 C 225.472656 271.710938 225.300781 271.152344 225.300781 270.390625 L 225.300781 256.839844 C 225.300781 256.117188 225.460938 255.582031 225.785156 255.21875 C 226.109375 254.871094 226.546875 254.683594 227.085938 254.683594 C 227.621094 254.683594 228.046875 254.871094 228.371094 255.21875 C 228.695312 255.582031 228.882812 256.117188 228.882812 256.839844 L 228.882812 269.640625 L 236.097656 269.640625 C 236.671875 269.640625 237.121094 269.78125 237.421875 270.054688 C 237.71875 270.328125 237.882812 270.691406 237.882812 271.113281 C 237.894531 271.550781 237.746094 271.910156 237.445312 272.160156 Z M 237.445312 272.160156 " fill-opacity="1" fill-rule="nonzero"/></g><path fill="#000000" d="M 168.117188 258.25 C 167.34375 257.75 166.46875 257.515625 165.457031 257.515625 C 164.746094 257.515625 164.085938 257.652344 163.484375 257.925781 C 162.886719 258.199219 162.363281 258.585938 161.925781 259.097656 C 161.488281 259.597656 161.152344 260.257812 160.886719 261.054688 C 160.640625 261.851562 160.515625 262.722656 160.515625 263.734375 C 160.515625 264.71875 160.640625 265.628906 160.886719 266.4375 C 161.152344 267.25 161.5 267.910156 161.960938 268.433594 C 162.421875 268.96875 162.949219 269.378906 163.546875 269.640625 C 164.144531 269.902344 164.796875 270.042969 165.507812 270.042969 C 166.417969 270.042969 167.265625 269.792969 168.027344 269.34375 C 168.789062 268.894531 169.390625 268.183594 169.851562 267.238281 C 170.300781 266.289062 170.539062 265.117188 170.539062 263.734375 C 170.539062 262.4375 170.324219 261.316406 169.914062 260.367188 C 169.488281 259.433594 168.890625 258.722656 168.117188 258.25 Z M 168.117188 258.25 " fill-opacity="1" fill-rule="nonzero"/><g fill="#050a30" fill-opacity="1"><g transform="translate(144.324722, 336.847567)"><g><path d="M 18.046875 -12.59375 C 17.972656 -12.34375 17.894531 -12.085938 17.8125 -11.828125 C 17.738281 -11.578125 17.707031 -11.296875 17.71875 -10.984375 C 17.9375 -10.992188 18.128906 -11.007812 18.296875 -11.03125 C 18.472656 -11.0625 18.648438 -11.085938 18.828125 -11.109375 C 19.222656 -11.140625 19.609375 -11.171875 19.984375 -11.203125 C 20.359375 -11.242188 20.734375 -11.273438 21.109375 -11.296875 C 21.265625 -11.296875 21.421875 -11.269531 21.578125 -11.21875 C 21.742188 -11.175781 21.894531 -11.128906 22.03125 -11.078125 C 22.175781 -11.023438 22.289062 -10.945312 22.375 -10.84375 C 22.46875 -10.738281 22.492188 -10.582031 22.453125 -10.375 C 22.117188 -10.125 21.75 -10.078125 21.34375 -10.234375 C 21.082031 -10.335938 20.820312 -10.375 20.5625 -10.34375 C 20.3125 -10.3125 20.0625 -10.265625 19.8125 -10.203125 C 19.40625 -10.117188 18.988281 -10.023438 18.5625 -9.921875 C 18.144531 -9.828125 17.71875 -9.726562 17.28125 -9.625 C 16.820312 -8.164062 16.394531 -6.691406 16 -5.203125 C 15.613281 -3.722656 15.226562 -2.253906 14.84375 -0.796875 C 14.46875 0.671875 14.097656 2.132812 13.734375 3.59375 C 13.378906 5.0625 13.015625 6.523438 12.640625 7.984375 C 12.335938 8.003906 12.140625 7.992188 12.046875 7.953125 C 11.953125 7.910156 11.90625 7.804688 11.90625 7.640625 C 11.925781 7.273438 11.9375 6.910156 11.9375 6.546875 C 11.9375 6.179688 11.96875 5.820312 12.03125 5.46875 C 12.332031 4.007812 12.644531 2.550781 12.96875 1.09375 C 13.300781 -0.351562 13.625 -1.800781 13.9375 -3.25 C 14.132812 -4.082031 14.332031 -4.90625 14.53125 -5.71875 C 14.738281 -6.539062 14.9375 -7.367188 15.125 -8.203125 C 15.164062 -8.304688 15.191406 -8.421875 15.203125 -8.546875 C 15.222656 -8.671875 15.253906 -8.8125 15.296875 -8.96875 C 15.179688 -8.96875 15.082031 -8.972656 15 -8.984375 C 14.925781 -9.003906 14.863281 -9.007812 14.8125 -9 C 13.4375 -8.601562 12.0625 -8.207031 10.6875 -7.8125 C 9.3125 -7.414062 7.9375 -7.023438 6.5625 -6.640625 C 6.507812 -6.617188 6.457031 -6.585938 6.40625 -6.546875 C 6.351562 -6.515625 6.300781 -6.492188 6.25 -6.484375 C 6.125 -6.160156 5.972656 -5.6875 5.796875 -5.0625 C 5.617188 -4.4375 5.425781 -3.726562 5.21875 -2.9375 C 5.019531 -2.144531 4.816406 -1.320312 4.609375 -0.46875 C 4.410156 0.375 4.226562 1.171875 4.0625 1.921875 C 3.894531 2.679688 3.757812 3.332031 3.65625 3.875 C 3.5625 4.425781 3.515625 4.8125 3.515625 5.03125 C 2.828125 5.320312 2.472656 5.160156 2.453125 4.546875 C 2.453125 4.191406 2.460938 3.84375 2.484375 3.5 C 2.503906 3.15625 2.550781 2.816406 2.625 2.484375 C 2.851562 1.265625 3.082031 0.046875 3.3125 -1.171875 C 3.550781 -2.398438 3.785156 -3.632812 4.015625 -4.875 C 4.035156 -4.988281 4.050781 -5.117188 4.0625 -5.265625 C 4.082031 -5.421875 4.113281 -5.585938 4.15625 -5.765625 C 3.800781 -5.734375 3.484375 -5.65625 3.203125 -5.53125 C 2.929688 -5.40625 2.65625 -5.300781 2.375 -5.21875 C 2.164062 -5.144531 1.953125 -5.082031 1.734375 -5.03125 C 1.523438 -4.988281 1.316406 -4.960938 1.109375 -4.953125 C 1.003906 -4.953125 0.898438 -4.984375 0.796875 -5.046875 C 0.691406 -5.117188 0.578125 -5.179688 0.453125 -5.234375 C 0.660156 -5.679688 0.945312 -5.984375 1.3125 -6.140625 C 1.6875 -6.296875 2.050781 -6.453125 2.40625 -6.609375 C 2.738281 -6.785156 3.085938 -6.941406 3.453125 -7.078125 C 3.816406 -7.210938 4.191406 -7.359375 4.578125 -7.515625 C 4.703125 -8.046875 4.828125 -8.566406 4.953125 -9.078125 C 5.085938 -9.597656 5.21875 -10.125 5.34375 -10.65625 C 5.625 -11.769531 5.90625 -12.878906 6.1875 -13.984375 C 6.46875 -15.097656 6.75 -16.210938 7.03125 -17.328125 C 7.125 -17.628906 7.21875 -17.921875 7.3125 -18.203125 C 7.40625 -18.484375 7.507812 -18.765625 7.625 -19.046875 C 7.6875 -19.222656 7.769531 -19.378906 7.875 -19.515625 C 7.988281 -19.660156 8.140625 -19.769531 8.328125 -19.84375 C 8.453125 -19.875 8.582031 -19.878906 8.71875 -19.859375 C 8.851562 -19.847656 9.085938 -19.769531 9.421875 -19.625 C 9.398438 -19.144531 9.3125 -18.679688 9.15625 -18.234375 C 9.007812 -17.785156 8.882812 -17.320312 8.78125 -16.84375 C 8.675781 -16.375 8.566406 -15.90625 8.453125 -15.4375 C 8.335938 -14.96875 8.21875 -14.503906 8.09375 -14.046875 C 7.863281 -13.097656 7.632812 -12.15625 7.40625 -11.21875 C 7.28125 -10.757812 7.160156 -10.289062 7.046875 -9.8125 C 6.929688 -9.332031 6.804688 -8.835938 6.671875 -8.328125 C 6.804688 -8.328125 6.925781 -8.320312 7.03125 -8.3125 C 7.132812 -8.3125 7.234375 -8.316406 7.328125 -8.328125 C 8.648438 -8.660156 9.972656 -9 11.296875 -9.34375 C 12.617188 -9.6875 13.953125 -10.03125 15.296875 -10.375 C 15.347656 -10.382812 15.398438 -10.40625 15.453125 -10.4375 C 15.515625 -10.476562 15.59375 -10.519531 15.6875 -10.5625 C 15.738281 -10.71875 15.796875 -10.882812 15.859375 -11.0625 C 15.921875 -11.25 15.976562 -11.441406 16.03125 -11.640625 C 16.507812 -13.441406 16.988281 -15.234375 17.46875 -17.015625 C 17.957031 -18.796875 18.457031 -20.578125 18.96875 -22.359375 C 19.144531 -22.972656 19.351562 -23.582031 19.59375 -24.1875 C 19.832031 -24.800781 20.070312 -25.398438 20.3125 -25.984375 C 20.457031 -26.316406 20.617188 -26.5 20.796875 -26.53125 C 20.984375 -26.5625 21.289062 -26.492188 21.71875 -26.328125 C 21.695312 -26.023438 21.648438 -25.734375 21.578125 -25.453125 C 21.515625 -25.171875 21.445312 -24.878906 21.375 -24.578125 C 20.8125 -22.578125 20.25 -20.578125 19.6875 -18.578125 C 19.132812 -16.578125 18.585938 -14.582031 18.046875 -12.59375 Z M 18.046875 -12.59375 "/></g></g></g><g fill="#050a30" fill-opacity="1"><g transform="translate(165.034498, 336.847567)"><g><path d="M 23.65625 -23.734375 C 23.914062 -24.253906 24.179688 -24.5625 24.453125 -24.65625 C 24.722656 -24.757812 25.1875 -24.695312 25.84375 -24.46875 C 25.914062 -24.1875 25.925781 -23.925781 25.875 -23.6875 C 25.820312 -23.445312 25.757812 -23.210938 25.6875 -22.984375 C 25.3125 -21.890625 24.941406 -20.800781 24.578125 -19.71875 C 24.222656 -18.632812 23.867188 -17.546875 23.515625 -16.453125 C 22.597656 -13.703125 21.675781 -10.953125 20.75 -8.203125 C 19.820312 -5.453125 18.898438 -2.703125 17.984375 0.046875 C 17.703125 0.929688 17.457031 1.820312 17.25 2.71875 C 17.050781 3.625 16.890625 4.523438 16.765625 5.421875 C 16.484375 5.679688 16.160156 5.695312 15.796875 5.46875 C 15.722656 5.125 15.691406 4.757812 15.703125 4.375 C 15.722656 4 15.757812 3.625 15.8125 3.25 C 15.9375 2.15625 16.128906 1.082031 16.390625 0.03125 C 16.660156 -1.007812 16.957031 -2.050781 17.28125 -3.09375 C 17.738281 -4.625 18.203125 -6.148438 18.671875 -7.671875 C 19.148438 -9.191406 19.628906 -10.707031 20.109375 -12.21875 C 20.171875 -12.425781 20.226562 -12.632812 20.28125 -12.84375 C 20.34375 -13.0625 20.363281 -13.285156 20.34375 -13.515625 C 20.25 -13.390625 20.148438 -13.253906 20.046875 -13.109375 C 19.941406 -12.972656 19.847656 -12.835938 19.765625 -12.703125 C 18.804688 -11.234375 17.800781 -9.8125 16.75 -8.4375 C 15.707031 -7.0625 14.601562 -5.726562 13.4375 -4.4375 C 12.71875 -3.613281 11.953125 -2.820312 11.140625 -2.0625 C 10.328125 -1.300781 9.476562 -0.578125 8.59375 0.109375 C 8.03125 0.523438 7.441406 0.910156 6.828125 1.265625 C 6.222656 1.617188 5.597656 1.929688 4.953125 2.203125 C 4.148438 2.515625 3.351562 2.644531 2.5625 2.59375 C 1.289062 2.5 0.59375 1.851562 0.46875 0.65625 C 0.4375 0.21875 0.425781 -0.222656 0.4375 -0.671875 C 0.457031 -1.117188 0.5 -1.554688 0.5625 -1.984375 C 0.664062 -2.847656 0.832031 -3.695312 1.0625 -4.53125 C 1.300781 -5.375 1.566406 -6.203125 1.859375 -7.015625 C 2.484375 -8.898438 3.15625 -10.769531 3.875 -12.625 C 4.59375 -14.488281 5.363281 -16.335938 6.1875 -18.171875 C 6.457031 -18.753906 6.757812 -19.316406 7.09375 -19.859375 C 7.300781 -20.203125 7.546875 -20.46875 7.828125 -20.65625 C 8.003906 -20.800781 8.195312 -20.875 8.40625 -20.875 C 8.625 -20.882812 8.820312 -20.773438 9 -20.546875 C 8.832031 -20.378906 8.664062 -20.207031 8.5 -20.03125 C 8.332031 -19.851562 8.1875 -19.664062 8.0625 -19.46875 C 7.945312 -19.269531 7.84375 -19.054688 7.75 -18.828125 C 7.664062 -18.597656 7.578125 -18.378906 7.484375 -18.171875 C 6.585938 -15.929688 5.734375 -13.6875 4.921875 -11.4375 C 4.109375 -9.1875 3.367188 -6.910156 2.703125 -4.609375 C 2.503906 -3.878906 2.332031 -3.148438 2.1875 -2.421875 C 2.050781 -1.691406 2.007812 -0.945312 2.0625 -0.1875 C 2.082031 0.0625 2.125 0.3125 2.1875 0.5625 C 2.25 0.820312 2.320312 1.078125 2.40625 1.328125 C 2.550781 1.742188 2.84375 1.875 3.28125 1.71875 C 3.5625 1.613281 3.835938 1.5 4.109375 1.375 C 4.390625 1.25 4.660156 1.117188 4.921875 0.984375 C 6.171875 0.328125 7.316406 -0.492188 8.359375 -1.484375 C 9.023438 -2.097656 9.6875 -2.722656 10.34375 -3.359375 C 11 -3.992188 11.625 -4.644531 12.21875 -5.3125 C 13.976562 -7.289062 15.597656 -9.367188 17.078125 -11.546875 C 18.566406 -13.722656 19.894531 -16.003906 21.0625 -18.390625 C 21.375 -19.023438 21.679688 -19.65625 21.984375 -20.28125 C 22.296875 -20.914062 22.601562 -21.550781 22.90625 -22.1875 C 23.03125 -22.457031 23.148438 -22.71875 23.265625 -22.96875 C 23.378906 -23.226562 23.507812 -23.484375 23.65625 -23.734375 Z M 23.65625 -23.734375 "/></g></g></g><g fill="#050a30" fill-opacity="1"><g transform="translate(187.833759, 336.847567)"><g><path d="M 4.890625 -7.296875 C 4.941406 -7.265625 5.003906 -7.238281 5.078125 -7.21875 C 5.148438 -7.289062 5.21875 -7.363281 5.28125 -7.4375 C 5.351562 -7.519531 5.425781 -7.609375 5.5 -7.703125 C 6.875 -9.335938 8.25 -10.976562 9.625 -12.625 C 11 -14.28125 12.375 -15.925781 13.75 -17.5625 C 14.5625 -18.53125 15.394531 -19.484375 16.25 -20.421875 C 17.101562 -21.359375 18.035156 -22.222656 19.046875 -23.015625 C 19.304688 -23.242188 19.582031 -23.453125 19.875 -23.640625 C 20.164062 -23.835938 20.460938 -24.023438 20.765625 -24.203125 C 21.398438 -24.585938 22.113281 -24.726562 22.90625 -24.625 C 23.457031 -24.570312 23.835938 -24.414062 24.046875 -24.15625 C 24.253906 -23.90625 24.34375 -23.515625 24.3125 -22.984375 C 24.257812 -22.578125 24.171875 -22.195312 24.046875 -21.84375 C 23.765625 -21.144531 23.492188 -20.453125 23.234375 -19.765625 C 22.984375 -19.078125 22.695312 -18.390625 22.375 -17.703125 C 21.550781 -15.953125 20.707031 -14.195312 19.84375 -12.4375 C 18.988281 -10.6875 18.148438 -8.929688 17.328125 -7.171875 C 16.390625 -5.191406 15.492188 -3.195312 14.640625 -1.1875 C 13.785156 0.820312 13.015625 2.867188 12.328125 4.953125 C 12.117188 5.585938 11.929688 6.234375 11.765625 6.890625 C 11.609375 7.554688 11.441406 8.210938 11.265625 8.859375 C 11.253906 8.960938 11.25 9.070312 11.25 9.1875 C 11.25 9.300781 11.25 9.441406 11.25 9.609375 C 11.40625 9.660156 11.554688 9.710938 11.703125 9.765625 C 11.859375 9.816406 12.015625 9.859375 12.171875 9.890625 C 12.148438 9.941406 12.128906 9.988281 12.109375 10.03125 C 12.097656 10.082031 12.070312 10.113281 12.03125 10.125 C 11.945312 10.21875 11.832031 10.28125 11.6875 10.3125 C 11.070312 10.539062 10.585938 10.535156 10.234375 10.296875 C 9.878906 10.066406 9.703125 9.625 9.703125 8.96875 C 9.703125 8.582031 9.734375 8.1875 9.796875 7.78125 C 9.859375 7.382812 9.9375 7.003906 10.03125 6.640625 C 10.445312 4.765625 10.957031 2.925781 11.5625 1.125 C 12.175781 -0.664062 12.851562 -2.429688 13.59375 -4.171875 C 14.25 -5.710938 14.929688 -7.234375 15.640625 -8.734375 C 16.359375 -10.234375 17.070312 -11.738281 17.78125 -13.25 C 18.25 -14.238281 18.722656 -15.222656 19.203125 -16.203125 C 19.679688 -17.179688 20.148438 -18.171875 20.609375 -19.171875 C 20.816406 -19.648438 21.007812 -20.132812 21.1875 -20.625 C 21.363281 -21.125 21.539062 -21.617188 21.71875 -22.109375 C 21.75 -22.203125 21.773438 -22.300781 21.796875 -22.40625 C 21.816406 -22.507812 21.832031 -22.625 21.84375 -22.75 C 21.5625 -22.71875 21.335938 -22.625 21.171875 -22.46875 C 21.003906 -22.320312 20.851562 -22.171875 20.71875 -22.015625 C 20.113281 -21.410156 19.515625 -20.796875 18.921875 -20.171875 C 18.335938 -19.554688 17.757812 -18.9375 17.1875 -18.3125 C 15.582031 -16.414062 13.984375 -14.523438 12.390625 -12.640625 C 10.796875 -10.753906 9.195312 -8.867188 7.59375 -6.984375 C 7.0625 -6.367188 6.503906 -5.757812 5.921875 -5.15625 C 5.335938 -4.5625 4.753906 -3.960938 4.171875 -3.359375 C 4.003906 -3.160156 3.8125 -2.984375 3.59375 -2.828125 C 3.382812 -2.671875 3.148438 -2.578125 2.890625 -2.546875 C 2.691406 -2.503906 2.488281 -2.476562 2.28125 -2.46875 C 2.082031 -2.457031 1.894531 -2.472656 1.71875 -2.515625 C 1 -2.617188 0.734375 -3.015625 0.921875 -3.703125 C 1.117188 -4.367188 1.367188 -5.019531 1.671875 -5.65625 C 2.304688 -6.96875 2.941406 -8.269531 3.578125 -9.5625 C 4.210938 -10.851562 4.84375 -12.144531 5.46875 -13.4375 C 5.582031 -13.644531 5.679688 -13.859375 5.765625 -14.078125 C 5.859375 -14.304688 5.921875 -14.550781 5.953125 -14.8125 C 5.878906 -14.738281 5.800781 -14.660156 5.71875 -14.578125 C 5.644531 -14.503906 5.570312 -14.425781 5.5 -14.34375 C 4.707031 -13.257812 3.9375 -12.164062 3.1875 -11.0625 C 2.4375 -9.96875 1.804688 -8.800781 1.296875 -7.5625 C 1.273438 -7.507812 1.25 -7.460938 1.21875 -7.421875 C 1.195312 -7.378906 1.171875 -7.347656 1.140625 -7.328125 C 1.066406 -7.296875 0.988281 -7.265625 0.90625 -7.234375 C 0.832031 -7.203125 0.757812 -7.1875 0.6875 -7.1875 C 0.65625 -7.1875 0.609375 -7.21875 0.546875 -7.28125 C 0.484375 -7.34375 0.453125 -7.398438 0.453125 -7.453125 C 0.453125 -7.671875 0.453125 -7.890625 0.453125 -8.109375 C 0.453125 -8.328125 0.476562 -8.535156 0.53125 -8.734375 C 0.664062 -9.148438 0.816406 -9.5625 0.984375 -9.96875 C 1.160156 -10.375 1.351562 -10.769531 1.5625 -11.15625 C 2.300781 -12.550781 3.113281 -13.894531 4 -15.1875 C 4.894531 -16.488281 5.828125 -17.757812 6.796875 -19 C 6.992188 -19.226562 7.207031 -19.445312 7.4375 -19.65625 C 7.894531 -20.039062 8.421875 -20.207031 9.015625 -20.15625 C 9.847656 -20.082031 10.191406 -19.648438 10.046875 -18.859375 C 9.960938 -18.367188 9.832031 -17.910156 9.65625 -17.484375 C 9.445312 -16.972656 9.234375 -16.460938 9.015625 -15.953125 C 8.804688 -15.453125 8.578125 -14.957031 8.328125 -14.46875 C 7.859375 -13.46875 7.375 -12.46875 6.875 -11.46875 C 6.382812 -10.46875 5.890625 -9.46875 5.390625 -8.46875 C 5.304688 -8.269531 5.21875 -8.070312 5.125 -7.875 C 5.039062 -7.6875 4.960938 -7.492188 4.890625 -7.296875 Z M 4.890625 -7.296875 "/></g></g></g><g fill="#050a30" fill-opacity="1"><g transform="translate(207.750049, 336.847567)"><g><path d="M -5.21875 -20.578125 C -5.40625 -20.617188 -5.59375 -20.679688 -5.78125 -20.765625 C -5.96875 -20.847656 -6.09375 -21.023438 -6.15625 -21.296875 C -6.09375 -21.367188 -6.019531 -21.445312 -5.9375 -21.53125 C -5.851562 -21.625 -5.769531 -21.695312 -5.6875 -21.75 C -5.507812 -21.8125 -5.332031 -21.867188 -5.15625 -21.921875 C -4.976562 -21.984375 -4.800781 -22.03125 -4.625 -22.0625 C -3.351562 -22.320312 -2.070312 -22.550781 -0.78125 -22.75 C 0.507812 -22.957031 1.816406 -23.070312 3.140625 -23.09375 C 3.742188 -23.113281 4.335938 -23.175781 4.921875 -23.28125 C 5.515625 -23.382812 6.113281 -23.472656 6.71875 -23.546875 C 7.6875 -23.671875 8.648438 -23.789062 9.609375 -23.90625 C 10.578125 -24.019531 11.535156 -24.132812 12.484375 -24.25 C 12.660156 -24.269531 12.84375 -24.296875 13.03125 -24.328125 C 13.21875 -24.367188 13.414062 -24.40625 13.625 -24.4375 C 13.726562 -24.664062 13.828125 -24.898438 13.921875 -25.140625 C 14.023438 -25.378906 14.140625 -25.613281 14.265625 -25.84375 C 14.378906 -26.101562 14.503906 -26.25 14.640625 -26.28125 C 14.785156 -26.320312 15.070312 -26.289062 15.5 -26.1875 C 15.476562 -25.957031 15.457031 -25.722656 15.4375 -25.484375 C 15.425781 -25.242188 15.410156 -24.992188 15.390625 -24.734375 C 15.535156 -24.710938 15.675781 -24.691406 15.8125 -24.671875 C 15.957031 -24.660156 16.09375 -24.664062 16.21875 -24.6875 C 17.3125 -24.789062 18.394531 -24.894531 19.46875 -25 C 20.539062 -25.101562 21.625 -25.203125 22.71875 -25.296875 C 24.695312 -25.460938 26.664062 -25.609375 28.625 -25.734375 C 30.59375 -25.859375 32.566406 -25.84375 34.546875 -25.6875 C 34.878906 -25.664062 35.210938 -25.613281 35.546875 -25.53125 C 35.890625 -25.457031 36.226562 -25.367188 36.5625 -25.265625 C 36.789062 -25.210938 36.992188 -25.109375 37.171875 -24.953125 C 37.359375 -24.804688 37.488281 -24.582031 37.5625 -24.28125 C 37.3125 -24.019531 37.035156 -23.882812 36.734375 -23.875 C 36.441406 -23.863281 36.179688 -23.9375 35.953125 -24.09375 C 35.523438 -24.363281 35.085938 -24.53125 34.640625 -24.59375 C 34.191406 -24.65625 33.738281 -24.6875 33.28125 -24.6875 C 32.09375 -24.695312 30.914062 -24.660156 29.75 -24.578125 C 28.59375 -24.503906 27.429688 -24.40625 26.265625 -24.28125 C 24.941406 -24.15625 23.617188 -24.019531 22.296875 -23.875 C 20.972656 -23.738281 19.648438 -23.601562 18.328125 -23.46875 C 17.910156 -23.425781 17.488281 -23.378906 17.0625 -23.328125 C 16.632812 -23.273438 16.21875 -23.222656 15.8125 -23.171875 C 15.675781 -23.148438 15.535156 -23.125 15.390625 -23.09375 C 15.253906 -23.0625 15.113281 -23.023438 14.96875 -22.984375 C 14.9375 -22.859375 14.898438 -22.738281 14.859375 -22.625 C 14.828125 -22.507812 14.796875 -22.394531 14.765625 -22.28125 C 14.085938 -19.6875 13.410156 -17.09375 12.734375 -14.5 C 12.054688 -11.90625 11.375 -9.3125 10.6875 -6.71875 C 10.425781 -5.726562 10.207031 -4.726562 10.03125 -3.71875 C 9.863281 -2.707031 9.6875 -1.695312 9.5 -0.6875 C 9.175781 0.945312 8.835938 2.582031 8.484375 4.21875 C 8.140625 5.863281 7.726562 7.488281 7.25 9.09375 C 7.101562 9.59375 6.9375 10.085938 6.75 10.578125 C 6.570312 11.078125 6.375 11.5625 6.15625 12.03125 C 5.96875 12.488281 5.710938 12.785156 5.390625 12.921875 C 5.078125 13.066406 4.679688 13.109375 4.203125 13.046875 C 3.554688 12.953125 3.257812 12.609375 3.3125 12.015625 C 3.320312 11.734375 3.347656 11.445312 3.390625 11.15625 C 3.441406 10.875 3.503906 10.601562 3.578125 10.34375 C 3.992188 8.738281 4.421875 7.132812 4.859375 5.53125 C 5.304688 3.9375 5.75 2.347656 6.1875 0.765625 C 6.4375 -0.0976562 6.695312 -0.960938 6.96875 -1.828125 C 7.238281 -2.691406 7.488281 -3.5625 7.71875 -4.4375 C 7.882812 -5.0625 8.015625 -5.691406 8.109375 -6.328125 C 8.203125 -6.972656 8.296875 -7.613281 8.390625 -8.25 C 8.523438 -9.257812 8.628906 -10.265625 8.703125 -11.265625 C 8.785156 -12.273438 8.796875 -13.28125 8.734375 -14.28125 C 8.691406 -14.863281 8.628906 -15.441406 8.546875 -16.015625 C 8.472656 -16.585938 8.375 -17.164062 8.25 -17.75 C 8.175781 -18.101562 8.066406 -18.445312 7.921875 -18.78125 C 7.785156 -19.113281 7.628906 -19.441406 7.453125 -19.765625 C 7.347656 -19.992188 7.207031 -20.207031 7.03125 -20.40625 C 6.851562 -20.613281 6.675781 -20.804688 6.5 -20.984375 C 6.238281 -21.222656 5.953125 -21.394531 5.640625 -21.5 C 5.335938 -21.613281 5 -21.632812 4.625 -21.5625 C 3.976562 -21.4375 3.320312 -21.320312 2.65625 -21.21875 C 2 -21.125 1.34375 -21.035156 0.6875 -20.953125 C -0.03125 -20.859375 -0.75 -20.773438 -1.46875 -20.703125 C -2.195312 -20.640625 -2.925781 -20.582031 -3.65625 -20.53125 C -3.894531 -20.488281 -4.144531 -20.476562 -4.40625 -20.5 C -4.675781 -20.53125 -4.945312 -20.554688 -5.21875 -20.578125 Z M 8.046875 -21.921875 C 9.085938 -21.179688 9.796875 -20.296875 10.171875 -19.265625 C 10.546875 -18.234375 10.832031 -17.117188 11.03125 -15.921875 C 11.132812 -16.148438 11.257812 -16.488281 11.40625 -16.9375 C 11.5625 -17.394531 11.726562 -17.910156 11.90625 -18.484375 C 12.082031 -19.054688 12.25 -19.625 12.40625 -20.1875 C 12.5625 -20.75 12.695312 -21.253906 12.8125 -21.703125 C 12.925781 -22.148438 12.992188 -22.484375 13.015625 -22.703125 C 12.585938 -22.785156 12.164062 -22.773438 11.75 -22.671875 C 11.34375 -22.578125 10.9375 -22.503906 10.53125 -22.453125 C 10.144531 -22.398438 9.738281 -22.359375 9.3125 -22.328125 C 8.882812 -22.296875 8.460938 -22.160156 8.046875 -21.921875 Z M 8.046875 -21.921875 "/></g></g></g></svg>