<svg xmlns="http://www.w3.org/2000/svg" xmlns:xlink="http://www.w3.org/1999/xlink" width="500" zoomAndPan="magnify" viewBox="0 0 375 374.999991" height="500" preserveAspectRatio="xMidYMid meet" version="1.0"><defs><g/><clipPath id="51e0065a46"><path d="M 74 128.195312 L 185 128.195312 L 185 216.695312 L 74 216.695312 Z M 74 128.195312 " clip-rule="nonzero"/></clipPath></defs><rect x="-37.5" width="450" fill="#ffffff" y="-37.499999" height="449.999989" fill-opacity="1"/><rect x="-37.5" width="450" fill="#ffa100" y="-37.499999" height="449.999989" fill-opacity="1"/><g clip-path="url(#51e0065a46)"><path fill="#000000" d="M 177.875 159.269531 L 161.371094 159.269531 L 131.273438 128.707031 C 130.851562 128.257812 130.25 128.007812 129.613281 128.007812 C 128.992188 128.007812 128.390625 128.257812 127.953125 128.707031 L 97.871094 159.269531 L 81.34375 159.269531 C 77.5 159.269531 74.339844 162.410156 74.339844 166.277344 L 74.339844 209.378906 C 74.339844 213.230469 77.5 216.382812 81.34375 216.382812 L 177.875 216.382812 C 181.742188 216.382812 184.902344 213.230469 184.902344 209.378906 L 184.902344 166.261719 C 184.902344 162.410156 181.742188 159.269531 177.875 159.269531 Z M 95.027344 194.109375 C 95.027344 194.84375 94.851562 195.394531 94.511719 195.742188 C 94.175781 196.105469 93.753906 196.292969 93.226562 196.292969 C 92.691406 196.292969 92.253906 196.105469 91.929688 195.742188 C 91.617188 195.382812 91.457031 194.832031 91.457031 194.109375 L 91.457031 188.203125 L 83.753906 188.203125 L 83.753906 194.109375 C 83.753906 194.84375 83.589844 195.394531 83.242188 195.742188 C 82.917969 196.105469 82.480469 196.292969 81.957031 196.292969 C 81.417969 196.292969 80.996094 196.105469 80.671875 195.742188 C 80.359375 195.382812 80.195312 194.832031 80.195312 194.109375 L 80.195312 180.261719 C 80.195312 179.539062 80.359375 179.003906 80.671875 178.640625 C 80.980469 178.28125 81.417969 178.105469 81.96875 178.105469 C 82.503906 178.105469 82.941406 178.292969 83.265625 178.640625 C 83.589844 179.003906 83.765625 179.539062 83.765625 180.261719 L 83.765625 185.296875 L 91.46875 185.296875 L 91.46875 180.261719 C 91.46875 179.539062 91.628906 179.003906 91.953125 178.640625 C 92.277344 178.28125 92.703125 178.105469 93.242188 178.105469 C 93.765625 178.105469 94.203125 178.292969 94.539062 178.640625 C 94.875 179.003906 95.039062 179.539062 95.039062 180.261719 L 95.039062 194.109375 Z M 125.546875 137.804688 C 126.082031 139.527344 127.707031 140.785156 129.613281 140.785156 C 131.523438 140.785156 133.148438 139.527344 133.683594 137.792969 L 154.804688 159.269531 L 104.414062 159.269531 Z M 114.734375 190.867188 C 114.359375 191.992188 113.8125 192.949219 113.074219 193.761719 C 112.339844 194.582031 111.441406 195.207031 110.367188 195.628906 C 109.292969 196.066406 108.058594 196.292969 106.671875 196.292969 C 105.296875 196.292969 104.0625 196.066406 102.976562 195.617188 C 101.890625 195.167969 100.980469 194.546875 100.253906 193.734375 C 99.519531 192.925781 98.96875 191.953125 98.59375 190.820312 C 98.222656 189.683594 98.035156 188.464844 98.035156 187.15625 C 98.035156 185.808594 98.234375 184.550781 98.621094 183.425781 C 99.007812 182.304688 99.570312 181.347656 100.304688 180.546875 C 101.042969 179.761719 101.941406 179.152344 103 178.726562 C 104.050781 178.316406 105.261719 178.105469 106.597656 178.105469 C 108.417969 178.105469 109.992188 178.480469 111.304688 179.214844 C 112.601562 179.949219 113.601562 181.007812 114.273438 182.367188 C 114.949219 183.726562 115.285156 185.335938 115.285156 187.167969 C 115.285156 188.527344 115.097656 189.773438 114.734375 190.867188 Z M 130.902344 193.574219 C 130.351562 194.421875 129.539062 195.082031 128.492188 195.554688 C 127.429688 196.054688 126.183594 196.292969 124.734375 196.292969 C 123 196.292969 121.5625 195.96875 120.429688 195.304688 C 119.628906 194.832031 118.96875 194.195312 118.46875 193.410156 C 117.96875 192.625 117.71875 191.855469 117.71875 191.117188 C 117.71875 190.683594 117.867188 190.308594 118.167969 189.996094 C 118.46875 189.683594 118.855469 189.535156 119.316406 189.535156 C 119.691406 189.535156 120.015625 189.660156 120.265625 189.882812 C 120.527344 190.132812 120.753906 190.484375 120.941406 190.957031 C 121.164062 191.515625 121.402344 191.992188 121.664062 192.363281 C 121.925781 192.726562 122.289062 193.050781 122.761719 193.289062 C 123.25 193.535156 123.859375 193.648438 124.632812 193.648438 C 125.683594 193.648438 126.542969 193.398438 127.207031 192.902344 C 127.867188 192.441406 128.191406 191.828125 128.191406 191.09375 C 128.191406 190.507812 128.015625 190.035156 127.65625 189.683594 C 127.304688 189.3125 126.84375 189.035156 126.269531 188.835938 C 125.71875 188.648438 124.960938 188.4375 124.023438 188.226562 C 122.75 187.925781 121.6875 187.589844 120.839844 187.191406 C 119.992188 186.792969 119.304688 186.257812 118.816406 185.570312 C 118.316406 184.886719 118.054688 184.039062 118.054688 183.027344 C 118.054688 182.054688 118.316406 181.195312 118.84375 180.4375 C 119.367188 179.6875 120.140625 179.113281 121.140625 178.703125 C 122.136719 178.292969 123.324219 178.09375 124.683594 178.09375 C 125.757812 178.09375 126.695312 178.230469 127.480469 178.492188 C 128.28125 178.753906 128.929688 179.128906 129.453125 179.5625 C 129.976562 180.011719 130.351562 180.472656 130.601562 180.960938 C 130.839844 181.457031 130.949219 181.933594 130.949219 182.394531 C 130.949219 182.816406 130.800781 183.203125 130.5 183.539062 C 130.1875 183.890625 129.828125 184.050781 129.367188 184.050781 C 128.953125 184.050781 128.652344 183.949219 128.441406 183.738281 C 128.230469 183.539062 127.992188 183.214844 127.753906 182.742188 C 127.429688 182.082031 127.042969 181.558594 126.59375 181.195312 C 126.144531 180.824219 125.421875 180.636719 124.433594 180.636719 C 123.511719 180.636719 122.773438 180.847656 122.214844 181.246094 C 121.652344 181.644531 121.351562 182.132812 121.351562 182.703125 C 121.351562 183.054688 121.464844 183.367188 121.640625 183.628906 C 121.839844 183.890625 122.101562 184.101562 122.425781 184.273438 C 122.761719 184.460938 123.097656 184.613281 123.449219 184.710938 C 123.8125 184.8125 124.371094 184.960938 125.171875 185.160156 C 126.171875 185.398438 127.054688 185.632812 127.867188 185.921875 C 128.679688 186.207031 129.367188 186.542969 129.925781 186.941406 C 130.488281 187.339844 130.925781 187.839844 131.238281 188.464844 C 131.5625 189.074219 131.726562 189.820312 131.726562 190.71875 C 131.710938 191.777344 131.4375 192.738281 130.902344 193.574219 Z M 147.554688 180.933594 C 147.226562 181.207031 146.777344 181.347656 146.179688 181.347656 L 142.285156 181.347656 L 142.285156 194.109375 C 142.285156 194.859375 142.121094 195.40625 141.796875 195.753906 C 141.472656 196.105469 141.035156 196.292969 140.511719 196.292969 C 140 196.292969 139.5625 196.105469 139.214844 195.742188 C 138.890625 195.394531 138.726562 194.84375 138.726562 194.109375 L 138.726562 181.347656 L 134.84375 181.347656 C 134.222656 181.347656 133.785156 181.207031 133.484375 180.945312 C 133.199219 180.671875 133.035156 180.324219 133.035156 179.875 C 133.035156 179.414062 133.183594 179.066406 133.496094 178.804688 C 133.808594 178.542969 134.246094 178.402344 134.832031 178.402344 L 146.167969 178.402344 C 146.765625 178.402344 147.226562 178.542969 147.527344 178.816406 C 147.839844 179.089844 147.976562 179.4375 147.976562 179.875 C 147.976562 180.3125 147.851562 180.671875 147.554688 180.933594 Z M 163.257812 195.59375 C 162.980469 195.867188 162.558594 195.980469 161.996094 195.980469 L 152.296875 195.980469 C 151.511719 195.980469 150.960938 195.804688 150.625 195.46875 C 150.285156 195.132812 150.125 194.570312 150.125 193.8125 L 150.125 180.585938 C 150.125 180.074219 150.199219 179.664062 150.347656 179.328125 C 150.511719 179.003906 150.75 178.765625 151.074219 178.617188 C 151.398438 178.464844 151.820312 178.390625 152.320312 178.390625 L 161.746094 178.390625 C 162.308594 178.390625 162.730469 178.515625 163.019531 178.765625 C 163.28125 179.027344 163.417969 179.351562 163.417969 179.75 C 163.417969 180.175781 163.28125 180.511719 163.019531 180.761719 C 162.746094 181.007812 162.308594 181.132812 161.746094 181.132812 L 153.683594 181.132812 L 153.683594 185.445312 L 161.097656 185.445312 C 161.632812 185.445312 162.03125 185.570312 162.308594 185.808594 C 162.570312 186.09375 162.695312 186.40625 162.695312 186.804688 C 162.695312 187.191406 162.558594 187.527344 162.296875 187.777344 C 162.03125 188.039062 161.632812 188.152344 161.085938 188.152344 L 153.683594 188.152344 L 153.683594 193.148438 L 161.996094 193.148438 C 162.558594 193.148438 162.980469 193.273438 163.269531 193.535156 C 163.542969 193.796875 163.691406 194.136719 163.691406 194.570312 C 163.679688 194.996094 163.542969 195.34375 163.257812 195.59375 Z M 178.585938 195.582031 C 178.273438 195.84375 177.835938 195.980469 177.25 195.980469 L 168.636719 195.980469 C 167.851562 195.980469 167.300781 195.804688 166.964844 195.46875 C 166.613281 195.132812 166.4375 194.570312 166.4375 193.8125 L 166.4375 180.261719 C 166.4375 179.539062 166.601562 179.003906 166.925781 178.640625 C 167.25 178.292969 167.6875 178.105469 168.222656 178.105469 C 168.761719 178.105469 169.1875 178.292969 169.511719 178.640625 C 169.835938 179.003906 170.023438 179.539062 170.023438 180.261719 L 170.023438 193.0625 L 177.238281 193.0625 C 177.8125 193.0625 178.261719 193.199219 178.558594 193.472656 C 178.859375 193.75 179.023438 194.109375 179.023438 194.535156 C 179.035156 194.96875 178.882812 195.332031 178.585938 195.582031 Z M 178.585938 195.582031 " fill-opacity="1" fill-rule="nonzero"/></g><path fill="#000000" d="M 109.253906 181.671875 C 108.480469 181.171875 107.609375 180.933594 106.597656 180.933594 C 105.886719 180.933594 105.222656 181.070312 104.625 181.347656 C 104.027344 181.621094 103.5 182.007812 103.0625 182.519531 C 102.628906 183.015625 102.289062 183.675781 102.027344 184.472656 C 101.777344 185.273438 101.652344 186.144531 101.652344 187.15625 C 101.652344 188.140625 101.777344 189.050781 102.027344 189.859375 C 102.289062 190.667969 102.640625 191.332031 103.101562 191.855469 C 103.5625 192.390625 104.089844 192.800781 104.6875 193.0625 C 105.285156 193.324219 105.933594 193.460938 106.648438 193.460938 C 107.558594 193.460938 108.40625 193.210938 109.167969 192.765625 C 109.929688 192.316406 110.527344 191.605469 110.992188 190.65625 C 111.441406 189.710938 111.675781 188.539062 111.675781 187.15625 C 111.675781 185.859375 111.464844 184.738281 111.054688 183.789062 C 110.628906 182.855469 110.03125 182.144531 109.253906 181.671875 Z M 109.253906 181.671875 " fill-opacity="1" fill-rule="nonzero"/><g fill="#050a30" fill-opacity="1"><g transform="translate(200.625651, 201.518718)"><g><path d="M 22.8125 -15.921875 C 22.726562 -15.609375 22.632812 -15.289062 22.53125 -14.96875 C 22.425781 -14.644531 22.382812 -14.285156 22.40625 -13.890625 C 22.675781 -13.910156 22.921875 -13.9375 23.140625 -13.96875 C 23.367188 -14 23.59375 -14.023438 23.8125 -14.046875 C 24.300781 -14.097656 24.785156 -14.144531 25.265625 -14.1875 C 25.753906 -14.226562 26.234375 -14.257812 26.703125 -14.28125 C 26.898438 -14.28125 27.097656 -14.253906 27.296875 -14.203125 C 27.492188 -14.148438 27.679688 -14.085938 27.859375 -14.015625 C 28.046875 -13.953125 28.191406 -13.851562 28.296875 -13.71875 C 28.410156 -13.582031 28.445312 -13.378906 28.40625 -13.109375 C 27.976562 -12.796875 27.507812 -12.742188 27 -12.953125 C 26.664062 -13.078125 26.335938 -13.117188 26.015625 -13.078125 C 25.691406 -13.035156 25.375 -12.976562 25.0625 -12.90625 C 24.539062 -12.800781 24.015625 -12.6875 23.484375 -12.5625 C 22.953125 -12.4375 22.40625 -12.304688 21.84375 -12.171875 C 21.257812 -10.328125 20.722656 -8.46875 20.234375 -6.59375 C 19.742188 -4.71875 19.253906 -2.851562 18.765625 -1 C 18.296875 0.84375 17.832031 2.691406 17.375 4.546875 C 16.914062 6.398438 16.453125 8.253906 15.984375 10.109375 C 15.609375 10.128906 15.359375 10.109375 15.234375 10.046875 C 15.109375 9.992188 15.046875 9.867188 15.046875 9.671875 C 15.078125 9.203125 15.09375 8.738281 15.09375 8.28125 C 15.09375 7.820312 15.132812 7.367188 15.21875 6.921875 C 15.601562 5.066406 16 3.21875 16.40625 1.375 C 16.820312 -0.457031 17.226562 -2.285156 17.625 -4.109375 C 17.875 -5.160156 18.125 -6.203125 18.375 -7.234375 C 18.632812 -8.273438 18.890625 -9.320312 19.140625 -10.375 C 19.179688 -10.507812 19.210938 -10.65625 19.234375 -10.8125 C 19.253906 -10.96875 19.289062 -11.144531 19.34375 -11.34375 C 19.207031 -11.34375 19.085938 -11.351562 18.984375 -11.375 C 18.878906 -11.394531 18.796875 -11.394531 18.734375 -11.375 C 16.992188 -10.882812 15.253906 -10.382812 13.515625 -9.875 C 11.773438 -9.375 10.035156 -8.878906 8.296875 -8.390625 C 8.234375 -8.367188 8.164062 -8.335938 8.09375 -8.296875 C 8.03125 -8.253906 7.960938 -8.222656 7.890625 -8.203125 C 7.734375 -7.796875 7.539062 -7.195312 7.3125 -6.40625 C 7.09375 -5.613281 6.851562 -4.710938 6.59375 -3.703125 C 6.34375 -2.703125 6.085938 -1.664062 5.828125 -0.59375 C 5.578125 0.46875 5.34375 1.476562 5.125 2.4375 C 4.914062 3.394531 4.75 4.21875 4.625 4.90625 C 4.507812 5.601562 4.453125 6.085938 4.453125 6.359375 C 3.578125 6.734375 3.128906 6.53125 3.109375 5.75 C 3.109375 5.300781 3.117188 4.859375 3.140625 4.421875 C 3.160156 3.992188 3.21875 3.566406 3.3125 3.140625 C 3.601562 1.609375 3.898438 0.0664062 4.203125 -1.484375 C 4.503906 -3.035156 4.796875 -4.59375 5.078125 -6.15625 C 5.109375 -6.3125 5.132812 -6.484375 5.15625 -6.671875 C 5.175781 -6.859375 5.207031 -7.066406 5.25 -7.296875 C 4.800781 -7.242188 4.40625 -7.140625 4.0625 -6.984375 C 3.71875 -6.828125 3.367188 -6.695312 3.015625 -6.59375 C 2.742188 -6.5 2.472656 -6.425781 2.203125 -6.375 C 1.941406 -6.320312 1.675781 -6.28125 1.40625 -6.25 C 1.269531 -6.25 1.132812 -6.289062 1 -6.375 C 0.863281 -6.46875 0.71875 -6.550781 0.5625 -6.625 C 0.832031 -7.175781 1.203125 -7.550781 1.671875 -7.75 C 2.140625 -7.957031 2.597656 -8.160156 3.046875 -8.359375 C 3.472656 -8.585938 3.910156 -8.785156 4.359375 -8.953125 C 4.816406 -9.117188 5.289062 -9.300781 5.78125 -9.5 C 5.9375 -10.164062 6.097656 -10.828125 6.265625 -11.484375 C 6.429688 -12.148438 6.59375 -12.816406 6.75 -13.484375 C 7.113281 -14.890625 7.472656 -16.289062 7.828125 -17.6875 C 8.179688 -19.09375 8.539062 -20.5 8.90625 -21.90625 C 9.007812 -22.289062 9.125 -22.660156 9.25 -23.015625 C 9.375 -23.367188 9.503906 -23.726562 9.640625 -24.09375 C 9.722656 -24.3125 9.832031 -24.507812 9.96875 -24.6875 C 10.101562 -24.863281 10.289062 -25 10.53125 -25.09375 C 10.6875 -25.132812 10.847656 -25.144531 11.015625 -25.125 C 11.191406 -25.101562 11.488281 -25.003906 11.90625 -24.828125 C 11.882812 -24.222656 11.78125 -23.632812 11.59375 -23.0625 C 11.40625 -22.5 11.242188 -21.914062 11.109375 -21.3125 C 10.972656 -20.707031 10.832031 -20.109375 10.6875 -19.515625 C 10.539062 -18.929688 10.390625 -18.347656 10.234375 -17.765625 C 9.941406 -16.554688 9.648438 -15.363281 9.359375 -14.1875 C 9.203125 -13.601562 9.050781 -13.007812 8.90625 -12.40625 C 8.769531 -11.8125 8.613281 -11.1875 8.4375 -10.53125 C 8.613281 -10.53125 8.765625 -10.523438 8.890625 -10.515625 C 9.023438 -10.503906 9.148438 -10.507812 9.265625 -10.53125 C 10.941406 -10.957031 12.613281 -11.390625 14.28125 -11.828125 C 15.957031 -12.265625 17.644531 -12.691406 19.34375 -13.109375 C 19.40625 -13.128906 19.472656 -13.160156 19.546875 -13.203125 C 19.628906 -13.253906 19.726562 -13.300781 19.84375 -13.34375 C 19.90625 -13.550781 19.972656 -13.769531 20.046875 -14 C 20.128906 -14.226562 20.203125 -14.46875 20.265625 -14.71875 C 20.867188 -16.988281 21.476562 -19.25 22.09375 -21.5 C 22.707031 -23.757812 23.335938 -26.015625 23.984375 -28.265625 C 24.210938 -29.046875 24.472656 -29.820312 24.765625 -30.59375 C 25.066406 -31.363281 25.375 -32.113281 25.6875 -32.84375 C 25.863281 -33.269531 26.066406 -33.503906 26.296875 -33.546875 C 26.535156 -33.597656 26.925781 -33.507812 27.46875 -33.28125 C 27.445312 -32.90625 27.390625 -32.535156 27.296875 -32.171875 C 27.203125 -31.816406 27.113281 -31.453125 27.03125 -31.078125 C 26.3125 -28.554688 25.601562 -26.03125 24.90625 -23.5 C 24.207031 -20.96875 23.507812 -18.441406 22.8125 -15.921875 Z M 22.8125 -15.921875 "/></g></g></g><g fill="#050a30" fill-opacity="1"><g transform="translate(226.822469, 201.518718)"><g><path d="M 29.90625 -30 C 30.238281 -30.675781 30.578125 -31.070312 30.921875 -31.1875 C 31.273438 -31.3125 31.863281 -31.226562 32.6875 -30.9375 C 32.769531 -30.582031 32.773438 -30.253906 32.703125 -29.953125 C 32.640625 -29.648438 32.566406 -29.359375 32.484375 -29.078125 C 32.015625 -27.691406 31.550781 -26.3125 31.09375 -24.9375 C 30.632812 -23.5625 30.179688 -22.1875 29.734375 -20.8125 C 28.578125 -17.332031 27.410156 -13.851562 26.234375 -10.375 C 25.066406 -6.894531 23.90625 -3.414062 22.75 0.0625 C 22.394531 1.175781 22.085938 2.300781 21.828125 3.4375 C 21.566406 4.582031 21.359375 5.722656 21.203125 6.859375 C 20.847656 7.191406 20.4375 7.210938 19.96875 6.921875 C 19.882812 6.472656 19.851562 6.007812 19.875 5.53125 C 19.894531 5.050781 19.9375 4.578125 20 4.109375 C 20.15625 2.734375 20.398438 1.378906 20.734375 0.046875 C 21.078125 -1.273438 21.445312 -2.59375 21.84375 -3.90625 C 22.425781 -5.851562 23.015625 -7.785156 23.609375 -9.703125 C 24.210938 -11.617188 24.816406 -13.535156 25.421875 -15.453125 C 25.515625 -15.722656 25.59375 -15.988281 25.65625 -16.25 C 25.726562 -16.519531 25.75 -16.800781 25.71875 -17.09375 C 25.613281 -16.9375 25.492188 -16.769531 25.359375 -16.59375 C 25.222656 -16.414062 25.097656 -16.238281 24.984375 -16.0625 C 23.785156 -14.207031 22.519531 -12.410156 21.1875 -10.671875 C 19.863281 -8.929688 18.46875 -7.25 17 -5.625 C 16.082031 -4.570312 15.109375 -3.566406 14.078125 -2.609375 C 13.054688 -1.648438 11.988281 -0.734375 10.875 0.140625 C 10.15625 0.671875 9.410156 1.160156 8.640625 1.609375 C 7.878906 2.054688 7.082031 2.445312 6.25 2.78125 C 5.25 3.175781 4.25 3.34375 3.25 3.28125 C 1.644531 3.164062 0.765625 2.351562 0.609375 0.84375 C 0.554688 0.28125 0.539062 -0.28125 0.5625 -0.84375 C 0.59375 -1.414062 0.640625 -1.972656 0.703125 -2.515625 C 0.835938 -3.597656 1.054688 -4.671875 1.359375 -5.734375 C 1.660156 -6.796875 1.988281 -7.835938 2.34375 -8.859375 C 3.144531 -11.242188 3.992188 -13.613281 4.890625 -15.96875 C 5.796875 -18.320312 6.773438 -20.660156 7.828125 -22.984375 C 8.160156 -23.722656 8.539062 -24.4375 8.96875 -25.125 C 9.226562 -25.550781 9.539062 -25.882812 9.90625 -26.125 C 10.125 -26.300781 10.367188 -26.394531 10.640625 -26.40625 C 10.910156 -26.414062 11.15625 -26.28125 11.375 -26 C 11.175781 -25.769531 10.96875 -25.539062 10.75 -25.3125 C 10.539062 -25.09375 10.359375 -24.863281 10.203125 -24.625 C 10.046875 -24.375 9.910156 -24.101562 9.796875 -23.8125 C 9.691406 -23.53125 9.582031 -23.253906 9.46875 -22.984375 C 8.332031 -20.148438 7.25 -17.3125 6.21875 -14.46875 C 5.195312 -11.625 4.257812 -8.742188 3.40625 -5.828125 C 3.164062 -4.910156 2.957031 -3.988281 2.78125 -3.0625 C 2.601562 -2.132812 2.546875 -1.191406 2.609375 -0.234375 C 2.628906 0.078125 2.675781 0.394531 2.75 0.71875 C 2.832031 1.039062 2.929688 1.359375 3.046875 1.671875 C 3.222656 2.203125 3.585938 2.367188 4.140625 2.171875 C 4.503906 2.035156 4.859375 1.890625 5.203125 1.734375 C 5.546875 1.578125 5.882812 1.410156 6.21875 1.234375 C 7.800781 0.410156 9.253906 -0.625 10.578125 -1.875 C 11.421875 -2.65625 12.253906 -3.445312 13.078125 -4.25 C 13.898438 -5.050781 14.691406 -5.875 15.453125 -6.71875 C 17.679688 -9.21875 19.734375 -11.84375 21.609375 -14.59375 C 23.484375 -17.351562 25.15625 -20.238281 26.625 -23.25 C 27.03125 -24.050781 27.425781 -24.851562 27.8125 -25.65625 C 28.207031 -26.457031 28.59375 -27.257812 28.96875 -28.0625 C 29.125 -28.394531 29.273438 -28.722656 29.421875 -29.046875 C 29.566406 -29.378906 29.726562 -29.695312 29.90625 -30 Z M 29.90625 -30 "/></g></g></g><g fill="#050a30" fill-opacity="1"><g transform="translate(255.662379, 201.518718)"><g><path d="M 6.1875 -9.234375 C 6.257812 -9.191406 6.335938 -9.15625 6.421875 -9.125 C 6.515625 -9.21875 6.601562 -9.3125 6.6875 -9.40625 C 6.78125 -9.507812 6.867188 -9.617188 6.953125 -9.734375 C 8.691406 -11.804688 10.429688 -13.882812 12.171875 -15.96875 C 13.910156 -18.0625 15.648438 -20.144531 17.390625 -22.21875 C 18.421875 -23.4375 19.472656 -24.632812 20.546875 -25.8125 C 21.628906 -27 22.8125 -28.097656 24.09375 -29.109375 C 24.425781 -29.398438 24.773438 -29.664062 25.140625 -29.90625 C 25.503906 -30.15625 25.878906 -30.390625 26.265625 -30.609375 C 27.066406 -31.097656 27.96875 -31.273438 28.96875 -31.140625 C 29.65625 -31.078125 30.132812 -30.882812 30.40625 -30.5625 C 30.675781 -30.238281 30.789062 -29.742188 30.75 -29.078125 C 30.675781 -28.554688 30.5625 -28.070312 30.40625 -27.625 C 30.050781 -26.738281 29.710938 -25.859375 29.390625 -24.984375 C 29.066406 -24.117188 28.703125 -23.25 28.296875 -22.375 C 27.253906 -20.164062 26.191406 -17.953125 25.109375 -15.734375 C 24.023438 -13.515625 22.957031 -11.289062 21.90625 -9.0625 C 20.726562 -6.5625 19.597656 -4.039062 18.515625 -1.5 C 17.429688 1.039062 16.457031 3.625 15.59375 6.25 C 15.320312 7.050781 15.082031 7.867188 14.875 8.703125 C 14.675781 9.546875 14.46875 10.378906 14.25 11.203125 C 14.226562 11.335938 14.21875 11.476562 14.21875 11.625 C 14.21875 11.769531 14.21875 11.941406 14.21875 12.140625 C 14.414062 12.210938 14.609375 12.28125 14.796875 12.34375 C 14.992188 12.40625 15.191406 12.460938 15.390625 12.515625 C 15.367188 12.578125 15.34375 12.632812 15.3125 12.6875 C 15.289062 12.75 15.257812 12.789062 15.21875 12.8125 C 15.101562 12.925781 14.957031 13.003906 14.78125 13.046875 C 14 13.335938 13.382812 13.332031 12.9375 13.03125 C 12.5 12.726562 12.28125 12.164062 12.28125 11.34375 C 12.28125 10.851562 12.316406 10.351562 12.390625 9.84375 C 12.472656 9.34375 12.566406 8.859375 12.671875 8.390625 C 13.210938 6.023438 13.867188 3.707031 14.640625 1.4375 C 15.410156 -0.832031 16.257812 -3.070312 17.1875 -5.28125 C 18.019531 -7.226562 18.882812 -9.148438 19.78125 -11.046875 C 20.6875 -12.941406 21.585938 -14.847656 22.484375 -16.765625 C 23.085938 -18.015625 23.6875 -19.253906 24.28125 -20.484375 C 24.882812 -21.722656 25.476562 -22.976562 26.0625 -24.25 C 26.332031 -24.851562 26.578125 -25.46875 26.796875 -26.09375 C 27.015625 -26.71875 27.238281 -27.34375 27.46875 -27.96875 C 27.507812 -28.082031 27.539062 -28.203125 27.5625 -28.328125 C 27.582031 -28.460938 27.601562 -28.609375 27.625 -28.765625 C 27.269531 -28.722656 26.988281 -28.609375 26.78125 -28.421875 C 26.570312 -28.234375 26.375 -28.035156 26.1875 -27.828125 C 25.4375 -27.078125 24.6875 -26.3125 23.9375 -25.53125 C 23.1875 -24.75 22.457031 -23.957031 21.75 -23.15625 C 19.71875 -20.757812 17.691406 -18.367188 15.671875 -15.984375 C 13.648438 -13.597656 11.625 -11.210938 9.59375 -8.828125 C 8.925781 -8.046875 8.222656 -7.273438 7.484375 -6.515625 C 6.753906 -5.765625 6.019531 -5.007812 5.28125 -4.25 C 5.0625 -4 4.816406 -3.773438 4.546875 -3.578125 C 4.273438 -3.378906 3.972656 -3.257812 3.640625 -3.21875 C 3.398438 -3.164062 3.148438 -3.132812 2.890625 -3.125 C 2.640625 -3.113281 2.398438 -3.128906 2.171875 -3.171875 C 1.253906 -3.304688 0.921875 -3.8125 1.171875 -4.6875 C 1.410156 -5.53125 1.722656 -6.351562 2.109375 -7.15625 C 2.910156 -8.8125 3.710938 -10.457031 4.515625 -12.09375 C 5.316406 -13.726562 6.117188 -15.363281 6.921875 -17 C 7.054688 -17.257812 7.175781 -17.53125 7.28125 -17.8125 C 7.394531 -18.09375 7.476562 -18.398438 7.53125 -18.734375 C 7.4375 -18.640625 7.335938 -18.539062 7.234375 -18.4375 C 7.140625 -18.34375 7.046875 -18.238281 6.953125 -18.125 C 5.953125 -16.769531 4.976562 -15.394531 4.03125 -14 C 3.082031 -12.601562 2.285156 -11.125 1.640625 -9.5625 C 1.617188 -9.5 1.585938 -9.4375 1.546875 -9.375 C 1.515625 -9.320312 1.476562 -9.285156 1.4375 -9.265625 C 1.34375 -9.222656 1.242188 -9.179688 1.140625 -9.140625 C 1.046875 -9.109375 0.957031 -9.09375 0.875 -9.09375 C 0.820312 -9.09375 0.753906 -9.128906 0.671875 -9.203125 C 0.597656 -9.285156 0.5625 -9.363281 0.5625 -9.4375 C 0.5625 -9.695312 0.5625 -9.96875 0.5625 -10.25 C 0.5625 -10.53125 0.597656 -10.796875 0.671875 -11.046875 C 0.847656 -11.578125 1.039062 -12.097656 1.25 -12.609375 C 1.46875 -13.117188 1.707031 -13.625 1.96875 -14.125 C 2.90625 -15.882812 3.9375 -17.582031 5.0625 -19.21875 C 6.1875 -20.851562 7.363281 -22.453125 8.59375 -24.015625 C 8.84375 -24.304688 9.113281 -24.585938 9.40625 -24.859375 C 9.976562 -25.347656 10.644531 -25.554688 11.40625 -25.484375 C 12.457031 -25.398438 12.894531 -24.859375 12.71875 -23.859375 C 12.601562 -23.234375 12.429688 -22.648438 12.203125 -22.109375 C 11.941406 -21.460938 11.675781 -20.820312 11.40625 -20.1875 C 11.132812 -19.550781 10.84375 -18.921875 10.53125 -18.296875 C 9.9375 -17.023438 9.328125 -15.757812 8.703125 -14.5 C 8.078125 -13.238281 7.453125 -11.972656 6.828125 -10.703125 C 6.710938 -10.460938 6.597656 -10.21875 6.484375 -9.96875 C 6.378906 -9.71875 6.28125 -9.472656 6.1875 -9.234375 Z M 6.1875 -9.234375 "/></g></g></g><g fill="#050a30" fill-opacity="1"><g transform="translate(280.855482, 201.518718)"><g><path d="M -6.59375 -26.03125 C -6.832031 -26.070312 -7.066406 -26.144531 -7.296875 -26.25 C -7.535156 -26.363281 -7.703125 -26.59375 -7.796875 -26.9375 C -7.703125 -27.019531 -7.601562 -27.113281 -7.5 -27.21875 C -7.40625 -27.332031 -7.300781 -27.425781 -7.1875 -27.5 C -6.96875 -27.582031 -6.742188 -27.65625 -6.515625 -27.71875 C -6.296875 -27.789062 -6.078125 -27.851562 -5.859375 -27.90625 C -4.253906 -28.238281 -2.628906 -28.53125 -0.984375 -28.78125 C 0.648438 -29.039062 2.304688 -29.179688 3.984375 -29.203125 C 4.742188 -29.222656 5.492188 -29.300781 6.234375 -29.4375 C 6.984375 -29.570312 7.738281 -29.679688 8.5 -29.765625 C 9.726562 -29.921875 10.945312 -30.070312 12.15625 -30.21875 C 13.375 -30.363281 14.585938 -30.515625 15.796875 -30.671875 C 16.015625 -30.691406 16.238281 -30.722656 16.46875 -30.765625 C 16.707031 -30.816406 16.960938 -30.863281 17.234375 -30.90625 C 17.359375 -31.195312 17.484375 -31.492188 17.609375 -31.796875 C 17.734375 -32.097656 17.875 -32.394531 18.03125 -32.6875 C 18.1875 -33.019531 18.351562 -33.207031 18.53125 -33.25 C 18.707031 -33.289062 19.066406 -33.25 19.609375 -33.125 C 19.578125 -32.832031 19.550781 -32.535156 19.53125 -32.234375 C 19.507812 -31.929688 19.488281 -31.613281 19.46875 -31.28125 C 19.644531 -31.257812 19.820312 -31.234375 20 -31.203125 C 20.175781 -31.179688 20.34375 -31.1875 20.5 -31.21875 C 21.882812 -31.34375 23.253906 -31.472656 24.609375 -31.609375 C 25.972656 -31.742188 27.347656 -31.867188 28.734375 -31.984375 C 31.234375 -32.203125 33.722656 -32.390625 36.203125 -32.546875 C 38.691406 -32.703125 41.1875 -32.679688 43.6875 -32.484375 C 44.113281 -32.460938 44.535156 -32.398438 44.953125 -32.296875 C 45.378906 -32.203125 45.804688 -32.085938 46.234375 -31.953125 C 46.523438 -31.878906 46.785156 -31.75 47.015625 -31.5625 C 47.253906 -31.375 47.414062 -31.085938 47.5 -30.703125 C 47.1875 -30.367188 46.835938 -30.195312 46.453125 -30.1875 C 46.078125 -30.175781 45.75 -30.269531 45.46875 -30.46875 C 44.925781 -30.8125 44.367188 -31.019531 43.796875 -31.09375 C 43.234375 -31.175781 42.660156 -31.21875 42.078125 -31.21875 C 40.585938 -31.238281 39.101562 -31.195312 37.625 -31.09375 C 36.15625 -30.988281 34.6875 -30.859375 33.21875 -30.703125 C 31.539062 -30.546875 29.863281 -30.378906 28.1875 -30.203125 C 26.519531 -30.023438 24.851562 -29.847656 23.1875 -29.671875 C 22.644531 -29.628906 22.109375 -29.570312 21.578125 -29.5 C 21.046875 -29.4375 20.519531 -29.375 20 -29.3125 C 19.820312 -29.28125 19.644531 -29.242188 19.46875 -29.203125 C 19.289062 -29.160156 19.113281 -29.117188 18.9375 -29.078125 C 18.894531 -28.921875 18.847656 -28.769531 18.796875 -28.625 C 18.753906 -28.476562 18.710938 -28.328125 18.671875 -28.171875 C 17.816406 -24.890625 16.957031 -21.609375 16.09375 -18.328125 C 15.238281 -15.054688 14.378906 -11.78125 13.515625 -8.5 C 13.179688 -7.25 12.90625 -5.984375 12.6875 -4.703125 C 12.476562 -3.421875 12.253906 -2.144531 12.015625 -0.875 C 11.609375 1.195312 11.179688 3.269531 10.734375 5.34375 C 10.285156 7.425781 9.765625 9.484375 9.171875 11.515625 C 8.992188 12.128906 8.785156 12.75 8.546875 13.375 C 8.316406 14 8.066406 14.613281 7.796875 15.21875 C 7.546875 15.800781 7.21875 16.179688 6.8125 16.359375 C 6.414062 16.535156 5.914062 16.582031 5.3125 16.5 C 4.488281 16.382812 4.113281 15.945312 4.1875 15.1875 C 4.207031 14.832031 4.242188 14.472656 4.296875 14.109375 C 4.347656 13.753906 4.421875 13.410156 4.515625 13.078125 C 5.046875 11.046875 5.585938 9.019531 6.140625 7 C 6.703125 4.988281 7.265625 2.976562 7.828125 0.96875 C 8.140625 -0.125 8.46875 -1.21875 8.8125 -2.3125 C 9.15625 -3.40625 9.472656 -4.507812 9.765625 -5.625 C 9.960938 -6.40625 10.125 -7.203125 10.25 -8.015625 C 10.375 -8.828125 10.492188 -9.632812 10.609375 -10.4375 C 10.785156 -11.707031 10.921875 -12.976562 11.015625 -14.25 C 11.117188 -15.519531 11.128906 -16.789062 11.046875 -18.0625 C 10.992188 -18.800781 10.914062 -19.53125 10.8125 -20.25 C 10.71875 -20.976562 10.59375 -21.710938 10.4375 -22.453125 C 10.34375 -22.890625 10.207031 -23.320312 10.03125 -23.75 C 9.851562 -24.175781 9.65625 -24.585938 9.4375 -24.984375 C 9.300781 -25.273438 9.117188 -25.546875 8.890625 -25.796875 C 8.671875 -26.054688 8.453125 -26.300781 8.234375 -26.53125 C 7.898438 -26.84375 7.535156 -27.0625 7.140625 -27.1875 C 6.753906 -27.320312 6.328125 -27.347656 5.859375 -27.265625 C 5.023438 -27.109375 4.191406 -26.96875 3.359375 -26.84375 C 2.523438 -26.71875 1.695312 -26.601562 0.875 -26.5 C -0.0390625 -26.382812 -0.957031 -26.28125 -1.875 -26.1875 C -2.789062 -26.101562 -3.703125 -26.023438 -4.609375 -25.953125 C -4.921875 -25.910156 -5.242188 -25.90625 -5.578125 -25.9375 C -5.921875 -25.976562 -6.257812 -26.007812 -6.59375 -26.03125 Z M 10.171875 -27.734375 C 11.484375 -26.796875 12.378906 -25.671875 12.859375 -24.359375 C 13.335938 -23.054688 13.703125 -21.648438 13.953125 -20.140625 C 14.085938 -20.429688 14.25 -20.859375 14.4375 -21.421875 C 14.625 -21.992188 14.828125 -22.640625 15.046875 -23.359375 C 15.273438 -24.085938 15.488281 -24.804688 15.6875 -25.515625 C 15.882812 -26.234375 16.054688 -26.875 16.203125 -27.4375 C 16.347656 -28.007812 16.429688 -28.429688 16.453125 -28.703125 C 15.921875 -28.816406 15.390625 -28.8125 14.859375 -28.6875 C 14.335938 -28.5625 13.820312 -28.46875 13.3125 -28.40625 C 12.820312 -28.332031 12.304688 -28.273438 11.765625 -28.234375 C 11.234375 -28.191406 10.703125 -28.023438 10.171875 -27.734375 Z M 10.171875 -27.734375 "/></g></g></g></svg>